<?xml version="1.0" encoding="UTF-8"?>
<svg id="Layer_1" data-name="Layer 1" xmlns="http://www.w3.org/2000/svg" version="1.1" viewBox="0 0 595.28 841.89">
  <defs>
    <style>
      .cls-1 {
        fill: #cc7360;
        opacity: .38;
      }

      .cls-1, .cls-2, .cls-3, .cls-4 {
        stroke-width: 0px;
      }

      .cls-2 {
        fill: #00a5d6;
        opacity: .15;
      }

      .cls-3 {
        fill: #fff;
      }

      .cls-4 {
        fill: #07519f;
      }
    </style>
  </defs>
  <path class="cls-1" d="M295.4,631.89c128.31,0,241.24,65.83,306.87,165.56h40.64v-333.72h-45.56l.44,18.53.78,94.17-19.79-20.21c-20.1-18.51-85.9-53.74-163.45-53.74-114.02,0-151.36,57.46-285.58,54.62-91.41-1.93-118.47-34.25-126.44-55.15v-38.22H-30.39v333.72H-11.48c65.63-99.73,178.56-165.56,306.87-165.56Z"/>
  <path class="cls-2" d="M606.65,239.49H-18.13v160.55H3.31v101.92c7.97,20.9,35.04,53.21,126.44,55.15,134.21,2.84,171.56-54.62,285.58-54.62,77.55,0,143.35,35.23,163.45,53.74l19.79,20.21-.78-94.17-1.97-82.23h10.84v-160.55Z"/>
  <path class="cls-4" d="M578.78,136.47V38.14H3.31c1.53-.54-2.95,267.96,1.56,262.99,12.21-4.75,24.76-7.8,37.65-11.87,81.99-20.04,192.87-9.59,275.72,14.16,73.65,22.13,163.5,69.44,263.48,34.68,22.13-7.69,4.25-188.24,7.69-196,0,0-10.62-5.63-10.62-5.63Z"/>
  <path class="cls-3" d="M606.65,6.16H-3.41v103.63c5.22,3.98-19.78,72.12-14.71,75.59l30.16,15.85c128.83,73.14,310.44-51.92,396.29-74.69,68.04-18.05,139.68,4.28,172.15,17.02l11.47,6.08c8.56,3.74,14.71-143.5,14.71-143.5Z"/>
</svg>