<?xml version="1.0" encoding="UTF-8"?>
<svg id="Layer_1" data-name="Layer 1" xmlns="http://www.w3.org/2000/svg" version="1.1" viewBox="0 0 841.9 595.3">
  <defs>
    <style>
      .cls-1 {
        fill: #3b5572;
      }

      .cls-1, .cls-2, .cls-3 {
        stroke-width: 0px;
      }

      .cls-2 {
        fill: #0b8fb7;
      }

      .cls-3 {
        fill: #38a0ce;
      }
    </style>
  </defs>
  <path class="cls-1" d="M0,518.2c-18.5-8.3-27-26.2-30.8-43,10.5-22.4,23.5-34.7,31.8-38.6,23.3-11.1,50.8-4.1,64.4,13.2,13.7,17.3,19.2,37,25.4,39.8,5.6,2.5,49,4.9,75.5,45.9-59.4,4.1-74.4.4-83.8-3.1-19.2-7.2-42.9,3.7-82.5-14.1"/>
  <path class="cls-1" d="M427.8,496.8c-18.5-8.3-27-26.2-30.8-43,10.5-22.4,23.5-34.7,31.8-38.6,23.3-11.1,50.8-4.1,64.4,13.2,13.7,17.3,19.1,37,25.4,39.8,5.6,2.5,49,4.9,75.5,45.9-59.4,4.1-74.4.4-83.8-3.1-19.2-7.2-42.9,3.7-82.5-14.1"/>
  <path class="cls-2" d="M912.6,499.9H-118.6s3.8,72.1,62.2,95.3h942.8l26.2-95.3h0Z"/>
  <ellipse class="cls-3" cx="43.2" cy="523" rx="13.6" ry="5.2"/>
  <ellipse class="cls-3" cx="69.6" cy="556.8" rx="6.8" ry="5.2"/>
  <ellipse class="cls-3" cx="151.4" cy="563" rx="25.8" ry="6.2"/>
  <ellipse class="cls-3" cx="252.2" cy="523" rx="25.8" ry="6.2"/>
  <ellipse class="cls-3" cx="342.6" cy="563.5" rx="15.5" ry="6.7"/>
  <ellipse class="cls-3" cx="420.2" cy="547.6" rx="14.9" ry="6.1"/>
  <ellipse class="cls-3" cx="487" cy="527.1" rx="13.6" ry="5.2"/>
  <ellipse class="cls-3" cx="513.4" cy="560.8" rx="6.8" ry="5.2"/>
  <ellipse class="cls-3" cx="595.2" cy="567" rx="25.8" ry="6.2"/>
  <ellipse class="cls-3" cx="696" cy="527.1" rx="25.8" ry="6.2"/>
  <ellipse class="cls-3" cx="786.4" cy="567.6" rx="15.5" ry="6.7"/>
  <ellipse class="cls-3" cx="864" cy="551.7" rx="14.9" ry="6.1"/>
  <path class="cls-1" d="M134,499.9s13.4-12.4,33.6-14.6c20.2-2.3,23.1,8.1,31.3,7.3s14-13,32.4-19.6c22.8-8.1,37.8-1.9,46.5-7.7s51.8-39.6,93.2-39.6,74,25.8,74,25.8v48.4H134Z"/>
  <path class="cls-1" d="M530.9,499.9s13.4-15.4,33.6-18.2c20.2-2.8,23,10.1,31.3,9.1,8.2-1,14-16.2,32.4-24.4,22.8-10.1,37.8-2.3,46.5-9.6,8.7-7.3,51.8-49.4,93.2-49.4s74,32.1,74,32.1v60.3h-311Z"/>
</svg>