<?xml version="1.0" encoding="UTF-8"?>
<svg id="Layer_1" data-name="Layer 1" xmlns="http://www.w3.org/2000/svg" version="1.1" viewBox="0 0 841.89 595.28">
  <defs>
    <style>
      .cls-1 {
        fill: #3d905f;
      }

      .cls-1, .cls-2 {
        stroke-width: 0px;
      }

      .cls-2 {
        fill: #1c5633;
      }
    </style>
  </defs>
  <path class="cls-1" d="M810.29,264.43c12.26-20.72,14.94-34.26,10.02-35.42-4.91-1.16-23.54,16.47-32.52,30.36-21.77,33.67-30.28,60.88-30.28,60.88,0,0,36.99-29.14,52.78-55.82Z"/>
  <path class="cls-1" d="M780.16,247.58c.65,40.09-22.64,72.66-22.64,72.66,0,0-.02-53.43.55-76.51.58-23.08,5.42-38.03,10.43-38.26,4.13-.19,11.37,24.11,11.66,42.11Z"/>
  <path class="cls-1" d="M757.51,320.25s-58.9-41.51-72.74-57.92c-13.84-16.42-19.39-21.66-13.1-25.98,6.29-4.31,38.88,15.14,52.33,25.64,13.45,10.5,31.32,32.24,33.51,58.26Z"/>
  <path class="cls-1" d="M757.51,320.25s-36.74-60.51-49.57-91.3c-12.83-30.79-13.89-58.74-7.15-60.21,6.74-1.48,36.2,41.62,43.14,57.63,6.15,14.2,23.33,48.74,13.58,93.88Z"/>
  <path class="cls-1" d="M605.56,296.18c-6.53-11.03-7.95-18.23-5.34-18.85,2.62-.62,12.53,8.77,17.31,16.16,11.59,17.92,16.12,32.41,16.12,32.41,0,0-19.69-15.51-28.1-29.71Z"/>
  <path class="cls-1" d="M621.61,287.21c-.35,21.34,12.05,38.68,12.05,38.68,0,0,.01-28.44-.29-40.73-.31-12.29-2.88-20.24-5.55-20.37-2.2-.1-6.05,12.84-6.21,22.41Z"/>
  <path class="cls-1" d="M633.66,325.9s31.35-22.09,38.72-30.83c7.37-8.74,10.32-11.53,6.97-13.83-3.35-2.3-20.7,8.06-27.86,13.65-7.16,5.59-16.67,17.16-17.84,31.01Z"/>
  <path class="cls-1" d="M633.66,325.9s19.56-32.21,26.39-48.6c6.83-16.39,7.39-31.27,3.8-32.05-3.59-.79-19.27,22.15-22.96,30.68-3.27,7.56-12.42,25.95-7.23,49.98Z"/>
  <path class="cls-2" d="M669.98,291.7c-6.53-11.03-7.95-18.23-5.34-18.85,2.62-.62,12.53,8.77,17.31,16.16,11.59,17.92,16.12,32.41,16.12,32.41,0,0-19.69-15.51-28.1-29.71Z"/>
  <path class="cls-2" d="M686.03,282.73c-.35,21.34,12.05,38.68,12.05,38.68,0,0,.01-28.44-.29-40.73-.31-12.29-2.88-20.24-5.55-20.37-2.2-.1-6.05,12.84-6.21,22.41Z"/>
  <path class="cls-2" d="M698.08,321.41s31.35-22.09,38.72-30.83c7.37-8.74,10.32-11.53,6.97-13.83-3.35-2.3-20.7,8.06-27.86,13.65-7.16,5.59-16.67,17.16-17.84,31.01Z"/>
  <path class="cls-2" d="M698.08,321.41s19.56-32.21,26.39-48.6c6.83-16.39,7.39-31.27,3.8-32.05-3.59-.79-19.27,22.15-22.96,30.68-3.27,7.56-12.42,25.95-7.23,49.98Z"/>
  <path class="cls-1" d="M35.33,285.66c-7.91-13.37-9.64-22.11-6.47-22.86,3.17-.75,15.2,10.63,20.99,19.59,14.05,21.73,19.54,39.3,19.54,39.3,0,0-23.88-18.81-34.07-36.03Z"/>
  <path class="cls-1" d="M54.78,274.78c-.42,25.88,14.62,46.9,14.62,46.9,0,0,.02-34.49-.36-49.38-.37-14.9-3.5-24.55-6.73-24.7-2.67-.12-7.34,15.56-7.53,27.18Z"/>
  <path class="cls-1" d="M69.39,321.69s38.02-26.79,46.95-37.39c8.93-10.6,12.51-13.98,8.46-16.77-4.06-2.78-25.1,9.77-33.78,16.55-8.68,6.78-20.21,20.81-21.63,37.6Z"/>
  <path class="cls-1" d="M69.39,321.69s23.71-39.06,32-58.93c8.28-19.87,8.96-37.91,4.61-38.87-4.35-.95-23.37,26.86-27.85,37.2-3.97,9.17-15.06,31.46-8.77,60.6Z"/>
  <path class="cls-1" d="M167.47,306.15c4.21-7.12,5.13-11.77,3.44-12.17-1.69-.4-8.09,5.66-11.18,10.43-7.48,11.57-10.4,20.92-10.4,20.92,0,0,12.71-10.01,18.13-19.18Z"/>
  <path class="cls-1" d="M157.12,300.36c.22,13.77-7.78,24.97-7.78,24.97,0,0,0-18.36.19-26.29.2-7.93,1.86-13.07,3.58-13.15,1.42-.07,3.91,8.28,4.01,14.47Z"/>
  <path class="cls-1" d="M149.34,325.33s-20.24-14.26-24.99-19.9c-4.75-5.64-6.66-7.44-4.5-8.92,2.16-1.48,13.36,5.2,17.98,8.81,4.62,3.61,10.76,11.08,11.51,20.02Z"/>
  <path class="cls-1" d="M149.34,325.33s-12.62-20.79-17.03-31.37c-4.41-10.58-4.77-20.18-2.46-20.69,2.32-.51,12.44,14.3,14.82,19.8,2.11,4.88,8.02,16.75,4.67,32.26Z"/>
  <path class="cls-2" d="M125.89,303.26c4.21-7.12,5.13-11.77,3.44-12.17-1.69-.4-8.09,5.66-11.18,10.43-7.48,11.57-10.4,20.92-10.4,20.92,0,0,12.71-10.01,18.13-19.18Z"/>
  <path class="cls-2" d="M115.54,297.47c.22,13.77-7.78,24.97-7.78,24.97,0,0,0-18.36.19-26.29.2-7.93,1.86-13.07,3.58-13.15,1.42-.07,3.91,8.28,4.01,14.47Z"/>
  <path class="cls-2" d="M107.76,322.44s-20.24-14.26-24.99-19.9c-4.75-5.64-6.66-7.44-4.5-8.92,2.16-1.48,13.36,5.2,17.98,8.81,4.62,3.61,10.76,11.08,11.51,20.02Z"/>
  <path class="cls-2" d="M107.76,322.44s-12.62-20.79-17.03-31.37c-4.41-10.58-4.77-20.18-2.46-20.69,2.32-.51,12.44,14.3,14.82,19.8,2.11,4.88,8.02,16.75,4.67,32.26Z"/>
</svg>