<?xml version="1.0" encoding="UTF-8"?>
<svg id="Layer_1" data-name="Layer 1" xmlns="http://www.w3.org/2000/svg" version="1.1" viewBox="0 0 3200 2000">
  <defs>
    <style>
      .cls-1 {
        fill: #d6cdcc;
      }

      .cls-1, .cls-2, .cls-3, .cls-4, .cls-5, .cls-6, .cls-7, .cls-8, .cls-9, .cls-10, .cls-11, .cls-12, .cls-13, .cls-14, .cls-15, .cls-16, .cls-17, .cls-18, .cls-19, .cls-20, .cls-21 {
        stroke-width: 0px;
      }

      .cls-2 {
        fill: #d47d26;
      }

      .cls-3 {
        fill: #524d6e;
      }

      .cls-4 {
        fill: #ff9752;
      }

      .cls-5 {
        fill: #d96a41;
      }

      .cls-6 {
        fill: #c8826c;
      }

      .cls-7 {
        fill: #b36e59;
      }

      .cls-8 {
        fill: #ff7366;
      }

      .cls-9 {
        fill: #242136;
      }

      .cls-10 {
        fill: #b7bf6a;
      }

      .cls-11 {
        fill: #ff8457;
      }

      .cls-12 {
        fill: #b35785;
      }

      .cls-13 {
        fill: #f2a438;
      }

      .cls-14 {
        fill: #ffdfbd;
      }

      .cls-15 {
        fill: #b83e55;
      }

      .cls-16 {
        fill: #beddfa;
      }

      .cls-17 {
        fill: #6c58c4;
      }

      .cls-18 {
        fill: #ede3e2;
      }

      .cls-19 {
        fill: #ffc64d;
      }

      .cls-20 {
        fill: #fff;
      }

      .cls-21 {
        fill: #ffecca;
      }
    </style>
  </defs>
  <g>
    <path class="cls-14" d="M1087.14,773.4c-144.71,0-201.66,42.16-219.26,59.97-4.26,4.31-4.26,11.27,0,15.58,17.6,17.81,74.55,59.97,219.26,59.97,175.57,0,372.67.84,442.42-59.28,5.18-4.47,5.18-12.49,0-16.96-69.75-60.12-266.85-59.28-442.42-59.28Z"/>
    <path class="cls-8" d="M1472.19,861.77c-23.26-3.98-49.01,1.3-70.72-9.69-10.25-5.17-18.29-13.55-26.99-20.85-8.4-7.06-17.71-12.45-28.09-16.13-23.15-8.22-48.04-8.47-71.77-14.22-17.21-4.18-35.23-12.52-46.34-26.52-46.72-1.03-94.67-.97-141.14-.97-3.82,0-7.57.02-11.26.09,4.92,7.6,10.97,14.49,17.8,20.43,17.19,14.94,39.01,23.8,61.26,27.89,11.64,2.13,23.82,2.36,34.99,6.61,10.81,4.11,18.99,12.34,25.32,21.8,11.82,17.68,17.42,39.46,32.58,54.9.79.81,1.57,1.55,2.4,2.27,99.68-2.99,191.52-11.89,247.92-38.13-8.36-3.44-17.08-5.95-25.98-7.46Z"/>
    <path class="cls-9" d="M1311.14,777.68v78.02c0,.72-1.12.72-1.12,0v-78.11c.36.05.74.07,1.12.09Z"/>
    <path class="cls-9" d="M1119.21,773.41v82.29c0,.72-1.12.72-1.12,0v-82.29c.38-.02.74-.02,1.12,0Z"/>
    <path class="cls-6" d="M1436.08,818.13c0,2.8-10.83,5.07-24.2,5.07s-24.2-2.27-24.2-5.07,10.83-5.07,24.2-5.07,24.2,2.27,24.2,5.07Z"/>
    <ellipse class="cls-6" cx="1411.88" cy="864.18" rx="24.2" ry="5.07"/>
    <ellipse class="cls-6" cx="1469.5" cy="841.16" rx="24.2" ry="5.07"/>
    <path class="cls-9" d="M889.37,738.03l-80.58,61.06c-.74.56-.06,1.45.68.9l80.58-61.06c.74-.56.06-1.45-.68-.9Z"/>
    <path class="cls-9" d="M1027.02,799.98l-80.58-61.06c-.74-.56-.06-1.45.68-.9l80.58,61.06c.74.56.06,1.45-.68.9Z"/>
    <circle class="cls-15" cx="918.44" cy="763.2" r="38.26" transform="translate(-80.14 1418.07) rotate(-72.98)"/>
    <path class="cls-9" d="M944.22,763.2c-.16,10.85-6.91,20.73-17.25,24.34-10.03,3.5-21.41.38-28.26-7.73-7.07-8.38-8-20.7-2.29-30.05,5.62-9.2,16.71-14.01,27.27-11.81,11.95,2.49,20.36,13.17,20.53,25.25.01.72,1.13.72,1.12,0-.17-11.24-7.09-21.42-17.72-25.3-10.58-3.86-22.79-.5-29.95,8.18-7.2,8.74-8.14,21.45-2.22,31.13,5.76,9.42,16.92,14.4,27.79,12.48,12.79-2.27,21.92-13.65,22.11-26.48.01-.72-1.11-.72-1.12,0Z"/>
    <path class="cls-9" d="M919.26,736.39c-13.38,6.57-21.44,24.85-10.8,37.47,4.23,5.02,10.8,6.05,16.73,3.58,6.18-2.58,9.63-8.6,6.79-15.04-1.46-3.31-4.43-6.15-8.18-6.37-4.63-.27-8.12,3.18-10.31,6.86-.37.62.6,1.19.97.57,2.84-4.76,8.77-8.81,13.81-4.36,2.91,2.57,4.51,7.13,3.23,10.88-2.44,7.14-13.04,9.67-19.05,5.91-6.18-3.86-8.52-12.53-7.48-19.39,1.27-8.42,7.37-15.46,14.87-19.14.65-.32.08-1.29-.57-.97h0Z"/>
    <path class="cls-17" d="M769.66,798.47h287.63c18.89,0,34.23,15.34,34.23,34.23v68.1h-356.08v-68.11c0-18.89,15.34-34.23,34.23-34.23Z"/>
    <rect class="cls-9" x="735.44" y="853.46" width="356.08" height="1.12"/>
    <rect class="cls-9" x="735.44" y="853.46" width="356.08" height="1.12"/>
    <rect class="cls-9" x="735.44" y="853.46" width="356.08" height="1.12"/>
    <path class="cls-20" d="M882.59,820.03h58.08c2.67,0,4.84,2.17,4.84,4.84v.46c0,5.28-4.29,9.56-9.56,9.56h-48.63c-5.28,0-9.56-4.29-9.56-9.56v-.46c0-2.67,2.17-4.84,4.84-4.84Z" transform="translate(1823.25 1654.92) rotate(-180)"/>
    <path class="cls-20" d="M776.18,852.14h12.64c1.51,0,2.73,1.23,2.73,2.73v2.82c0,1.51-1.23,2.73-2.73,2.73h-12.64c-1.51,0-2.73-1.23-2.73-2.73v-2.82c0-1.51,1.23-2.73,2.73-2.73Z" transform="translate(1638.79 73.78) rotate(90)"/>
    <path class="cls-20" d="M1030.85,852.14h12.64c1.51,0,2.73,1.23,2.73,2.73v2.82c0,1.51-1.23,2.73-2.73,2.73h-12.64c-1.51,0-2.73-1.23-2.73-2.73v-2.82c0-1.51,1.23-2.73,2.73-2.73Z" transform="translate(1893.46 -180.89) rotate(90)"/>
    <path class="cls-7" d="M1095.53,832.69h207.08c12.62,0,22.87,10.25,22.87,22.87v45.23h-252.83v-45.23c0-12.62,10.25-22.87,22.87-22.87Z"/>
    <rect class="cls-9" x="1072.66" y="861.19" width="252.82" height="1.12"/>
    <rect class="cls-6" x="1126.93" y="832.69" width="11.06" height="68.11"/>
    <rect class="cls-6" x="1262.4" y="832.69" width="11.06" height="68.11"/>
    <path class="cls-20" d="M1172.4,869.51h43.09c1.31,0,2.38,1.07,2.38,2.38v1.01c0,3.92-3.18,7.1-7.1,7.1h-33.65c-3.92,0-7.1-3.18-7.1-7.1v-1.01c0-1.31,1.07-2.38,2.38-2.38Z"/>
    <path class="cls-19" d="M1738.72,1023.43c-1.03-1.75-2.11-3.55-3.28-5.35,1.17,1.8,2.25,3.57,3.28,5.35Z"/>
    <path class="cls-19" d="M1901.22,1222.9c-11.21-10.84-57.39-32.05-87.65-46.85,0-.02-.01-.04-.02-.07-.43-1.55-.88-3.08-1.35-4.61-.85-2.83-1.91-5.91-3.15-9.24h-329.05c-8.13,0-14.74-6.61-14.74-14.74v-131.84c0-8.13,6.61-14.74,14.74-14.74h242.98c-26.7-33.35-68.29-67.3-93.32-67.3h-469.69c-92.65,0-573.42,9.21-611.22,12.45-37.8,3.21-60.85,29.5-65.46,44.25-.36,1.15-.9,3.08-1.57,5.71-.13.52-.27,1.03-.4,1.6-.16.58-.31,1.21-.49,1.87-.14.63-.31,1.28-.49,1.98-.85,3.37-1.82,7.39-2.9,11.89-.38,1.62-.79,3.28-1.19,5.01-1.33,5.53-2.74,11.66-4.25,18.22-.27,1.15-.52,2.29-.79,3.48-.81,3.51-1.62,7.15-2.45,10.85-.27,1.24-.56,2.47-.83,3.73-.18.85-.38,1.69-.56,2.54-.18.81-.36,1.6-.54,2.4-1.03,4.72-2.07,9.55-3.12,14.43-.43,1.98-.85,3.98-1.26,5.95-.11.47-.2.92-.29,1.37-.4,1.98-.83,3.98-1.26,5.98-1.71,8.22-3.39,16.52-4.97,24.61-.4,2.09-.81,4.16-1.19,6.22-.22,1.19-.47,2.38-.67,3.57-.92,4.76-1.77,9.42-2.56,13.93-.4,2.27-.79,4.49-1.17,6.67-.36,2.18-.72,4.34-1.06,6.43-.34,2.11-.67,4.16-.97,6.16-.31,2-.61,3.95-.88,5.84-.14.94-.27,1.89-.38,2.79-.13.92-.25,1.82-.36,2.72-.36,2.65-.65,5.17-.88,7.53-.09.79-.16,1.55-.22,2.29-.36,3.93-.56,7.35-.56,10.13v310.21h1480.61s0-153.93,0-201.3-10.14-58.31-24.43-72.14ZM1412.58,1147.4c0,8.13-6.61,14.74-14.76,14.74h-390.86c-8.16,0-14.76-6.61-14.76-14.74v-131.84c0-8.13,6.61-14.74,14.76-14.74h390.86c8.16,0,14.76,6.61,14.76,14.74v131.84Z"/>
    <path class="cls-21" d="M1812.14,1171.38c-.85-2.83-1.91-5.91-3.15-9.24h-329.05c-8.13,0-14.74-6.61-14.74-14.74v-131.84c0-8.13,6.61-14.74,14.74-14.74h242.98c-26.7-33.35-68.29-67.3-93.32-67.3h-469.69c-92.65,0-573.42,9.21-611.22,12.45-37.8,3.21-60.85,29.5-65.46,44.25-.36,1.15-.9,3.08-1.57,5.71-.13.52-.27,1.03-.4,1.6-.16.58-.31,1.21-.49,1.87-.13.63-.31,1.28-.49,1.98-.85,3.37-1.82,7.39-2.9,11.89-.38,1.62-.79,3.28-1.19,5.01-1.33,5.53-2.74,11.66-4.25,18.22-.27,1.15-.52,2.29-.79,3.48-.81,3.51-1.62,7.15-2.45,10.85-.27,1.24-.56,2.47-.83,3.73-.18.85-.38,1.69-.56,2.54-.18.81-.36,1.6-.54,2.4-1.03,4.72-2.07,9.55-3.12,14.43-.43,1.98-.85,3.98-1.26,5.95-.11.47-.2.92-.29,1.37-.4,1.98-.83,3.98-1.26,5.98-1.71,8.22-3.39,16.52-4.97,24.61-.4,2.09-.81,4.16-1.19,6.22-.22,1.19-.47,2.38-.67,3.57-.92,4.76-1.77,9.42-2.56,13.93-.4,2.27-.79,4.49-1.17,6.67-.36,2.18-.72,4.34-1.06,6.43-.34,2.11-.67,4.16-.97,6.16-.31,2-.61,3.95-.88,5.84-.13.94-.27,1.89-.38,2.79-.14.92-.25,1.82-.36,2.72-.34,2.65-.63,5.17-.88,7.53-.09.79-.16,1.55-.22,2.29h1367.96c-.43-1.55-.88-3.08-1.35-4.61ZM1412.51,1147.4c0,8.13-6.61,14.74-14.76,14.74h-390.86c-8.16,0-14.76-6.61-14.76-14.74v-131.84c0-8.13,6.61-14.74,14.76-14.74h390.86c8.16,0,14.76,6.61,14.76,14.74v131.84Z"/>
    <path class="cls-13" d="M1925.65,1295.03v193.48l-94.02,7.82H445.03v-243.36c92.56-1.75,207.77,3.75,297.86,32.85,179.77,58.09,343.81,133.55,564.59,73.14,217.54-59.5,405.04-105.03,613.62-106.04,2.9,9.84,4.56,23.01,4.56,42.11Z"/>
    <path class="cls-18" d="M1564.44,1356.11c-85.39,7.49-100.37,85.74-100.37,85.74h-668.14s-47.94-78.99-61.25-89.53l70.85,144.02h644.61l187.91-128.74c-35.28-20.01-73.6-11.48-73.6-11.48Z"/>
    <path class="cls-9" d="M1686.73,1437.23c12.39-16.75,23.81-34.04,31.83-53.37,11.77-28.36,15.95-59.19,14.6-89.75-1.08-24.33-5.47-48.41-11.73-71.91-.19-.7-1.27-.4-1.08.3,10.08,37.82,15.44,77.71,9.46,116.68-3.89,25.33-12.81,49.47-26.1,71.35-5.49,9.04-11.66,17.63-17.94,26.13-.43.58.54,1.14.97.57h0Z"/>
    <path class="cls-9" d="M1721.42,1222.21c.25.67-.83.97-1.08.29-6.2-18.13-12.45-36.27-18.88-54.34-.72-2-1.44-4.02-2.16-6.02h1.21c7.15,19.95,14.04,40,20.9,60.07Z"/>
    <path class="cls-15" d="M459.33,1217.24v73.28c0,4.72-3.82,8.54-8.52,8.54h-5.78v-90.36h5.78c4.7,0,8.52,3.82,8.52,8.54Z"/>
    <rect class="cls-18" x="1687.76" y="1447.71" width="238.52" height="48.63"/>
    <rect class="cls-9" x="798.59" y="1480.9" width="653.45" height="15.44"/>
    <path class="cls-20" d="M1738.72,1023.43c-1.03-1.75-2.11-3.55-3.28-5.35,1.17,1.8,2.25,3.57,3.28,5.35Z"/>
    <path class="cls-2" d="M1702.09,1477.73c0,6.31-.45,12.54-1.35,18.61h-250.62c-.9-6.07-1.35-12.29-1.35-18.61,0-69.95,56.69-126.67,126.65-126.67s126.67,56.72,126.67,126.67Z"/>
    <circle class="cls-9" cx="1575.43" cy="1467.59" r="103.71" transform="translate(-576.31 1543.84) rotate(-45)"/>
    <circle class="cls-18" cx="1575.43" cy="1467.59" r="73.29" transform="translate(-357.69 519.51) rotate(-16.85)"/>
    <rect class="cls-18" x="445.04" y="1447.71" width="143.82" height="48.63" transform="translate(1033.9 2944.05) rotate(180)"/>
    <path class="cls-18" d="M418.77,1424.2h12.91c7.38,0,13.37,5.99,13.37,13.37v34.46c0,13.42-10.9,24.31-24.31,24.31h-1.96v-72.14h0Z" transform="translate(863.81 2920.54) rotate(180)"/>
    <path class="cls-18" d="M1925.65,1337.23v83.12c-13.82-8.94-22.9-24.22-22.9-41.57s9.08-32.61,22.9-41.55Z"/>
    <path class="cls-4" d="M1925.65,1346.33v64.92c-7.75-8.74-12.38-20.09-12.38-32.47s4.63-23.73,12.38-32.45Z"/>
    <path class="cls-18" d="M1925.65,1295.03v28.31c-10-6.79-16.49-18.02-16.49-30.74,0-11.1,6.34-21.42,14.45-28.31.52,3.19.94,6.65,1.26,10.43.52,5.93.79,12.63.79,20.31Z"/>
    <path class="cls-20" d="M1925.65,1295.03v20.31c-4.99-6.31-7.95-14.2-7.95-22.74,0-6.49,3.48-12.58,7.17-17.89.52,5.93.79,12.63.79,20.31Z"/>
    <rect class="cls-13" x="1487.01" y="1211.7" width="66.15" height="21.43" rx="9.8" ry="9.8"/>
    <rect class="cls-13" x="1344.35" y="1211.7" width="66.15" height="21.43" rx="9.8" ry="9.8"/>
    <path class="cls-9" d="M1440.13,987.91v501.28c0,.72,1.12.72,1.12,0v-501.28c0-.72-1.12-.72-1.12,0h0Z"/>
    <path class="cls-9" d="M972.03,987.22v506.81c0,.72,1.12.72,1.12,0v-506.81c0-.72-1.12-.72-1.12,0h0Z"/>
    <path class="cls-1" d="M1571.81,908.92v78.54c0,.11,0,.22-.02.34h-6.7c-.02-.11-.02-.22-.02-.34v-78.54c0-4.34,6.74-4.34,6.74,0Z"/>
    <path class="cls-1" d="M1265.68,908.92v78.54c0,.11,0,.22-.02.34h-6.7c-.02-.11-.02-.22-.02-.34v-78.54c0-4.34,6.74-4.34,6.74,0Z"/>
    <path class="cls-1" d="M921.81,908.92v78.54c0,.11,0,.22-.02.34h-6.7c-.02-.11-.02-.22-.02-.34v-78.54c0-4.34,6.74-4.34,6.74,0Z"/>
    <path class="cls-18" d="M552.13,908.92v78.54c0,.11,0,.22-.02.34h-6.7c-.02-.11-.02-.22-.02-.34v-78.54c0-4.34,6.74-4.34,6.74,0Z"/>
    <rect class="cls-1" x="538.38" y="897.08" width="1045.86" height="16.85" rx="5.23" ry="5.23"/>
    <path class="cls-2" d="M808.78,1467.59c0,9.89-1.12,19.51-3.26,28.74h-246.8c-2.13-9.24-3.26-18.85-3.26-28.74,0-69.95,56.69-126.67,126.65-126.67s126.67,56.72,126.67,126.67Z"/>
    <circle class="cls-9" cx="682.11" cy="1467.59" r="103.71" transform="translate(-874.31 1911.05) rotate(-80.98)"/>
    <path class="cls-16" d="M1411.47,1010.04h-418.19c2.16-5.39,7.46-9.21,13.66-9.21h390.86c6.2,0,11.5,3.82,13.66,9.21Z"/>
    <path class="cls-16" d="M1028.21,1162.14h-21.26c-8.16,0-14.76-6.61-14.76-14.74v-131.84c0-8.13,6.61-14.74,14.76-14.74h21.26c-8.13,0-14.74,6.61-14.74,14.74v131.84c0,8.13,6.61,14.74,14.74,14.74Z"/>
    <path class="cls-3" d="M1136.22,1095.55h15.9v66.61h-29.39v-53.12c0-7.44,6.04-13.48,13.48-13.48Z"/>
    <path class="cls-3" d="M1013.47,1095.54v66.6h-6.52c-8.16,0-14.76-6.61-14.76-14.74v-50.74c1.64-.72,3.46-1.12,5.37-1.12h15.91Z"/>
    <path class="cls-16" d="M1501.29,1162.14h-21.26c-8.16,0-14.76-6.61-14.76-14.74v-131.84c0-8.13,6.61-14.74,14.76-14.74h21.26c-8.13,0-14.74,6.61-14.74,14.74v131.84c0,8.13,6.61,14.74,14.74,14.74Z"/>
    <path class="cls-16" d="M1729.96,1010.04h-263.61c2.18-5.39,7.48-9.21,13.66-9.21h242.98c2.47,3.08,4.81,6.16,6.97,9.21Z"/>
    <path class="cls-9" d="M1711.82,987.79H484.2c.13-.36.29-.74.47-1.12h1226.12c.34.36.67.74,1.03,1.12Z"/>
    <polygon class="cls-16" points="1724.03 1162.14 1708.54 1162.14 1645.96 1000.82 1655.15 1000.82 1724.03 1162.14"/>
    <polygon class="cls-20" points="1637.16 998.52 1702.09 1165.84 1717.72 1165.84 1646.27 998.52 1637.16 998.52"/>
    <path class="cls-19" d="M1574.36,1218.2h-92.31c-.93,0-1.67.74-1.67,1.69s.73,1.68,1.67,1.68h92.31c.93,0,1.67-.74,1.67-1.69s-.73-1.69-1.67-1.69Z"/>
    <path class="cls-19" d="M1419.95,1218.2h-92.31c-.94,0-1.67.74-1.67,1.69s.73,1.68,1.67,1.68h92.31c.93,0,1.67-.74,1.67-1.69s-.73-1.68-1.67-1.68Z"/>
    <path class="cls-1" d="M1569.3,1521.07c-1.35,4.7-6.25,7.41-10.95,6.07-4.7-1.35-7.41-6.25-6.07-10.95,1.35-4.7,6.25-7.41,10.95-6.07,4.7,1.35,7.41,6.25,6.07,10.95Z"/>
    <path class="cls-1" d="M1634.98,1484.67c-1.35,4.7-6.25,7.41-10.95,6.07-4.7-1.35-7.41-6.25-6.07-10.95,1.35-4.7,6.25-7.41,10.95-6.07,4.7,1.35,7.41,6.25,6.07,10.95Z"/>
    <path class="cls-1" d="M1598.58,1419c-1.35,4.7-6.25,7.41-10.95,6.07-4.7-1.35-7.41-6.25-6.07-10.95,1.35-4.7,6.25-7.41,10.95-6.07,4.7,1.35,7.41,6.25,6.07,10.95Z"/>
    <path class="cls-1" d="M1532.91,1455.39c-1.35,4.7-6.25,7.41-10.95,6.07-4.7-1.35-7.41-6.25-6.07-10.95,1.35-4.7,6.25-7.41,10.95-6.07,4.7,1.35,7.41,6.25,6.07,10.95Z"/>
    <circle class="cls-1" cx="1575.44" cy="1467.59" r="29.86" transform="translate(-576.31 1543.85) rotate(-45)"/>
    <path class="cls-18" d="M1928.14,1424.21h-2.49v72.13h13.44c7.38,0,13.37-5.98,13.37-13.36v-34.46c0-13.43-10.89-24.31-24.31-24.31Z"/>
    <path class="cls-7" d="M1386.68,1162.16h-10.52s11.86,7.6,16.58,11.17c4.72,3.57,5.19,20.4,5.19,25.82s-2.54,15.21-13.37,12.56c-10.83-2.65-12.79-23.06-12.79-23.06,0,0-18.34-1.48-27.59-8.18-9.26-6.67-16.31-18.31-16.31-18.31h-48.99c5.3-15.57,19.15-32.38,31.46-45.98,12.34-13.62,16.94-27.66,16.94-27.66-18.31-14.4-1.73-23.17-1.73-23.17-1.03-2.16-3.28-11.24,6.49-13.39,9.75-2.16,24.72,5.44,24.72,5.44,0,0,13.73-.94,20.31.43,6.56,1.39,14.13,14.27,14.13,14.27,0,0,7.3-.11,12.4.61,2.16.31,3.91.76,4.56,1.46,1.44,1.55,1.57,4.18.36,8.36-.68,2.33-1.63,5.28-3.8,6.63-1.05.65-2.27,1-3.49,1.21-6.3,1.1-12.78-.41-19,1.55,1.55,4.61,5.95,9.6,3.89,9.66-5.44.16-11.82,8.99-12.94,14.67-1.12,5.71,1.98,32.67,1.98,32.67,11.15-6.83,17.19-6.9,20.74-6.29,3.55.58,11.15,7.86,13.19,14.27,2.02,6.43-4.11,10.52-11.73,10.36-7.6-.18-10.7-5.1-10.7-5.1Z"/>
    <path class="cls-14" d="M1401.61,1096.53c-2.71-.92-19.35-4.61-19.35-4.61-2.22.49-3.36,1.23-6.07,3.27-12.66,9.56-10.88,30.33-11.1,38.1-.22,7.77-.63,16.31.81,19.59,1.39,3.15,9.73,8.88,10.27,9.26h2.11l-3.1-13.21s-3.12-26.97-2-32.67c.99-5.03,6.09-12.47,11.01-14.28,3.99-.32,5.17.84,10.26.73,5.1-.12,9.87-5.26,7.16-6.18Z"/>
    <path class="cls-8" d="M1382.09,1091.96c.33-.12.94.17,1.19.35.46.33.7.88.68,1.44-.03.99-.67,1.77-1.44,2.33-.57.41-1.2.73-1.85,1-1.69.7-3.5,1.58-4.44,3.22-.96,1.65-1.07,4.18.91,5.12,1.62.77,3.35-.41,4.81-1.06,4.29-1.91,9.2-4.45,10.86-9.19.62-1.75.12-3.61-1.83-4.11-2.69-.68-6.3-.02-8.88.9Z"/>
    <path class="cls-9" d="M1362.17,1076.75c-5.26,5.42-10.79,11.03-18.07,13.57-4.92,1.73-12.54,2.45-17.21-.7.22-.58.36-.97.38-1.08,5.03,3.69,13.95,2.04,19.03-.36,5.93-2.79,10.56-7.62,15.06-12.25.52-.52,1.3.27.81.81Z"/>
    <path class="cls-9" d="M1349.43,1059.32c-8.11,1.48-16.07,3.46-23.89,6-.11-.25-.25-.61-.38-1.03,7.86-2.56,15.84-4.58,23.95-6.04.72-.13,1.01.94.31,1.08Z"/>
    <path class="cls-9" d="M1383.43,1157.49c1.06,1.6,3.24,4.66,3.24,4.66h-1.37c-.99-1.35-1.91-2.73-2.83-4.1-.4-.61.56-1.17.97-.56Z"/>
    <path class="cls-9" d="M1378.28,1162.15h-2.11c-2.97-1.89-5.8-3.93-8.56-6.11-.56-.45.22-1.24.79-.79,3.17,2.49,6.47,4.81,9.89,6.9Z"/>
    <path class="cls-9" d="M1368.4,1155.24c-2.72-2.3-3.14-5.62-2.74-8.98.08-.72-1.04-.71-1.12,0-.43,3.66.13,7.29,3.07,9.77.55.46,1.35-.33.79-.79h0Z"/>
    <path class="cls-9" d="M1327.66,1162.14h-1.26c-4.43-7.69-3.62-18.13-1.42-26.31.2-.7,1.28-.4,1.1.29-2.18,8.02-3.06,18.56,1.57,26.02Z"/>
    <path class="cls-9" d="M1376.73,1078.14c2.05.07,4.05-.53,5.69-1.77,1.14-.86.02-2.81-1.13-1.94-1.36,1.02-2.85,1.52-4.56,1.46-1.45-.05-1.44,2.2,0,2.25h0Z"/>
    <path class="cls-9" d="M1408.55,1082.52c-3.3-.85-5.71-3.57-5.71-6.79,0-1.08.29-2.11.79-3.03,2.16.31,3.91.76,4.56,1.46,1.44,1.55,1.57,4.18.36,8.36Z"/>
    <path class="cls-9" d="M1545.32,1018.34s13.94,11.06,16.59,23.39c2.14,9.95-4.96,18.09-4.96,18.09,0,0,10.14,7.02,8.41,21.66-1.73,14.64-21.2,33.77-21.2,33.77,0,0-29.96-30.54-28.35-41.37,1.61-10.83,29.5-55.54,29.5-55.54Z"/>
    <path class="cls-5" d="M1531.44,1070.71s11.58,2.42,15.9-6.74c4.32-9.16-1.15-37.55-2.88-44.29l-39.64,14.91,9.16,35.44,17.63,9.16-.17-8.47Z"/>
    <path class="cls-20" d="M1548.95,1054.93c-.07,2-.25,3.84-.54,5.46-1.06-.07-2.19-.13-3.21-.36-2.84-.63-3.91-2.71-4.31-4.01-.17-.55.25-1.09.82-1.09h7.24Z"/>
    <path class="cls-9" d="M1531.47,1071.85c-2.88-.74-5.6-1.91-8.18-3.51-.63-.38-.04-1.35.56-.97,2.4,1.48,4.92,2.58,7.6,3.33l.02,1.15Z"/>
    <path class="cls-9" d="M1541.15,1036.22c.37,0,.7.19.92.47.25.32.3.7.34,1.1.03.35.03.71-.01,1.06-.04.32-.12.68-.37.9-.24.21-.57.28-.88.28-.26,0-.52-.08-.72-.24-.47-.36-.53-1.02-.55-1.57-.02-.46.04-1.01.27-1.41.2-.36.6-.58,1.01-.58Z"/>
    <path class="cls-9" d="M1536.65,1036.7c1.84-1.12,4.17-1.9,6.34-1.9.72,0,.72-1.13,0-1.12-2.37,0-4.9.83-6.91,2.06-.62.38-.05,1.35.57.97h0Z"/>
    <path class="cls-5" d="M1690.05,1136.73c-.79,1.15-1.64,1.84-2.18,2.18-3.53,2.25-14.97,6.2-14.97,6.2l-18.99,16.81h-2.65l-14.65-29.84s16.36-12.63,22-16.76c4.97-3.66,15.48-5.66,25.24-.9l6.2,22.31Z"/>
    <path class="cls-3" d="M1682.19,1134.35v27.57h-13.15v-27.57c0-3.62,2.94-6.56,6.56-6.56,1.82,0,3.46.74,4.65,1.93,1.19,1.17,1.93,2.83,1.93,4.63Z"/>
    <path class="cls-10" d="M1515.58,1070.85s18.39,1.78,28.59,16.16c8.03,11.32,45.86,75.13,45.86,75.13h-110.02v-70.29s8.6-22.42,35.57-21Z"/>
    <polygon class="cls-10" points="1651.4 1161.92 1599.92 1161.92 1636.61 1132.06 1651.4 1161.92"/>
    <path class="cls-9" d="M1549.74,1162.14h-1.37c-3.44-4.9-6.88-9.77-10.34-14.67-.2-.31-.43-.61-.65-.92-5.15-7.3-10.29-14.61-15.44-21.91-.2-.31-.43-.63-.65-.94-5.19-7.35-10.36-14.72-15.55-22.07-.22-.31-.43-.61-.65-.92-2.25-3.19-4.52-6.4-6.76-9.6-.43-.61.54-1.17.97-.58,2.25,3.19,4.52,6.4,6.76,9.6.22.31.43.61.65.92,5.17,7.35,10.36,14.72,15.55,22.07.2.31.43.63.65.94,5.15,7.3,10.29,14.61,15.44,21.91.2.31.43.61.65.92,3.57,5.08,7.17,10.18,10.74,15.26Z"/>
    <path class="cls-9" d="M1578.77,1162.14h-1.37c-1.1-1.55-2.22-3.1-3.33-4.65-.22-.29-.43-.61-.65-.9-1.75-2.45-3.48-4.92-5.24-7.37-3.28-4.63-6.54-9.26-9.8-13.89-.22-.31-.45-.63-.65-.94-5.17-7.3-10.29-14.63-15.42-21.93-.22-.31-.45-.63-.65-.92-5.19-7.39-10.36-14.76-15.53-22.13-.22-.31-.45-.61-.65-.92-4.18-5.91-8.34-11.82-12.52-17.71.45,0,.9,0,1.37.02,4,5.64,8,11.33,12,17.01.02.04.07.09.09.13.22.29.43.61.65.9,5.17,7.37,10.36,14.76,15.53,22.16.22.29.43.61.65.92,5.12,7.3,10.27,14.63,15.42,21.93.2.31.43.63.65.92,4.99,7.1,10,14.18,15.06,21.24.2.31.43.63.65.92,1.24,1.75,2.49,3.48,3.73,5.21Z"/>
    <path class="cls-9" d="M1497.76,1162.14h-1.15c-3.15-17.59-5.8-35.26-8-52.99-.09-.72,1.03-.72,1.12,0,2.2,17.73,4.85,35.41,8.02,52.99Z"/>
    <path class="cls-9" d="M1528.66,1162.14h-1.37c-3.26-4.88-6.49-9.77-9.75-14.65-.25-.38-.49-.74-.74-1.12-3.44-5.19-6.9-10.38-10.34-15.57-.25-.38-.49-.74-.74-1.12-.88-1.3-1.73-2.61-2.61-3.91-.4-.61.56-1.17.97-.56,1.42,2.13,2.83,4.25,4.25,6.38.2.31.4.63.63.94,4.92,7.44,9.86,14.85,14.83,22.29.2.31.4.61.61.92,1.42,2.13,2.83,4.27,4.27,6.4Z"/>
    <path class="cls-9" d="M1569.94,1128.55c-3.55,2.07-7.08,4.13-10.61,6.22-.31.18-.63.36-.94.56-6.49,3.82-12.94,7.66-19.39,11.55-.31.18-.65.38-.97.58-4.56,2.74-9.1,5.51-13.64,8.27-.13.09-.29.18-.43.27-.61.38-1.17-.61-.56-.97.13-.07.25-.16.38-.22,4.52-2.79,9.06-5.55,13.59-8.27.34-.2.65-.4.97-.58,6.45-3.91,12.92-7.75,19.39-11.57.31-.18.63-.38.94-.54,3.55-2.11,7.12-4.2,10.67-6.27.2.34.38.65.58.97Z"/>
    <path class="cls-9" d="M1583.85,1151.78c-2.94,1.71-5.89,3.42-8.81,5.15-.34.18-.65.38-.97.56-2.63,1.55-5.26,3.1-7.89,4.65h-2.2c3.15-1.87,6.29-3.71,9.44-5.55.31-.2.63-.4.97-.58,2.97-1.73,5.93-3.48,8.9-5.19.2.34.38.65.56.97Z"/>
    <path class="cls-9" d="M1625.42,1161.92h-1.28c-.54-1.01-1.1-2.02-1.64-3.01-.16-.31-.36-.63-.56-.97-1.71-3.21-3.51-6.4-5.3-9.62l.88-.72c2.67,4.76,5.3,9.53,7.91,14.31Z"/>
    <path class="cls-9" d="M1555.47,1104.75c-4.07,2.36-8.16,4.74-12.2,7.17-.31.16-.63.34-.94.54-6.49,3.82-12.97,7.69-19.42,11.6-.31.18-.63.36-.97.58-4.34,2.61-8.67,5.24-12.99,7.89-.67.43-1.26-.56-.63-.94,4.31-2.65,8.63-5.26,12.97-7.89.34-.2.65-.38.97-.58,6.45-3.89,12.92-7.75,19.42-11.57.31-.2.63-.38.94-.54,4.07-2.43,8.16-4.83,12.25-7.19.2.31.4.63.61.94Z"/>
    <path class="cls-9" d="M1539.38,1081.63c-4.11,2.38-8.2,4.79-12.29,7.21-.31.18-.63.36-.94.56-6.49,3.84-12.99,7.71-19.44,11.64-.31.16-.65.36-.97.58-3.91,2.34-7.82,4.72-11.71,7.1-.61.38-1.17-.58-.56-.97,3.86-2.36,7.73-4.72,11.62-7.06.31-.22.65-.4.97-.58,6.47-3.93,12.94-7.8,19.44-11.64.31-.18.63-.38.94-.54,4-2.4,8.04-4.76,12.07-7.1.29.25.58.49.88.79Z"/>
    <path class="cls-9" d="M1517.67,1147.49h-37.66v-1.12h37.66c.72,0,.72,1.12,0,1.12Z"/>
    <path class="cls-9" d="M1506.53,1130.8h-26.52v-1.12h26.52c.72,0,.72,1.12,0,1.12Z"/>
    <path class="cls-9" d="M1622.84,1158.68c-.13.07-.22.16-.34.22-1.44.99-2.85,2-4.29,3.01h-1.95c1.89-1.33,3.8-2.65,5.69-3.98.04-.04.11-.09.16-.13.61-.4,1.33.45.74.88Z"/>
    <path class="cls-9" d="M1514.05,1035.59s29.68,3.86,28.71-14.84l-34.72,3.05,6.01,11.78Z"/>
    <path class="cls-9" d="M1513.21,1031.43s6.82,18.54,5.35,31.33c-1.47,12.79-12.19,13.19-14.26,17s3.57,15.56.52,28c-3.05,12.45-15.69,25.3-39.55,24.26v-51.8s3.48-6.57,10.28-7.95c0,0-3.66-22.64,15.44-32.58l22.22-8.25Z"/>
    <path class="cls-3" d="M1479.97,1110.24v51.91c-8.11-.02-14.7-6.63-14.7-14.74v-51.86c8.12,0,14.7,6.58,14.7,14.7Z"/>
    <path class="cls-5" d="M1547.64,1036.79s2.91,5.74,4.83,9.06c1.34,2.32-1.57,3.84-3.58,3.84s-1.25-12.9-1.25-12.9Z"/>
    <path class="cls-12" d="M1572.77,1013.34l-81.77,26.34s-2.49-10.97-2.49-17.42c0-5.82.99-14.97,10.18-21.44h37.55c6.88,6.7,9.33,15.91,9.33,15.91l25.64-8.27c.27-.09.54-.13.81-.13,1.08,0,2.09.72,2.43,1.84.4,1.33-.34,2.74-1.66,3.17Z"/>
    <path class="cls-9" d="M1499.38,1032.22l-9.21,3.39c-.74-3.78-1.66-9.42-1.66-13.35,0-.29,0-.61.02-.92,7.24,1.53,10.85,10.88,10.85,10.88Z"/>
    <path class="cls-5" d="M1526.11,1041.23c0,4.06-3.29,7.34-7.35,7.34s-7.34-3.29-7.34-7.34,3.29-7.35,7.34-7.35,7.35,3.29,7.35,7.35Z"/>
    <path class="cls-11" d="M1060.41,1069.85s14.85,1.67,19.17-7.49c4.32-9.16-1.62-38.84-3.35-45.58l-44.68,16.42-8.12,34.74,37.16,10.37-.17-8.47Z"/>
    <path class="cls-11" d="M1079.05,1031.75s3.19,4.98,5.1,8.3c1.34,2.32-1.57,3.84-3.58,3.84s-1.52-12.14-1.52-12.14Z"/>
    <path class="cls-9" d="M1076.22,1016.78s10.73-4.27,6.62-13c-3.92-8.32-13.96-4.02-13.96-4.02,0,0-5.62-14.69-15.56-14.26-9.94.43-11.67,6.91-11.67,6.91,0,0-14.87-1.9-19.36,7.61-4.49,9.51-1.56,14.95-1.56,14.95,0,0-7.61,1.81-7.26,10.63.35,8.82,15.39,19.06,15.39,19.06l-2.79,11.94s12.52-4.84,18.43-15.09c3.89-6.74,6.31-10.54,6.31-10.54,0,0,22.31,8.86,25.41-14.17Z"/>
    <path class="cls-11" d="M1054.22,1037.31c0,4.06-3.29,7.34-7.35,7.34s-7.34-3.29-7.34-7.34,3.29-7.35,7.34-7.35,7.35,3.29,7.35,7.35Z"/>
    <path class="cls-15" d="M1095.51,1162.26h-88.56c-8.16,0-14.76-6.61-14.76-14.74v-9.93c9.57-49.41,22.59-64.74,31.9-72.49l36.5,13.35s26.79,56.69,34.92,83.82Z"/>
    <path class="cls-9" d="M1053.15,1126.3c1.38,9.31,2.63,18.63,3.77,27.97.09.71,1.21.72,1.12,0-1.14-9.44-2.41-18.86-3.81-28.27-.11-.71-1.19-.41-1.08.3h0Z"/>
    <path class="cls-9" d="M1003.77,1118.36c-.21,6.95-.42,13.91-.63,20.86-.02.72,1.1.72,1.12,0,.21-6.95.42-13.91.63-20.86.02-.72-1.1-.72-1.12,0h0Z"/>
    <path class="cls-9" d="M1004.18,1129.06c16.96,3.48,33.92,6.96,50.88,10.44.71.14,1.01-.94.3-1.08-16.96-3.48-33.92-6.96-50.88-10.44-.71-.14-1.01.94-.3,1.08h0Z"/>
    <path class="cls-14" d="M1024.08,1065.09l36.5,13.23,4.17,8.97s-6.67,13.25-9.35,14.11c-2.68.86-26.16-19.03-35.46-32.49l4.15-3.82Z"/>
    <path class="cls-11" d="M1003.19,1135.71s-4.67,78.07,18.9,86.37c23.57,8.3,35.55-2.3,45.23-13.37s28.18-46.56,28.18-46.56h17.46s-3.46-19.71-21.78-20.74c-18.32-1.04-33.29,11.75-33.29,11.75l-.59-4.96-54.1-12.5Z"/>
    <path class="cls-9" d="M1057.89,1153.09c-4.25,3.3-8.09,7.12-11.51,11.35-.45.56-1.24-.25-.79-.79,3.57-4.45,7.62-8.4,12.13-11.86l.16,1.3Z"/>
    <path class="cls-9" d="M1060.43,1070.98c-3.03-.38-5.95-1.26-8.56-3.15-.58-.43-.02-1.39.58-.97,2.45,1.75,5.15,2.63,7.95,2.99l.02,1.12Z"/>
    <path class="cls-9" d="M1065.89,1052.38c2.67,2.37,5.93,3.66,9.5,3.77.72.02.72-1.1,0-1.12-3.27-.1-6.25-1.27-8.7-3.44-.54-.48-1.34.31-.79.79h0Z"/>
    <path class="cls-9" d="M1067.69,1030.91c2.41-1.53,5.07-2.17,7.91-1.9.72.07.72-1.06,0-1.12-3.02-.28-5.92.43-8.48,2.06-.61.39-.05,1.36.57.97h0Z"/>
    <path class="cls-9" d="M1072.78,1033.82c.37,0,.7.19.92.47.25.32.3.7.34,1.1.03.35.03.71-.01,1.06-.04.32-.12.68-.37.9-.24.21-.57.28-.88.28-.26,0-.52-.08-.72-.24-.47-.37-.53-1.02-.55-1.57-.02-.46.04-1.01.27-1.41.2-.36.6-.58,1.01-.58Z"/>
    <path class="cls-7" d="M1246.4,1050.14s35.26-12.22,55.77-36.88c20.51-24.66,11.19-37.21-4.61-40.56-16.3-3.46-62.46-1.15-101.18,17.52-38.72,18.67-64.07,47.48-58.08,63.84,5.99,16.36,32.73,16.82,49.32,15.67,16.59-1.15,58.77-19.59,58.77-19.59Z"/>
    <path class="cls-9" d="M1263.69,1023.35s8.64,32.5,12.79,45.98,11.24,44.6-7.86,58.25c-19.1,13.66-36.9-24.37-36.9-24.37l6.05-50.99,25.93-28.87Z"/>
    <path class="cls-14" d="M1253.14,1086.01s16.08,7.52,17.29,24.11c1.21,16.59,0,52.03,0,52.03h-105.1s21.61-66.03,31.29-72.43c9.68-6.4,56.52-3.72,56.52-3.72Z"/>
    <path class="cls-9" d="M1258.31,1135.88c.45,7.83.58,15.67.4,23.51-.02.72,1.11.72,1.12,0,.18-7.84.05-15.68-.4-23.51-.04-.72-1.17-.72-1.12,0h0Z"/>
    <path class="cls-11" d="M1265.41,1164.23s-5.13.57-9.98.78c-4.97.22-4.98-5.2-3.54-6.01,2.25-1.25,3.8-2.16,9.95-4.28,0,0,4.09-5.01,13.25-5.36,9.16-.35,19.82,5.65,22.82,15.38,2.78,9.04-.69,14.17-11.75,13.48-11.06-.69-20.74-14-20.74-14Z"/>
    <path class="cls-11" d="M1214.77,1153.34s5.99,1.28,12.01,3.37c5.36,1.86,2.64,7.11-.55,7.11-2.59,0-5.85,0-5.85,0,0,0,4.58,18.04-5.62,20.98-10.2,2.94-20.22-4.55-24.14-11.58-3.92-7.03-12.28-11.06-12.28-11.06,0,0,1.65-4.29,6.86-8.18,6.7-5,18.21-8.07,29.56-.63Z"/>
    <path class="cls-11" d="M1246.23,1083.26v-7.88s11.02-1.03,16.08-13.83c3.46-8.76,1.38-38.2,1.38-38.2,0,0-5.53-9.68-18.5-8.3s-21.43,7.61-21.43,7.61c0,0-5.07,27.09-5.36,43.04-.15,8.3-2.07,19.36-2.07,19.36,0,0,12.45,42.52,17.46,42.52s19.36-41.57,19.36-41.57c0,0-3.98-2.14-6.91-2.75Z"/>
    <path class="cls-19" d="M1252.09,1085.47c-2.18,6.29-6.54,11.98-13.62,12.63-7.73.74-15.19-3.69-19.59-9.8-.4-.61.56-1.15.99-.58,3.95,5.55,10.63,9.6,17.59,9.33,7.17-.27,11.48-5.8,13.6-12.04.38.16.74.34,1.03.47Z"/>
    <path class="cls-9" d="M1225.28,1021.66s-4.12,13.27-.78,27.1c1.59,6.59,5.86,27.28.12,37.57-7.72,13.83-26.04,19.01-26.04,19.01,0,0-.06,23.62-6.63,33.3-6.57,9.68-18.5,23.5-18.5,23.5h-67.41s7.66-31.28,32.27-40.09c0,0-2.19-24.72,10.6-39.58,12.79-14.87,29.13-11.04,36.13-14.52,14.03-6.97,13.59-25.41,20.28-32.67,8.85-9.59,19.97-13.61,19.97-13.61Z"/>
    <path class="cls-9" d="M1236.91,1035.68c.37,0,.7.19.92.47.25.32.3.7.34,1.1.03.35.03.71-.01,1.06-.04.32-.12.68-.37.9-.24.21-.57.28-.88.28-.26,0-.52-.08-.72-.24-.47-.36-.53-1.02-.55-1.57-.02-.46.04-1.01.27-1.41.2-.36.6-.58,1.01-.58Z"/>
    <path class="cls-9" d="M1254.12,1035.68c.37,0,.7.19.92.47.25.32.3.7.34,1.1.03.35.03.71-.01,1.06-.04.32-.12.68-.37.9-.24.21-.57.28-.88.28-.26,0-.52-.08-.72-.24-.47-.36-.53-1.02-.55-1.57-.02-.46.04-1.01.27-1.41.2-.36.6-.58,1.01-.58Z"/>
    <path class="cls-9" d="M1230.74,1033.48c2.14-3,5.98-3.49,8.79-1.16.56.46,1.22-.45.66-.91-3.29-2.72-7.9-2.06-10.36,1.41-.42.59.49,1.25.91.66h0Z"/>
    <path class="cls-9" d="M1248.73,1031.72c2.57-2.64,6.44-2.53,8.87.2.48.54,1.27-.26.79-.79-2.84-3.2-7.49-3.25-10.46-.2-.51.52.29,1.31.79.79h0Z"/>
    <path class="cls-9" d="M1247.77,1031.33c-.38,7.07.84,14.49,4.45,20.66.36.62,1.34.06.97-.57-3.51-6-4.67-13.22-4.29-20.09.04-.72-1.08-.72-1.12,0h0Z"/>
    <path class="cls-9" d="M1248.34,1053.13c1.6.16,3.15-.06,4.65-.64.67-.26.38-1.35-.3-1.08-1.41.55-2.84.75-4.35.6-.72-.07-.71,1.05,0,1.12h0Z"/>
    <path class="cls-9" d="M1234.63,1055.96c4,2.55,8.27,4.61,12.65,6.41.67.28.96-.81.3-1.08-4.29-1.77-8.47-3.8-12.38-6.3-.61-.39-1.18.58-.57.97h0Z"/>
    <path class="cls-9" d="M1234.37,1055.32c-.67,3.09.01,6.85,3.14,8.32,3.22,1.51,7.37.59,10.2-1.33.6-.4.03-1.38-.57-.97-1.96,1.33-4.31,2.04-6.69,1.87-4.13-.29-5.82-3.83-5-7.59.15-.7-.93-1.01-1.08-.3h0Z"/>
    <path class="cls-9" d="M1246.23,1075.38v1.12c-3.71.02-7.3-.92-10.61-2.85-.63-.36-.07-1.33.56-.97,3.15,1.82,6.54,2.74,10.04,2.7Z"/>
    <path class="cls-9" d="M1291.39,1178.05c-.36.07-.76.11-1.17.13-2.43-6.65-6.16-12.67-11.06-17.86-.49-.54.31-1.33.81-.81,5.06,5.39,8.92,11.64,11.42,18.54Z"/>
    <path class="cls-9" d="M1297.68,1174.5c-.22.38-.49.72-.81,1.03-2-5.89-5.37-11.12-9.26-16.04-.45-.56.34-1.35.79-.79,3.86,4.85,7.21,10.02,9.28,15.8Z"/>
    <path class="cls-9" d="M1216.45,1184.1c-.34.18-.67.36-1.06.47-1.55-8.47-4.72-16.58-9.35-23.95-.38-.63.58-1.19.97-.58,4.65,7.42,7.84,15.57,9.44,24.07Z"/>
    <path class="cls-9" d="M1207.73,1185.27c-.38-.04-.79-.11-1.17-.2-1.53-7.93-4.79-15.42-9.64-22-.43-.58.54-1.15.97-.56,4.99,6.81,8.34,14.56,9.84,22.76Z"/>
    <path class="cls-9" d="M1263.68,1023.34s-5.26-9.17-17.53-8.38c4.02,6.74,12.06,14.84,19.5,15.73-.93-3.47-1.97-7.35-1.97-7.35Z"/>
  </g>
  <circle class="cls-18" cx="680.51" cy="1466.6" r="73.29" transform="translate(-395.8 260.13) rotate(-16.85)"/>
  <path class="cls-1" d="M674.38,1520.07c-1.35,4.7-6.25,7.41-10.95,6.07-4.7-1.35-7.41-6.25-6.07-10.95,1.35-4.7,6.25-7.41,10.95-6.07,4.7,1.35,7.41,6.25,6.07,10.95Z"/>
  <path class="cls-1" d="M740.06,1483.68c-1.35,4.7-6.25,7.41-10.95,6.07-4.7-1.35-7.41-6.25-6.07-10.95,1.35-4.7,6.25-7.41,10.95-6.07,4.7,1.35,7.41,6.25,6.07,10.95Z"/>
  <path class="cls-1" d="M703.67,1418c-1.35,4.7-6.25,7.41-10.95,6.07-4.7-1.35-7.41-6.25-6.07-10.95,1.35-4.7,6.25-7.41,10.95-6.07,4.7,1.35,7.41,6.25,6.07,10.95Z"/>
  <path class="cls-1" d="M637.99,1454.4c-1.35,4.7-6.25,7.41-10.95,6.07-4.7-1.35-7.41-6.25-6.07-10.95,1.35-4.7,6.25-7.41,10.95-6.07,4.7,1.35,7.41,6.25,6.07,10.95Z"/>
  <circle class="cls-1" cx="680.52" cy="1466.6" r="29.86" transform="translate(-837.72 910.75) rotate(-45)"/>
</svg>