<?xml version="1.0" encoding="UTF-8"?>
<svg id="Layer_1" data-name="Layer 1" xmlns="http://www.w3.org/2000/svg" version="1.1" viewBox="0 0 841.89 595.28">
  <defs>
    <style>
      .cls-1 {
        fill: #fdfeff;
        stroke-width: 0px;
      }
    </style>
  </defs>
  <path class="cls-1" d="M611.96,345.96h208.1s-14.32-19.33-50.24-12.06c0,0-8.42-30.79-47.73-30.79s-62.93,30.79-62.93,30.79c0,0-22.7-10.84-47.19,12.06Z"/>
  <path class="cls-1" d="M101.08,367.39h208.1s-14.32-19.33-50.24-12.06c0,0-8.42-30.79-47.73-30.79s-62.93,30.79-62.93,30.79c0,0-22.7-10.84-47.19,12.06Z"/>
  <path class="cls-1" d="M321.35,266.38h315.96s-17.38-34.51-56.42-45.64c0,0-18.27-43.68-86.53-43.68-51.14,0-93.68,55.03-93.68,55.03,0,0-49.95-10.48-79.33,34.28Z"/>
  <path class="cls-1" d="M35.49,232.21h180.94s-11.74-19.39-34.55-19.39-37.78,8.45-37.78,8.45c0,0-24.08-27.84-54.55-27.84-38.97,0-54.06,38.78-54.06,38.78Z"/>
</svg>