<?xml version="1.0" encoding="UTF-8"?>
<svg id="Layer_1" data-name="Layer 1" xmlns="http://www.w3.org/2000/svg" version="1.1" viewBox="0 0 841.9 595.3">
  <defs>
    <style>
      .cls-1 {
        fill: #fedfbd;
      }

      .cls-1, .cls-2, .cls-3 {
        stroke-width: 0px;
      }

      .cls-2 {
        fill: #9ba355;
      }

      .cls-3 {
        fill: #b8bf6b;
      }
    </style>
  </defs>
  <path class="cls-3" d="M640.7,660.5c-83.4,5.3-63.4,67.9-127.1,49.6-75.8-21.7-117.6-2.4-174.2,8.7-82.1,16-162.3-59.7-340.9-59.7s-33.3-127.7-33.3-127.7c0,0,179.6-97.2,621.3-75.2,441.6,22.1,255.3,202.9,255.3,202.9h0"/>
  <path class="cls-1" d="M191.8,541.1c0-4.6-4.7-8.4-10.4-8.4s-10.4,3.7-10.4,8.4,4.7,8.4,10.4,8.4,10.4-3.7,10.4-8.4Z"/>
  <path class="cls-1" d="M54.9,590.7c0-4.6-4.7-8.4-10.4-8.4s-10.4,3.7-10.4,8.4,4.7,8.4,10.4,8.4,10.4-3.7,10.4-8.4Z"/>
  <path class="cls-1" d="M707.5,596.7c0-4.6-4.7-8.4-10.4-8.4s-10.4,3.7-10.4,8.4,4.7,8.4,10.4,8.4,10.4-3.7,10.4-8.4Z"/>
  <ellipse class="cls-1" cx="284.5" cy="519.5" rx="6.3" ry="5.9"/>
  <ellipse class="cls-1" cx="324.3" cy="596.7" rx="6.3" ry="5.9"/>
  <ellipse class="cls-1" cx="514.2" cy="505.9" rx="6.3" ry="5.9"/>
  <ellipse class="cls-1" cx="856.9" cy="596.7" rx="6.3" ry="5.9"/>
  <ellipse class="cls-2" cx="343.4" cy="606.9" rx="4.2" ry="4.3"/>
  <ellipse class="cls-2" cx="863.1" cy="568.7" rx="4.2" ry="4.3"/>
  <ellipse class="cls-2" cx="707.5" cy="568.7" rx="4.2" ry="4.3"/>
  <path class="cls-2" d="M227.5,509.8c0-5.4-3.5-9.8-7.8-9.8s-7.8,4.4-7.8,9.8,3.5,9.8,7.8,9.8,7.8-4.4,7.8-9.8Z"/>
  <path class="cls-2" d="M6.4,578.5c0-5.4-3.5-9.8-7.8-9.8s-7.8,4.4-7.8,9.8,3.5,9.8,7.8,9.8,7.8-4.4,7.8-9.8Z"/>
  <path class="cls-2" d="M893.6,580.9c0-5.4-3.5-9.8-7.8-9.8s-7.8,4.4-7.8,9.8,3.5,9.8,7.8,9.8,7.8-4.4,7.8-9.8Z"/>
  <path class="cls-2" d="M741,580.9c0-5.4-3.5-9.8-7.8-9.8s-7.8,4.4-7.8,9.8,3.5,9.8,7.8,9.8,7.8-4.4,7.8-9.8Z"/>
  <path class="cls-2" d="M445.3,521.6c0-5.4-3.5-9.8-7.8-9.8s-7.8,4.4-7.8,9.8,3.5,9.8,7.8,9.8,7.8-4.4,7.8-9.8Z"/>
</svg>