<?xml version="1.0" encoding="UTF-8"?>
<svg id="Layer_1" data-name="Layer 1" xmlns="http://www.w3.org/2000/svg" version="1.1" viewBox="0 0 841.89 595.28">
  <defs>
    <style>
      .cls-1 {
        fill: #fedfbd;
      }

      .cls-1, .cls-2, .cls-3 {
        stroke-width: 0px;
      }

      .cls-2 {
        fill: #9ba355;
      }

      .cls-3 {
        fill: #b8bf6b;
      }
    </style>
  </defs>
  <path class="cls-3" d="M829.66,603.28l-118.92,7.58s-83.32-5.25-134.4-3.79c-51.08,1.46-83.29.1-122.27-4.96-46.42-6.02-71.99-.66-106.62,2.41-50.29,4.45-84.6,5.1-193.95,5.1s-141.27-6.38-141.27-6.38c0,0,135.4-65.59,405.78-59.47,270.38,6.13,411.65,59.5,411.65,59.5Z"/>
  <path class="cls-1" d="M257.04,572.92c0-1.29-2.86-2.33-6.38-2.33s-6.38,1.04-6.38,2.33,2.86,2.33,6.38,2.33,6.38-1.04,6.38-2.33Z"/>
  <path class="cls-1" d="M173.22,586.69c0-1.29-2.86-2.33-6.38-2.33s-6.38,1.04-6.38,2.33,2.86,2.33,6.38,2.33,6.38-1.04,6.38-2.33Z"/>
  <path class="cls-1" d="M572.74,588.33c0-1.29-2.86-2.33-6.38-2.33s-6.38,1.04-6.38,2.33,2.86,2.33,6.38,2.33,6.38-1.04,6.38-2.33Z"/>
  <ellipse class="cls-1" cx="313.78" cy="566.92" rx="3.83" ry="1.64"/>
  <ellipse class="cls-1" cx="338.15" cy="588.33" rx="3.83" ry="1.64"/>
  <ellipse class="cls-1" cx="454.4" cy="563.13" rx="3.83" ry="1.64"/>
  <ellipse class="cls-1" cx="664.17" cy="588.33" rx="3.83" ry="1.64"/>
  <ellipse class="cls-2" cx="349.84" cy="591.17" rx="2.57" ry="1.2"/>
  <ellipse class="cls-2" cx="668" cy="580.56" rx="2.57" ry="1.2"/>
  <ellipse class="cls-2" cx="572.74" cy="580.56" rx="2.57" ry="1.2"/>
  <ellipse class="cls-2" cx="462.52" cy="554.76" rx="2.57" ry="1.2"/>
  <path class="cls-2" d="M278.88,564.21c0-1.5-2.14-2.72-4.79-2.72s-4.79,1.22-4.79,2.72,2.14,2.72,4.79,2.72,4.79-1.22,4.79-2.72Z"/>
  <path class="cls-2" d="M143.52,583.28c0-1.5-2.14-2.72-4.79-2.72s-4.79,1.22-4.79,2.72,2.14,2.72,4.79,2.72,4.79-1.22,4.79-2.72Z"/>
  <path class="cls-2" d="M686.68,583.97c0-1.5-2.14-2.72-4.79-2.72s-4.79,1.22-4.79,2.72,2.14,2.72,4.79,2.72,4.79-1.22,4.79-2.72Z"/>
  <path class="cls-2" d="M593.25,583.97c0-1.5-2.14-2.72-4.79-2.72s-4.79,1.22-4.79,2.72,2.14,2.72,4.79,2.72,4.79-1.22,4.79-2.72Z"/>
  <path class="cls-2" d="M435.13,564.21c0-1.5-2.14-2.72-4.79-2.72s-4.79,1.22-4.79,2.72,2.14,2.72,4.79,2.72,4.79-1.22,4.79-2.72Z"/>
</svg>