<?xml version="1.0" encoding="UTF-8"?>
<svg id="Layer_1" data-name="Layer 1" xmlns="http://www.w3.org/2000/svg" version="1.1" viewBox="0 0 1000 1000">
  <defs>
    <style>
      .cls-1 {
        fill: #56c02b;
      }

      .cls-1, .cls-2 {
        stroke-width: 0px;
      }

      .cls-2 {
        fill: #fff;
      }
    </style>
  </defs>
  <path class="cls-1" d="M-.4.3h999.7v999.7H-.4V.3Z"/>
  <path class="cls-2" d="M72.9,120.8v35.4l23.6-24.9h.6v154.7h33.6V84.2h-26.7l-31.1,36.7ZM211.4,148.2c-13.7,0-23,5-28.6,13.7v-50.3h58.4v-27.3h-89.5v113.7h31.1v-4.3c0-11.8,5.6-18.6,14.9-18.6s14.3,6.8,14.3,18v48.5c0,10.6-3.7,18-14.3,18s-15.5-7.5-15.5-19.9v-25.5h-31.1v23c0,30.4,12.4,50.3,46.6,50.3s48.5-18,48.5-46v-49.1c0-31.1-16.8-44.1-34.8-44.1"/>
  <path class="cls-2" d="M418.3,676.3c1.2,0,2.5,1.2,2.5,2.5v72.7c0,1.2-1.2,2.5-2.5,2.5h-29.2c-1.2,0-2.5-1.2-2.5-2.5v-72.7c0-1.2,1.2-2.5,2.5-2.5h29.2ZM742,785h-485.2c-1.2,0-2.5,1.2-2.5,2.5v29.8c0,1.2,1.2,2.5,2.5,2.5h485.2c1.2,0,2.5-1.2,2.5-2.5v-29.8c0-1.2-1.2-2.5-2.5-2.5M742,844.1h-485.2c-1.2,0-2.5,1.2-2.5,2.5v29.8c0,1.2,1.2,2.5,2.5,2.5h485.2c1.2,0,2.5-1.2,2.5-2.5v-29.8c0-1.2-1.2-2.5-2.5-2.5M649.5,596.1c-6.2-5-22.4-15.5-42.2-15.5s-27.3,5.6-39.1,16.8c-.6.6-1.2,1.9-1.2,3.1v2.5c0,1.2.6,2.5,1.2,3.1,1.2.6,1.9,1.2,3.7.6h.6c.6-.6,1.9-.6,2.5-1.2,2.5-1.9,9.3-4.3,19.3-4.3s30.4,2.5,50.3,21.1l.6.6c1.2,1.2,2.5,1.9,4.3,1.9s3.1-.6,4.3-1.9l.6-.6c19.9-18,39.8-21.1,50.3-21.1s16.8,2.5,19.3,4.3c.6.6,1.2,1.2,2.5,1.9.6,0,1.9.6,3.1,0,1.9-.6,3.1-1.9,3.1-3.7v-2.5c0-1.2-.6-2.5-1.2-3.1-11.8-11.2-24.9-16.8-39.8-16.8-19.9-1.2-36,9.9-42.2,14.9M619.6,402.3c-1.2.6-1.9,1.2-1.9,2.5l-.6,1.9c-.6,1.2,0,2.5.6,3.7.6,1.2,1.9,1.9,3.1,1.9h.6c.6,0,1.9,0,2.5-.6.6,0,1.2-.6,3.1-.6s21.7.6,34.8,22.4v.6c.6,1.2,1.9,1.9,3.1,2.5h1.2c.6,0,1.9,0,2.5-.6h.6c6.8-3.7,14.3-5.6,21.7-5.6,12.4,0,20.5,5,22.4,6.8l1.9,1.9c.6,0,1.2.6,1.9.6h1.2c.6,0,1.2,0,1.9-.6,1.2-.6,1.9-1.2,1.9-2.5l.6-1.2v-1.2c0-.6,0-1.2-.6-1.9-9.3-16.2-23-19.9-32.9-19.9s-13.7,1.9-17.4,3.1c-4.3-6.2-15.5-18.6-32.9-18.6-6.8,1.2-13,2.5-19.3,5.6M517.1,477.5v2.5c0,1.2.6,2.5,1.9,3.1s2.5.6,3.1.6h.6c.6-.6,1.2-.6,1.9-1.2,1.9-1.2,8.7-4.3,18.6-4.3s23.6,2.5,38.5,14.3l.6.6c1.2.6,2.5,1.2,3.7,1.2h.6c1.2,0,3.1-.6,3.7-1.9l.6-.6c16.2-17.4,33.6-19.9,42.9-19.9s11.2,1.2,12.4,2.5,1.2,1.2,2.5,1.2h3.1c1.9-.6,3.1-2.5,2.5-4.3v-1.9c0-1.2-.6-1.9-1.2-3.1-9.9-8.1-19.9-12.4-31.1-12.4-16.8,0-30.4,9.9-36,14.9-5-3.7-17.4-10.6-32.3-10.6s-24.2,5.6-34.2,16.2c-2.5.6-2.5,1.9-2.5,3.1M271.1,516c0-29.2,23.6-52.8,52.8-52.8h3.1c2.5-36.7,33.6-65.9,70.8-65.9s71.5,31.7,71.5,71.5-2.5,21.7-7.5,31.1c35.4,8.1,62.1,39.8,62.1,77.7s-35.4,79.5-79.5,79.5-106.2-.6-106.2-.6c-31.1,0-56.5-25.5-56.5-56.5s5.6-28.6,15.5-38.5c-14.9-8.7-26.1-25.5-26.1-45.4h0Z"/>
  <path class="cls-2" d="M318.9,84.2h13.7v70.2h16.2v11.2h-29.8v-81.4h0ZM356.8,84.2h13.7v81.4h-13.7v-81.4ZM380.4,84.2h32.3v11.2h-18.6v23.6h13.7v11.2h-13.7v36h-13.7v-82h0ZM420.2,84.2h32.9v11.2h-19.3v23.6h13.7v11.2h-13.7v24.9h19.3v11.2h-32.9v-82h0Z"/>
  <path class="cls-2" d="M318.9,265v-39.8c0-13,6.2-21.7,20.5-21.7s21.1,9.3,21.1,21.7v39.8c0,12.4-6.2,21.7-21.1,21.7s-20.5-9.3-20.5-21.7ZM346.9,266.9v-44.1c0-5-1.9-8.7-6.8-8.7s-6.8,3.7-6.8,8.7v44.1c0,5,1.9,8.7,6.8,8.7s6.8-3.7,6.8-8.7ZM379.8,234.5v51.6h-11.8v-81.4h13.7l14.9,46.6v-46.6h11.2v81.4h-11.8l-16.2-51.6ZM437.6,204.1h13.7v70.2h16.2v11.2h-29.8v-81.4ZM471.1,286.1l15.5-81.4h15.5l15.5,81.4h-14.3l-2.5-14.9h-14.3l-2.5,14.9h-13ZM488.5,260h11.2l-5.6-32.9-5.6,32.9h0ZM535.1,234.5v51.6h-11.8v-81.4h13.7l14.9,46.6v-46.6h11.2v81.4h-11.8l-16.2-51.6ZM613.4,226.5v37.9c0,12.4-5,21.7-19.9,21.7h-21.1v-81.4h21.1c14.3-.6,19.9,8.7,19.9,21.7ZM591.7,274.9c5.6,0,8.1-3.1,8.1-8.1v-42.9c0-5-1.9-8.1-8.1-8.1h-5.6v59h5.6Z"/>
</svg>