<?xml version="1.0" encoding="UTF-8"?>
<svg id="Layer_1" data-name="Layer 1" xmlns="http://www.w3.org/2000/svg" version="1.1" viewBox="0 0 841.89 595.28">
  <defs>
    <style>
      .cls-1 {
        fill: #c5996c;
      }

      .cls-1, .cls-2, .cls-3 {
        stroke-width: 0px;
      }

      .cls-2 {
        fill: #3d905f;
      }

      .cls-3 {
        fill: #9ba355;
      }
    </style>
  </defs>
  <path class="cls-3" d="M640.72,556.1"/>
  <path class="cls-1" d="M679.49,203.74c-32.45-4.05,6.36,383.82,6.36,383.82h29.73s-58.84-414.32-31.01-372.91l-5.08-10.91Z"/>
  <path class="cls-2" d="M720.93,245.5c17.97,9.31,29.46,10.88,30.21,6.66.75-4.22-14.93-19.07-27.01-25.96-29.28-16.69-52.53-22.49-52.53-22.49,0,0,26.19,29.8,49.33,41.79Z"/>
  <path class="cls-2" d="M691.24,258.22c-19.96-27.19-19.64-60.87-19.64-60.87,0,0,26.02,36.65,36.86,52.77,10.83,16.12,14.75,28.73,11.38,31.32-2.77,2.14-19.63-11.02-28.59-23.23Z"/>
  <path class="cls-2" d="M716.41,194.34c-33.62-2.81-62.16,15.07-62.16,15.07,0,0,44.85,3.02,64.25,3.84,19.4.81,32.2-2.45,32.65-6.67.37-3.48-19.66-10.97-34.75-12.23Z"/>
  <path class="cls-2" d="M665.79,240.96c11.97-18.18,10.65-39.86,10.65-39.86,0,0-15.56,24.47-22.01,35.21-6.45,10.74-8.56,19-6.3,20.56,1.86,1.29,12.29-7.75,17.66-15.91Z"/>
  <path class="cls-2" d="M688.08,186.04c-13.29,6.56-19.99,19.76-19.99,19.76,0,0,17.57-9.02,25.06-13.11,7.49-4.09,11.57-8.22,10.78-9.91-.65-1.4-9.89.32-15.85,3.27Z"/>
  <path class="cls-2" d="M686.06,208.13s-60.82,5.87-78.76,3c-17.95-2.87-24.41-3.17-22.72-9.37,1.69-6.2,33.42-11.69,47.87-12.38,14.45-.69,37.92,3.36,53.61,18.74Z"/>
  <path class="cls-2" d="M686.06,203.79s-44.88,39.58-68.55,54.82c-23.67,15.24-46.67,20.23-48.86,14.81-2.18-5.41,29.31-36.36,41.58-44.5,10.88-7.22,37.05-26.65,75.83-25.13Z"/>
  <path class="cls-2" d="M661.51,183.95c13.29,6.56,19.99,19.76,19.99,19.76,0,0-17.57-9.02-25.06-13.11-7.49-4.09-11.57-8.22-10.78-9.91.65-1.4,9.89.32,15.85,3.27Z"/>
  <path class="cls-3" d="M104.97,565.17"/>
  <path class="cls-1" d="M77.38,314.4c23.1-2.88-4.53,273.16-4.53,273.16h-21.16s41.88-294.87,22.07-265.4l3.62-7.77Z"/>
  <path class="cls-2" d="M47.89,344.11c-12.79,6.62-20.97,7.74-21.5,4.74-.53-3,10.62-13.57,19.22-18.48,20.84-11.88,37.39-16.01,37.39-16.01,0,0-18.64,21.21-35.11,29.74Z"/>
  <path class="cls-2" d="M69.01,353.17c14.21-19.35,13.98-43.32,13.98-43.32,0,0-18.52,26.08-26.23,37.55-7.71,11.47-10.5,20.45-8.1,22.29,1.97,1.52,13.97-7.84,20.35-16.53Z"/>
  <path class="cls-2" d="M51.1,307.71c23.92-2,44.24,10.72,44.24,10.72,0,0-31.92,2.15-45.73,2.73-13.81.58-22.92-1.74-23.24-4.75-.27-2.48,13.99-7.81,24.73-8.71Z"/>
  <path class="cls-2" d="M87.13,340.89c-8.52-12.94-7.58-28.37-7.58-28.37,0,0,11.07,17.42,15.66,25.06,4.59,7.64,6.09,13.52,4.49,14.63-1.32.92-8.74-5.51-12.57-11.32Z"/>
  <path class="cls-2" d="M71.27,301.8c9.46,4.67,14.23,14.06,14.23,14.06,0,0-12.51-6.42-17.84-9.33-5.33-2.91-8.23-5.85-7.67-7.05.46-.99,7.04.23,11.28,2.32Z"/>
  <path class="cls-2" d="M72.7,317.52s43.28,4.18,56.05,2.14c12.77-2.04,17.37-2.25,16.17-6.67-1.2-4.41-23.78-8.32-34.07-8.81-10.28-.49-26.99,2.39-38.16,13.34Z"/>
  <path class="cls-2" d="M72.7,314.43s31.94,28.17,48.79,39.02c16.85,10.85,33.22,14.4,34.77,10.54,1.55-3.85-20.86-25.87-29.59-31.67-7.75-5.14-26.37-18.96-53.97-17.89Z"/>
  <path class="cls-2" d="M90.18,300.31c-9.46,4.67-14.23,14.06-14.23,14.06,0,0,12.51-6.42,17.84-9.33,5.33-2.91,8.23-5.85,7.67-7.05-.46-.99-7.04.23-11.28,2.32Z"/>
  <path class="cls-3" d="M764.78,565.17"/>
  <path class="cls-1" d="M737.18,314.4c23.1-2.88-4.53,273.16-4.53,273.16h-21.16s41.88-294.87,22.07-265.4l3.62-7.77Z"/>
  <path class="cls-2" d="M707.69,344.11c-12.79,6.62-20.97,7.74-21.5,4.74-.53-3,10.62-13.57,19.22-18.48,20.84-11.88,37.39-16.01,37.39-16.01,0,0-18.64,21.21-35.11,29.74Z"/>
  <path class="cls-2" d="M728.82,353.17c14.21-19.35,13.98-43.32,13.98-43.32,0,0-18.52,26.08-26.23,37.55-7.71,11.47-10.5,20.45-8.1,22.29,1.97,1.52,13.97-7.84,20.35-16.53Z"/>
  <path class="cls-2" d="M710.91,307.71c23.92-2,44.24,10.72,44.24,10.72,0,0-31.92,2.15-45.73,2.73-13.81.58-22.92-1.74-23.24-4.75-.27-2.48,13.99-7.81,24.73-8.71Z"/>
  <path class="cls-2" d="M746.94,340.89c-8.52-12.94-7.58-28.37-7.58-28.37,0,0,11.07,17.42,15.66,25.06,4.59,7.64,6.09,13.52,4.49,14.63-1.32.92-8.74-5.51-12.57-11.32Z"/>
  <path class="cls-2" d="M731.07,301.8c9.46,4.67,14.23,14.06,14.23,14.06,0,0-12.51-6.42-17.84-9.33-5.33-2.91-8.23-5.85-7.67-7.05.46-.99,7.04.23,11.28,2.32Z"/>
  <path class="cls-2" d="M732.51,317.52s43.28,4.18,56.05,2.14c12.77-2.04,17.37-2.25,16.17-6.67-1.2-4.41-23.78-8.32-34.07-8.81-10.28-.49-26.99,2.39-38.16,13.34Z"/>
  <path class="cls-2" d="M732.51,314.43s31.94,28.17,48.79,39.02c16.85,10.85,33.22,14.4,34.77,10.54,1.55-3.85-20.86-25.87-29.59-31.67-7.75-5.14-26.37-18.96-53.97-17.89Z"/>
  <path class="cls-2" d="M749.98,300.31c-9.46,4.67-14.23,14.06-14.23,14.06,0,0,12.51-6.42,17.84-9.33,5.33-2.91,8.23-5.85,7.67-7.05-.46-.99-7.04.23-11.28,2.32Z"/>
</svg>