<?xml version="1.0" encoding="UTF-8"?>
<svg id="Layer_1" data-name="Layer 1" xmlns="http://www.w3.org/2000/svg" version="1.1" viewBox="0 0 841.89 595.28">
  <defs>
    <style>
      .cls-1 {
        fill: #c5996c;
      }

      .cls-1, .cls-2, .cls-3 {
        stroke-width: 0px;
      }

      .cls-2 {
        fill: #42352b;
      }

      .cls-3 {
        fill: #9ba355;
      }
    </style>
  </defs>
  <path class="cls-3" d="M694.97,554.36"/>
  <path class="cls-1" d="M733.75,202.01c-32.45-4.05,6.36,383.82,6.36,383.82h29.73s-58.84-414.32-31.01-372.91l-5.08-10.91Z"/>
  <path class="cls-2" d="M730.75,276.16c5.78,19.39,12.63,28.75,16.19,26.36,3.56-2.39,3.36-23.99-.07-37.46-8.32-32.66-20.3-53.42-20.3-53.42,0,0-3.26,39.54,4.19,64.52Z"/>
  <path class="cls-2" d="M745.5,256.49c-19.96-27.19-19.64-60.87-19.64-60.87,0,0,26.02,36.65,36.86,52.77,10.83,16.12,14.75,28.73,11.38,31.32-2.77,2.14-19.63-11.02-28.59-23.23Z"/>
  <path class="cls-2" d="M759.1,248.19c-4.57-33.42-28.22-57.39-28.22-57.39,0,0,6.8,44.43,10.23,63.55,3.43,19.11,9.39,30.9,13.61,30.42,3.48-.39,6.44-21.57,4.39-36.58Z"/>
  <path class="cls-2" d="M720.04,239.23c11.97-18.18,10.65-39.86,10.65-39.86,0,0-15.56,24.47-22.01,35.21-6.45,10.74-8.56,19-6.3,20.56,1.86,1.29,12.29-7.75,17.66-15.91Z"/>
  <path class="cls-2" d="M730.86,191.38c-13.29,6.56-19.99,19.76-19.99,19.76,0,0,17.57-9.02,25.06-13.11,7.49-4.09,11.57-8.22,10.78-9.91-.65-1.4-9.89.32-15.85,3.27Z"/>
  <path class="cls-2" d="M735.64,195.63s-23.22,56.51-34.14,71.04c-10.92,14.53-14.2,20.1-18.9,15.71-4.69-4.39,5.28-35.01,11.42-48.1,6.14-13.1,20.69-31.95,41.62-38.64Z"/>
  <path class="cls-2" d="M728.84,199.36s-5.29,59.61-11.95,86.96c-6.67,27.35-19.91,46.81-25.23,44.39-5.31-2.42-3.79-46.54-.5-60.9,2.92-12.73,8.51-44.84,37.68-70.44Z"/>
  <path class="cls-2" d="M731.65,191.67c6.82,12.31,9.31,26.49,9.31,26.49,0,0-8.98-16.56-12.78-23.81-3.8-7.25-5.7-12.74-5.09-13.69.5-.78,5.51,5.48,8.57,11.01Z"/>
  <path class="cls-3" d="M819.04,563.43"/>
  <path class="cls-3" d="M94.49,562.34"/>
  <path class="cls-1" d="M125.57,279.88c-26.02-3.24,5.1,307.68,5.1,307.68h23.84s-47.17-332.13-24.86-298.93l-4.07-8.75Z"/>
  <path class="cls-2" d="M123.17,339.32c4.63,15.55,10.13,23.05,12.98,21.13,2.85-1.92,2.69-19.23-.06-30.03-6.67-26.18-16.27-42.82-16.27-42.82,0,0-2.61,31.7,3.36,51.72Z"/>
  <path class="cls-2" d="M134.99,323.55c-16-21.8-15.75-48.79-15.75-48.79,0,0,20.86,29.38,29.54,42.3,8.68,12.92,11.82,23.03,9.12,25.11-2.22,1.71-15.74-8.83-22.92-18.62Z"/>
  <path class="cls-2" d="M145.89,316.9c-3.66-26.79-22.62-46.01-22.62-46.01,0,0,5.45,35.62,8.2,50.94,2.75,15.32,7.53,24.77,10.91,24.39,2.79-.32,5.16-17.29,3.52-29.32Z"/>
  <path class="cls-2" d="M114.59,309.71c9.59-14.57,8.54-31.96,8.54-31.96,0,0-12.47,19.62-17.64,28.23-5.17,8.61-6.86,15.23-5.05,16.48,1.49,1.03,9.85-6.21,14.16-12.75Z"/>
  <path class="cls-2" d="M123.26,271.36c-10.66,5.26-16.02,15.84-16.02,15.84,0,0,14.09-7.23,20.09-10.51,6-3.28,9.27-6.59,8.64-7.94-.52-1.12-7.93.26-12.71,2.62Z"/>
  <path class="cls-2" d="M127.09,274.76s-18.62,45.3-27.37,56.95c-8.76,11.64-11.39,16.11-15.15,12.59-3.76-3.52,4.23-28.06,9.15-38.56,4.92-10.5,16.58-25.62,33.37-30.98Z"/>
  <path class="cls-2" d="M121.64,277.76s-4.24,47.78-9.58,69.71c-5.34,21.93-15.96,37.52-20.22,35.58-4.26-1.94-3.04-37.31-.4-48.82,2.34-10.21,6.82-35.94,30.2-56.47Z"/>
  <path class="cls-2" d="M123.89,271.59c5.47,9.87,7.47,21.23,7.47,21.23,0,0-7.2-13.27-10.25-19.09-3.05-5.82-4.57-10.21-4.08-10.97.4-.63,4.41,4.39,6.87,8.82Z"/>
  <path class="cls-3" d="M193.94,569.61"/>
  <path class="cls-3" d="M250.69,552.83"/>
  <path class="cls-1" d="M207.17,157.37c36.42-4.54-7.14,430.77-7.14,430.77h-33.37s66.04-465,34.81-418.52l5.7-12.25Z"/>
  <path class="cls-2" d="M210.53,240.59c-6.49,21.77-14.18,32.27-18.17,29.59-3.99-2.68-3.77-26.92.08-42.04,9.34-36.66,22.78-59.95,22.78-59.95,0,0,3.65,44.38-4.7,72.41Z"/>
  <path class="cls-2" d="M193.98,218.52c22.41-30.52,22.05-68.31,22.05-68.31,0,0-29.2,41.13-41.36,59.22-12.16,18.09-16.55,32.24-12.77,35.16,3.11,2.4,22.03-12.37,32.09-26.07Z"/>
  <path class="cls-2" d="M178.72,209.2c5.13-37.51,31.68-64.41,31.68-64.41,0,0-7.63,49.87-11.48,71.32-3.85,21.45-10.54,34.68-15.28,34.14-3.91-.44-7.23-24.21-4.92-41.05Z"/>
  <path class="cls-2" d="M222.55,199.15c-13.43-20.4-11.96-44.74-11.96-44.74,0,0,17.46,27.46,24.7,39.52,7.24,12.05,9.6,21.32,7.07,23.07-2.09,1.44-13.79-8.69-19.82-17.85Z"/>
  <path class="cls-2" d="M210.41,145.44c14.92,7.36,22.43,22.17,22.43,22.17,0,0-19.72-10.13-28.13-14.72-8.41-4.59-12.99-9.22-12.1-11.12.73-1.57,11.1.36,17.79,3.67Z"/>
  <path class="cls-2" d="M205.05,150.21s26.06,63.43,38.32,79.73c12.26,16.3,15.94,22.56,21.21,17.63,5.27-4.93-5.92-39.29-12.81-53.99-6.89-14.7-23.22-35.86-46.71-43.37Z"/>
  <path class="cls-2" d="M212.67,154.41s5.93,66.9,13.41,97.6c7.48,30.7,22.35,52.53,28.31,49.82,5.96-2.72,4.25-52.24.56-68.35-3.27-14.29-9.55-50.32-42.28-79.06Z"/>
  <path class="cls-2" d="M209.52,145.77c-7.65,13.82-10.45,29.73-10.45,29.73,0,0,10.08-18.58,14.35-26.72,4.27-8.14,6.39-14.29,5.72-15.36-.56-.88-6.18,6.15-9.61,12.35Z"/>
  <path class="cls-3" d="M111.45,563.01"/>
</svg>