<?xml version="1.0" encoding="UTF-8"?>
<svg id="Layer_1" data-name="Layer 1" xmlns="http://www.w3.org/2000/svg" version="1.1" viewBox="0 0 841.89 595.28">
  <defs>
    <style>
      .cls-1 {
        fill: #2d2d2d;
        stroke-width: 0px;
      }
    </style>
  </defs>
  <path class="cls-1" d="M663.33,554.36"/>
  <path class="cls-1" d="M695.43,209.31c-.07-.04-.13-.08-.2-.12-19.18,52.73,13.23,376.63,13.23,376.63h29.73s-56.64-327.94-42.76-376.52Z"/>
  <path class="cls-1" d="M68.68,209.31c-.07-.04-.13-.08-.2-.12-19.18,52.73,13.23,376.63,13.23,376.63h29.73s-56.64-327.94-42.76-376.52Z"/>
  <path class="cls-1" d="M787.39,563.43"/>
  <path class="cls-1" d="M94.49,562.34"/>
  <path class="cls-1" d="M125.57,279.88c-26.02-3.24,5.1,307.68,5.1,307.68h23.84s-47.17-332.13-24.86-298.93l-4.07-8.75Z"/>
  <path class="cls-1" d="M114.59,309.71c9.59-14.57,8.54-31.96,8.54-31.96,0,0-12.47,19.62-17.64,28.23-5.17,8.61-6.86,15.23-5.05,16.48,1.49,1.03,9.85-6.21,14.16-12.75Z"/>
  <path class="cls-1" d="M130.68,294.25c-1.33-11.81-9.46-20.45-9.46-20.45,0,0,2.02,15.7,3.07,22.46,1.05,6.76,3.05,10.96,4.54,10.83,1.23-.11,2.45-7.54,1.85-12.84Z"/>
  <path class="cls-1" d="M193.94,569.61"/>
  <path class="cls-1" d="M250.69,552.83"/>
  <path class="cls-1" d="M111.45,563.01"/>
  <path class="cls-1" d="M810.24,548.45"/>
  <path class="cls-1" d="M764.18,129.87c38.56-4.81-7.55,455.96-7.55,455.96h-35.32s69.9-492.2,36.84-443l6.03-12.96Z"/>
  <path class="cls-1" d="M780.46,174.08c-14.22-21.59-12.66-47.36-12.66-47.36,0,0,18.48,29.07,26.15,41.83,7.66,12.76,10.16,22.57,7.49,24.42-2.21,1.53-14.59-9.2-20.98-18.9Z"/>
  <path class="cls-1" d="M756.61,151.17c1.97-17.5,14.02-30.3,14.02-30.3,0,0-3,23.27-4.55,33.29-1.55,10.02-4.52,16.24-6.73,16.05-1.82-.16-3.63-11.18-2.74-19.03Z"/>
  <path class="cls-1" d="M662.86,559.23"/>
  <path class="cls-1" d="M578.78,534.36"/>
  <path class="cls-1" d="M785.11,549.45"/>
</svg>