<?xml version="1.0" encoding="UTF-8"?>
<svg id="Layer_1" data-name="Layer 1" xmlns="http://www.w3.org/2000/svg" version="1.1" viewBox="0 0 2551.2 595.3">
  <defs>
    <style>
      .cls-1 {
        fill: #c5996c;
      }

      .cls-1, .cls-2, .cls-3, .cls-4, .cls-5 {
        stroke-width: 0px;
      }

      .cls-2 {
        fill: #2d2e2d;
      }

      .cls-3 {
        fill: #9ba355;
      }

      .cls-4 {
        fill: #3e9160;
      }

      .cls-5 {
        fill: #43352c;
      }
    </style>
  </defs>
  <path class="cls-3" d="M262.6,586.3"/>
  <path class="cls-1" d="M277.6,450.5c-12.5-1.6,2.5,147.9,2.5,147.9h11.5s-22.7-159.7-12-143.7l-2-4.2h0Z"/>
  <path class="cls-4" d="M293.5,466.6c6.9,3.6,11.4,4.2,11.6,2.6s-5.8-7.4-10.4-10c-11.3-6.4-20.2-8.7-20.2-8.7,0,0,10.1,11.5,19,16.1Z"/>
  <path class="cls-4" d="M282.1,471.5c-7.7-10.5-7.6-23.5-7.6-23.5,0,0,10,14.1,14.2,20.3,4.2,6.2,5.7,11.1,4.4,12.1-1.1.8-7.6-4.2-11-9h0Z"/>
  <path class="cls-4" d="M291.8,446.9c-13-1.1-24,5.8-24,5.8,0,0,17.3,1.2,24.8,1.5,7.5.3,12.4-.9,12.6-2.6.1-1.3-7.6-4.2-13.4-4.7h0Z"/>
  <path class="cls-4" d="M272.3,464.8c4.6-7,4.1-15.4,4.1-15.4,0,0-6,9.4-8.5,13.6-2.5,4.1-3.3,7.3-2.4,7.9.7.5,4.7-3,6.8-6.1h0Z"/>
  <path class="cls-4" d="M280.9,443.7c-5.1,2.5-7.7,7.6-7.7,7.6,0,0,6.8-3.5,9.7-5.1s4.5-3.2,4.2-3.8c-.3-.5-3.8.1-6.1,1.3h0Z"/>
  <path class="cls-4" d="M280.1,452.2s-23.4,2.3-30.4,1.2c-6.9-1.1-9.4-1.2-8.8-3.6s12.9-4.5,18.5-4.8c5.6-.3,14.6,1.3,20.7,7.2h0Z"/>
  <path class="cls-4" d="M280.1,450.5s-17.3,15.3-26.4,21.1c-9.1,5.9-18,7.8-18.8,5.7-.8-2.1,11.3-14,16-17.2,4.2-2.8,14.3-10.3,29.2-9.7h0Z"/>
  <path class="cls-4" d="M270.6,442.9c5.1,2.5,7.7,7.6,7.7,7.6,0,0-6.8-3.5-9.7-5.1s-4.5-3.2-4.2-3.8c.3-.5,3.8.1,6.1,1.3h0Z"/>
  <path class="cls-3" d="M56.1,589.8"/>
  <path class="cls-1" d="M45.5,493.1c8.9-1.1-1.7,105.3-1.7,105.3h-8.2s16.1-113.7,8.5-102.3l1.4-3h0Z"/>
  <path class="cls-4" d="M34.1,504.6c-4.9,2.6-8.1,3-8.3,1.8s4.1-5.2,7.4-7.1c8-4.6,14.4-6.2,14.4-6.2,0,0-7.2,8.2-13.5,11.5h0Z"/>
  <path class="cls-4" d="M42.3,508.1c5.5-7.5,5.4-16.7,5.4-16.7,0,0-7.1,10.1-10.1,14.5-3,4.4-4,7.9-3.1,8.6.8.6,5.4-3,7.8-6.4h0Z"/>
  <path class="cls-4" d="M35.4,490.6c9.2-.8,17.1,4.1,17.1,4.1,0,0-12.3.8-17.6,1.1-5.3.2-8.8-.7-9-1.8-.1-1,5.4-3,9.5-3.4h0Z"/>
  <path class="cls-4" d="M49.2,503.4c-3.3-5-2.9-10.9-2.9-10.9,0,0,4.3,6.7,6,9.7,1.8,2.9,2.3,5.2,1.7,5.6-.5.4-3.4-2.1-4.8-4.4Z"/>
  <path class="cls-4" d="M43.1,488.3c3.6,1.8,5.5,5.4,5.5,5.4,0,0-4.8-2.5-6.9-3.6-2.1-1.1-3.2-2.3-3-2.7.2-.4,2.7,0,4.3.9h0Z"/>
  <path class="cls-4" d="M43.7,494.3s16.7,1.6,21.6.8c4.9-.8,6.7-.9,6.2-2.6-.5-1.7-9.2-3.2-13.1-3.4-4-.2-10.4.9-14.7,5.1h0Z"/>
  <path class="cls-4" d="M43.7,493.2s12.3,10.9,18.8,15c6.5,4.2,12.8,5.6,13.4,4.1.6-1.5-8-10-11.4-12.2-3-2-10.2-7.3-20.8-6.9Z"/>
  <path class="cls-4" d="M50.4,487.7c-3.6,1.8-5.5,5.4-5.5,5.4,0,0,4.8-2.5,6.9-3.6,2.1-1.1,3.2-2.3,3-2.7-.2-.4-2.7,0-4.3.9h0Z"/>
  <path class="cls-3" d="M310.5,589.8"/>
  <path class="cls-1" d="M299.8,493.1c8.9-1.1-1.7,105.3-1.7,105.3h-8.2s16.1-113.7,8.5-102.3l1.4-3h0Z"/>
  <path class="cls-4" d="M288.4,504.6c-4.9,2.6-8.1,3-8.3,1.8s4.1-5.2,7.4-7.1c8-4.6,14.4-6.2,14.4-6.2,0,0-7.2,8.2-13.5,11.5h0Z"/>
  <path class="cls-4" d="M296.6,508.1c5.5-7.5,5.4-16.7,5.4-16.7,0,0-7.1,10.1-10.1,14.5-3,4.4-4,7.9-3.1,8.6.8.6,5.4-3,7.8-6.4h0Z"/>
  <path class="cls-4" d="M289.7,490.6c9.2-.8,17.1,4.1,17.1,4.1,0,0-12.3.8-17.6,1.1-5.3.2-8.8-.7-9-1.8-.1-1,5.4-3,9.5-3.4h0Z"/>
  <path class="cls-4" d="M303.6,503.4c-3.3-5-2.9-10.9-2.9-10.9,0,0,4.3,6.7,6,9.7,1.8,2.9,2.3,5.2,1.7,5.6-.5.4-3.4-2.1-4.8-4.4h0Z"/>
  <path class="cls-4" d="M297.5,488.3c3.6,1.8,5.5,5.4,5.5,5.4,0,0-4.8-2.5-6.9-3.6-2.1-1.1-3.2-2.3-3-2.7.2-.4,2.7,0,4.3.9h0Z"/>
  <path class="cls-4" d="M298,494.3s16.7,1.6,21.6.8c4.9-.8,6.7-.9,6.2-2.6-.5-1.7-9.2-3.2-13.1-3.4-4-.2-10.4.9-14.7,5.1h0Z"/>
  <path class="cls-4" d="M298,493.2s12.3,10.9,18.8,15c6.5,4.2,12.8,5.6,13.4,4.1.6-1.5-8-10-11.4-12.2-3-2-10.2-7.3-20.8-6.9Z"/>
  <path class="cls-4" d="M304.7,487.7c-3.6,1.8-5.5,5.4-5.5,5.4,0,0,4.8-2.5,6.9-3.6,2.1-1.1,3.2-2.3,3-2.7-.2-.4-2.7,0-4.3.9h0Z"/>
  <path class="cls-2" d="M1543.9,588"/>
  <path class="cls-2" d="M1555.6,463.1s0,0,0,0c-6.9,19.1,4.8,136.3,4.8,136.3h10.8s-20.5-118.7-15.5-136.2h0Z"/>
  <path class="cls-2" d="M1328.8,463.1s0,0,0,0c-6.9,19.1,4.8,136.3,4.8,136.3h10.8s-20.5-118.7-15.5-136.2h0Z"/>
  <path class="cls-2" d="M1588.8,591.2"/>
  <path class="cls-2" d="M1338.1,590.9"/>
  <path class="cls-2" d="M1349.4,488.7c-9.4-1.2,1.8,111.3,1.8,111.3h8.6s-17.1-120.2-9-108.2l-1.5-3.2h0Z"/>
  <path class="cls-2" d="M1345.4,499.4c3.5-5.3,3.1-11.6,3.1-11.6,0,0-4.5,7.1-6.4,10.2-1.9,3.1-2.5,5.5-1.8,6,.5.4,3.6-2.2,5.1-4.6h0Z"/>
  <path class="cls-2" d="M1351.2,493.9c-.5-4.3-3.4-7.4-3.4-7.4,0,0,.7,5.7,1.1,8.1.4,2.4,1.1,4,1.6,3.9.4,0,.9-2.7.7-4.6h0Z"/>
  <path class="cls-2" d="M1374.1,593.5"/>
  <path class="cls-2" d="M1394.6,587.4"/>
  <path class="cls-2" d="M1344.3,591.1"/>
  <path class="cls-2" d="M1597.1,585.8"/>
  <path class="cls-2" d="M1580.4,434.4c14-1.7-2.7,165-2.7,165h-12.8s25.3-178.1,13.3-160.3l2.2-4.7h0Z"/>
  <path class="cls-2" d="M1586.3,450.4c-5.1-7.8-4.6-17.1-4.6-17.1,0,0,6.7,10.5,9.5,15.1,2.8,4.6,3.7,8.2,2.7,8.8-.8.6-5.3-3.3-7.6-6.8h0Z"/>
  <path class="cls-2" d="M1577.7,442.1c.7-6.3,5.1-11,5.1-11,0,0-1.1,8.4-1.6,12s-1.6,5.9-2.4,5.8c-.7,0-1.3-4-1-6.9h0Z"/>
  <path class="cls-2" d="M1543.8,589.7"/>
  <path class="cls-2" d="M1513.3,580.7"/>
  <path class="cls-2" d="M1588,586.2"/>
  <path class="cls-3" d="M1139.3,585.1"/>
  <path class="cls-1" d="M1152.8,462.6c-11.3-1.4,2.2,133.4,2.2,133.4h10.3s-20.4-144-10.8-129.6l-1.8-3.8h0Z"/>
  <path class="cls-5" d="M1151.7,488.4c2,6.7,4.4,10,5.6,9.2,1.2-.8,1.2-8.3,0-13-2.9-11.3-7.1-18.6-7.1-18.6,0,0-1.1,13.7,1.5,22.4h0Z"/>
  <path class="cls-5" d="M1156.9,481.6c-6.9-9.4-6.8-21.2-6.8-21.2,0,0,9,12.7,12.8,18.3,3.8,5.6,5.1,10,4,10.9-1,.7-6.8-3.8-9.9-8.1h0Z"/>
  <path class="cls-5" d="M1161.6,478.7c-1.6-11.6-9.8-19.9-9.8-19.9,0,0,2.4,15.4,3.6,22.1,1.2,6.6,3.3,10.7,4.7,10.6,1.2-.1,2.2-7.5,1.5-12.7h0Z"/>
  <path class="cls-5" d="M1148,475.6c4.2-6.3,3.7-13.8,3.7-13.8,0,0-5.4,8.5-7.6,12.2-2.2,3.7-3,6.6-2.2,7.1.6.4,4.3-2.7,6.1-5.5h0Z"/>
  <path class="cls-5" d="M1151.8,458.9c-4.6,2.3-6.9,6.9-6.9,6.9,0,0,6.1-3.1,8.7-4.6s4-2.9,3.7-3.4c-.2-.5-3.4.1-5.5,1.1h0Z"/>
  <path class="cls-5" d="M1153.4,460.4s-8.1,19.6-11.9,24.7c-3.8,5-4.9,7-6.6,5.5-1.6-1.5,1.8-12.2,4-16.7,2.1-4.6,7.2-11.1,14.5-13.4h0Z"/>
  <path class="cls-5" d="M1151.1,461.7s-1.8,20.7-4.2,30.2c-2.3,9.5-6.9,16.3-8.8,15.4-1.8-.8-1.3-16.2-.2-21.2,1-4.4,3-15.6,13.1-24.5h0Z"/>
  <path class="cls-5" d="M1152,459.1c2.4,4.3,3.2,9.2,3.2,9.2,0,0-3.1-5.8-4.4-8.3-1.3-2.5-2-4.4-1.8-4.8.2-.3,1.9,1.9,3,3.8h0Z"/>
  <path class="cls-3" d="M1182.4,588.2"/>
  <path class="cls-3" d="M930.6,587.8"/>
  <path class="cls-1" d="M941.4,489.7c-9-1.1,1.8,106.9,1.8,106.9h8.3s-16.4-115.4-8.6-103.9l-1.4-3h0Z"/>
  <path class="cls-5" d="M940.6,510.4c1.6,5.4,3.5,8,4.5,7.3,1-.7.9-6.7,0-10.4-2.3-9.1-5.7-14.9-5.7-14.9,0,0-.9,11,1.2,18h0Z"/>
  <path class="cls-5" d="M944.7,504.9c-5.6-7.6-5.5-17-5.5-17,0,0,7.2,10.2,10.3,14.7,3,4.5,4.1,8,3.2,8.7-.8.6-5.5-3.1-8-6.5h0Z"/>
  <path class="cls-5" d="M948.5,502.6c-1.3-9.3-7.9-16-7.9-16,0,0,1.9,12.4,2.8,17.7s2.6,8.6,3.8,8.5c1-.1,1.8-6,1.2-10.2h0Z"/>
  <path class="cls-5" d="M937.6,500.1c3.3-5.1,3-11.1,3-11.1,0,0-4.3,6.8-6.1,9.8-1.8,3-2.4,5.3-1.8,5.7.5.4,3.4-2.2,4.9-4.4h0Z"/>
  <path class="cls-5" d="M940.6,486.7c-3.7,1.8-5.6,5.5-5.6,5.5,0,0,4.9-2.5,7-3.7s3.2-2.3,3-2.8c-.2-.4-2.8,0-4.4.9h0Z"/>
  <path class="cls-5" d="M942,487.9s-6.5,15.7-9.5,19.8c-3,4-4,5.6-5.3,4.4s1.5-9.7,3.2-13.4,5.8-8.9,11.6-10.8Z"/>
  <path class="cls-5" d="M940.1,489s-1.5,16.6-3.3,24.2c-1.9,7.6-5.5,13-7,12.4s-1.1-13-.1-17c.8-3.5,2.4-12.5,10.5-19.6h0Z"/>
  <path class="cls-5" d="M940.9,486.8c1.9,3.4,2.6,7.4,2.6,7.4,0,0-2.5-4.6-3.6-6.6s-1.6-3.5-1.4-3.8c.1-.2,1.5,1.5,2.4,3.1h0Z"/>
  <path class="cls-3" d="M965.2,590.4"/>
  <path class="cls-3" d="M984.9,584.5"/>
  <path class="cls-1" d="M969.8,447.1c12.7-1.6-2.5,149.7-2.5,149.7h-11.6s22.9-161.6,12.1-145.4l2-4.3h0Z"/>
  <path class="cls-5" d="M971,476c-2.3,7.6-4.9,11.2-6.3,10.3s-1.3-9.4,0-14.6c3.2-12.7,7.9-20.8,7.9-20.8,0,0,1.3,15.4-1.6,25.2h0Z"/>
  <path class="cls-5" d="M965.2,468.4c7.8-10.6,7.7-23.7,7.7-23.7,0,0-10.1,14.3-14.4,20.6-4.2,6.3-5.8,11.2-4.4,12.2,1.1.8,7.7-4.3,11.2-9.1h0Z"/>
  <path class="cls-5" d="M959.9,465.1c1.8-13,11-22.4,11-22.4,0,0-2.7,17.3-4,24.8-1.3,7.5-3.7,12.1-5.3,11.9-1.4-.2-2.5-8.4-1.7-14.3h0Z"/>
  <path class="cls-5" d="M975.1,461.6c-4.7-7.1-4.2-15.5-4.2-15.5,0,0,6.1,9.5,8.6,13.7,2.5,4.2,3.3,7.4,2.5,8-.7.5-4.8-3-6.9-6.2h0Z"/>
  <path class="cls-5" d="M970.9,443c5.2,2.6,7.8,7.7,7.8,7.7,0,0-6.9-3.5-9.8-5.1s-4.5-3.2-4.2-3.9c.3-.5,3.9.1,6.2,1.3h0Z"/>
  <path class="cls-5" d="M969.1,444.6s9.1,22,13.3,27.7c4.3,5.7,5.5,7.8,7.4,6.1s-2.1-13.7-4.5-18.8c-2.4-5.1-8.1-12.5-16.2-15.1h0Z"/>
  <path class="cls-5" d="M971.7,446.1s2.1,23.2,4.7,33.9c2.6,10.7,7.8,18.3,9.8,17.3,2.1-.9,1.5-18.2.2-23.7-1.1-5-3.3-17.5-14.7-27.5h0Z"/>
  <path class="cls-5" d="M970.6,443.1c-2.7,4.8-3.6,10.3-3.6,10.3,0,0,3.5-6.5,5-9.3s2.2-5,2-5.3c-.2-.3-2.1,2.1-3.3,4.3h0Z"/>
  <path class="cls-3" d="M936.5,588.1"/>
  <path class="cls-3" d="M541.1,590.4"/>
  <path class="cls-1" d="M526.1,454.6l-2,4.2c10.7-16-12,143.7-12,143.7h11.5s15-149.5,2.5-147.9h0Z"/>
  <path class="cls-4" d="M529.2,454.6s-9,2.2-20.2,8.7c-4.7,2.7-10.7,8.4-10.4,10s4.7,1,11.6-2.6c8.9-4.6,19-16.1,19-16.1Z"/>
  <path class="cls-4" d="M521.6,475.6c-3.5,4.7-10,9.8-11,9-1.3-1,.2-5.9,4.4-12.1,4.2-6.2,14.2-20.3,14.2-20.3,0,0,.1,13-7.6,23.5h0Z"/>
  <path class="cls-4" d="M511.9,451c-5.8.5-13.5,3.4-13.4,4.7.2,1.6,5.1,2.9,12.6,2.6,7.5-.3,24.8-1.5,24.8-1.5,0,0-11-6.9-24-5.8h0Z"/>
  <path class="cls-4" d="M531.4,469c2.1,3.1,6.1,6.6,6.8,6.1.9-.6,0-3.8-2.4-7.9-2.5-4.1-8.5-13.6-8.5-13.6,0,0-.5,8.4,4.1,15.4h0Z"/>
  <path class="cls-4" d="M522.8,447.8c-2.3-1.1-5.9-1.8-6.1-1.3-.3.7,1.3,2.2,4.2,3.8s9.7,5.1,9.7,5.1c0,0-2.6-5.1-7.7-7.6h0Z"/>
  <path class="cls-4" d="M523.6,456.3c6-5.9,15.1-7.5,20.7-7.2,5.6.3,17.8,2.4,18.5,4.8s-1.8,2.5-8.8,3.6c-6.9,1.1-30.4-1.2-30.4-1.2h0Z"/>
  <path class="cls-4" d="M523.6,454.6c14.9-.6,25,6.9,29.2,9.7,4.7,3.1,16.9,15.1,16,17.2-.8,2.1-9.7.2-18.8-5.7-9.1-5.9-26.4-21.1-26.4-21.1h0Z"/>
  <path class="cls-4" d="M533.1,447c2.3-1.1,5.9-1.8,6.1-1.3.3.7-1.3,2.2-4.2,3.8s-9.7,5.1-9.7,5.1c0,0,2.6-5.1,7.7-7.6h0Z"/>
  <path class="cls-3" d="M747.6,593.9"/>
  <path class="cls-1" d="M758.2,497.3l1.4,3c-7.6-11.4,8.5,102.3,8.5,102.3h-8.2s-10.7-106.4-1.7-105.3h0Z"/>
  <path class="cls-4" d="M769.6,508.7c-6.3-3.3-13.5-11.5-13.5-11.5,0,0,6.4,1.6,14.4,6.2,3.3,1.9,7.6,6,7.4,7.1s-3.4.7-8.3-1.8h0Z"/>
  <path class="cls-4" d="M761.4,512.2c2.5,3.3,7.1,7,7.8,6.4.9-.7-.2-4.2-3.1-8.6-3-4.4-10.1-14.5-10.1-14.5,0,0,0,9.2,5.4,16.7h0Z"/>
  <path class="cls-4" d="M768.3,494.7c4.1.3,9.6,2.4,9.5,3.4-.1,1.2-3.6,2.1-9,1.8-5.3-.2-17.6-1.1-17.6-1.1,0,0,7.8-4.9,17.1-4.1h0Z"/>
  <path class="cls-4" d="M749.6,511.8c-.6-.4,0-2.7,1.7-5.6,1.8-2.9,6-9.7,6-9.7,0,0,.4,5.9-2.9,10.9-1.5,2.2-4.3,4.7-4.8,4.4Z"/>
  <path class="cls-4" d="M760.6,492.4c1.6-.8,4.2-1.3,4.3-.9.2.5-.9,1.6-3,2.7-2.1,1.1-6.9,3.6-6.9,3.6,0,0,1.8-3.6,5.5-5.4h0Z"/>
  <path class="cls-4" d="M760,498.5c-4.3-4.2-10.7-5.3-14.7-5.1-4,.2-12.7,1.7-13.1,3.4-.5,1.7,1.3,1.8,6.2,2.6,4.9.8,21.6-.8,21.6-.8h0Z"/>
  <path class="cls-4" d="M739.2,504.2c-3.4,2.2-12,10.7-11.4,12.2.6,1.5,6.9.1,13.4-4.1,6.5-4.2,18.8-15,18.8-15-10.6-.4-17.8,4.9-20.8,6.9Z"/>
  <path class="cls-4" d="M753.3,491.8c-1.6-.8-4.2-1.3-4.3-.9-.2.5.9,1.6,3,2.7,2.1,1.1,6.9,3.6,6.9,3.6,0,0-1.8-3.6-5.5-5.4h0Z"/>
  <path class="cls-3" d="M493.3,593.9"/>
  <path class="cls-1" d="M503.9,497.3l1.4,3c-7.6-11.4,8.5,102.3,8.5,102.3h-8.2s-10.7-106.4-1.7-105.3h0Z"/>
  <path class="cls-4" d="M515.3,508.7c-6.3-3.3-13.5-11.5-13.5-11.5,0,0,6.4,1.6,14.4,6.2,3.3,1.9,7.6,6,7.4,7.1s-3.4.7-8.3-1.8h0Z"/>
  <path class="cls-4" d="M507.1,512.2c2.5,3.3,7.1,7,7.8,6.4.9-.7-.2-4.2-3.1-8.6-3-4.4-10.1-14.5-10.1-14.5,0,0,0,9.2,5.4,16.7h0Z"/>
  <path class="cls-4" d="M514,494.7c4.1.3,9.6,2.4,9.5,3.4-.1,1.2-3.6,2.1-9,1.8-5.3-.2-17.6-1.1-17.6-1.1,0,0,7.8-4.9,17.1-4.1h0Z"/>
  <path class="cls-4" d="M500.1,507.5c-1.5,2.2-4.3,4.7-4.8,4.4-.6-.4,0-2.7,1.7-5.6,1.8-2.9,6-9.7,6-9.7,0,0,.4,5.9-2.9,10.9h0Z"/>
  <path class="cls-4" d="M506.2,492.4c1.6-.8,4.2-1.3,4.3-.9.2.5-.9,1.6-3,2.7-2.1,1.1-6.9,3.6-6.9,3.6,0,0,1.8-3.6,5.5-5.4h0Z"/>
  <path class="cls-4" d="M505.7,498.5c-4.3-4.2-10.7-5.3-14.7-5.1-4,.2-12.7,1.7-13.1,3.4-.5,1.7,1.3,1.8,6.2,2.6,4.9.8,21.6-.8,21.6-.8h0Z"/>
  <path class="cls-4" d="M484.9,504.2c-3.4,2.2-12,10.7-11.4,12.2.6,1.5,6.9.1,13.4-4.1,6.5-4.2,18.8-15,18.8-15-10.6-.4-17.8,4.9-20.8,6.9Z"/>
  <path class="cls-4" d="M499,491.8c-1.6-.8-4.2-1.3-4.3-.9-.2.5.9,1.6,3,2.7,2.1,1.1,6.9,3.6,6.9,3.6,0,0-1.8-3.6-5.5-5.4h0Z"/>
  <path class="cls-2" d="M1947.1,589.2"/>
  <path class="cls-2" d="M1958.7,464.3s0,0,0,0c-6.9,19.1,4.8,136.3,4.8,136.3h10.8s-20.5-118.7-15.5-136.2h0Z"/>
  <path class="cls-2" d="M1731.9,464.3s0,0,0,0c-6.9,19.1,4.8,136.3,4.8,136.3h10.8s-20.5-118.7-15.5-136.2h0Z"/>
  <path class="cls-2" d="M1992,592.4"/>
  <path class="cls-2" d="M1741.3,592"/>
  <path class="cls-2" d="M1752.5,489.8c-9.4-1.2,1.8,111.3,1.8,111.3h8.6s-17.1-120.2-9-108.2l-1.5-3.2h0Z"/>
  <path class="cls-2" d="M1748.6,500.6c3.5-5.3,3.1-11.6,3.1-11.6,0,0-4.5,7.1-6.4,10.2-1.9,3.1-2.5,5.5-1.8,6,.5.4,3.6-2.2,5.1-4.6h0Z"/>
  <path class="cls-2" d="M1754.4,495c-.5-4.3-3.4-7.4-3.4-7.4,0,0,.7,5.7,1.1,8.1.4,2.4,1.1,4,1.6,3.9.4,0,.9-2.7.7-4.6h0Z"/>
  <path class="cls-2" d="M1777.3,594.7"/>
  <path class="cls-2" d="M1797.8,588.6"/>
  <path class="cls-2" d="M1747.4,592.3"/>
  <path class="cls-2" d="M2000.3,587"/>
  <path class="cls-2" d="M1983.6,435.6c14-1.7-2.7,165-2.7,165h-12.8s25.3-178.1,13.3-160.3l2.2-4.7h0Z"/>
  <path class="cls-2" d="M1989.5,451.6c-5.1-7.8-4.6-17.1-4.6-17.1,0,0,6.7,10.5,9.5,15.1,2.8,4.6,3.7,8.2,2.7,8.8-.8.6-5.3-3.3-7.6-6.8h0Z"/>
  <path class="cls-2" d="M1980.9,443.3c.7-6.3,5.1-11,5.1-11,0,0-1.1,8.4-1.6,12s-1.6,5.9-2.4,5.8c-.7,0-1.3-4-1-6.9h0Z"/>
  <path class="cls-2" d="M1946.9,590.9"/>
  <path class="cls-2" d="M1916.5,581.9"/>
  <path class="cls-2" d="M1991.2,587.4"/>
  <path class="cls-3" d="M2398.3,579.7"/>
  <path class="cls-1" d="M2413.2,443.9c-12.5-1.6,2.5,147.9,2.5,147.9h11.5s-22.7-159.7-12-143.7l-2-4.2h0Z"/>
  <path class="cls-4" d="M2429.2,460c6.9,3.6,11.4,4.2,11.6,2.6s-5.8-7.4-10.4-10c-11.3-6.4-20.2-8.7-20.2-8.7,0,0,10.1,11.5,19,16.1Z"/>
  <path class="cls-4" d="M2417.7,464.9c-7.7-10.5-7.6-23.5-7.6-23.5,0,0,10,14.1,14.2,20.3,4.2,6.2,5.7,11.1,4.4,12.1-1.1.8-7.6-4.2-11-9h0Z"/>
  <path class="cls-4" d="M2427.4,440.3c-13-1.1-24,5.8-24,5.8,0,0,17.3,1.2,24.8,1.5,7.5.3,12.4-.9,12.6-2.6.1-1.3-7.6-4.2-13.4-4.7h0Z"/>
  <path class="cls-4" d="M2407.9,458.2c4.6-7,4.1-15.4,4.1-15.4,0,0-6,9.4-8.5,13.6-2.5,4.1-3.3,7.3-2.4,7.9.7.5,4.7-3,6.8-6.1h0Z"/>
  <path class="cls-4" d="M2416.5,437.1c-5.1,2.5-7.7,7.6-7.7,7.6,0,0,6.8-3.5,9.7-5.1s4.5-3.2,4.2-3.8c-.3-.5-3.8.1-6.1,1.3h0Z"/>
  <path class="cls-4" d="M2415.7,445.6s-23.4,2.3-30.4,1.2c-6.9-1.1-9.4-1.2-8.8-3.6s12.9-4.5,18.5-4.8c5.6-.3,14.6,1.3,20.7,7.2h0Z"/>
  <path class="cls-4" d="M2415.7,443.9s-17.3,15.3-26.4,21.1c-9.1,5.9-18,7.8-18.8,5.7-.8-2.1,11.3-14,16-17.2,4.2-2.8,14.3-10.3,29.2-9.7h0Z"/>
  <path class="cls-4" d="M2406.3,436.3c5.1,2.5,7.7,7.6,7.7,7.6,0,0-6.8-3.5-9.7-5.1s-4.5-3.2-4.2-3.8c.3-.5,3.8.1,6.1,1.3h0Z"/>
  <path class="cls-3" d="M2191.8,583.2"/>
  <path class="cls-1" d="M2181.1,486.5c8.9-1.1-1.7,105.3-1.7,105.3h-8.2s16.1-113.7,8.5-102.3l1.4-3h0Z"/>
  <path class="cls-4" d="M2169.8,498c-4.9,2.6-8.1,3-8.3,1.8s4.1-5.2,7.4-7.1c8-4.6,14.4-6.2,14.4-6.2,0,0-7.2,8.2-13.5,11.5h0Z"/>
  <path class="cls-4" d="M2177.9,501.5c5.5-7.5,5.4-16.7,5.4-16.7,0,0-7.1,10.1-10.1,14.5-3,4.4-4,7.9-3.1,8.6.8.6,5.4-3,7.8-6.4h0Z"/>
  <path class="cls-4" d="M2171,484c9.2-.8,17.1,4.1,17.1,4.1,0,0-12.3.8-17.6,1.1-5.3.2-8.8-.7-9-1.8-.1-1,5.4-3,9.5-3.4h0Z"/>
  <path class="cls-4" d="M2184.9,496.7c-3.3-5-2.9-10.9-2.9-10.9,0,0,4.3,6.7,6,9.7,1.8,2.9,2.3,5.2,1.7,5.6-.5.4-3.4-2.1-4.8-4.4Z"/>
  <path class="cls-4" d="M2178.8,481.7c3.6,1.8,5.5,5.4,5.5,5.4,0,0-4.8-2.5-6.9-3.6-2.1-1.1-3.2-2.3-3-2.7.2-.4,2.7,0,4.3.9h0Z"/>
  <path class="cls-4" d="M2179.3,487.7s16.7,1.6,21.6.8c4.9-.8,6.7-.9,6.2-2.6-.5-1.7-9.2-3.2-13.1-3.4-4-.2-10.4.9-14.7,5.1h0Z"/>
  <path class="cls-4" d="M2179.3,486.6s12.3,10.9,18.8,15c6.5,4.2,12.8,5.6,13.4,4.1.6-1.5-8-10-11.4-12.2-3-2-10.2-7.3-20.8-6.9Z"/>
  <path class="cls-4" d="M2186.1,481.1c-3.6,1.8-5.5,5.4-5.5,5.4,0,0,4.8-2.5,6.9-3.6,2.1-1.1,3.2-2.3,3-2.7-.2-.4-2.7,0-4.3.9h0Z"/>
  <path class="cls-3" d="M2446.1,583.2"/>
  <path class="cls-1" d="M2435.4,486.5c8.9-1.1-1.7,105.3-1.7,105.3h-8.2s16.1-113.7,8.5-102.3l1.4-3h0Z"/>
  <path class="cls-4" d="M2424.1,498c-4.9,2.6-8.1,3-8.3,1.8s4.1-5.2,7.4-7.1c8-4.6,14.4-6.2,14.4-6.2,0,0-7.2,8.2-13.5,11.5h0Z"/>
  <path class="cls-4" d="M2432.2,501.5c5.5-7.5,5.4-16.7,5.4-16.7,0,0-7.1,10.1-10.1,14.5-3,4.4-4,7.9-3.1,8.6.8.6,5.4-3,7.8-6.4h0Z"/>
  <path class="cls-4" d="M2425.3,484c9.2-.8,17.1,4.1,17.1,4.1,0,0-12.3.8-17.6,1.1-5.3.2-8.8-.7-9-1.8-.1-1,5.4-3,9.5-3.4h0Z"/>
  <path class="cls-4" d="M2439.2,496.7c-3.3-5-2.9-10.9-2.9-10.9,0,0,4.3,6.7,6,9.7,1.8,2.9,2.3,5.2,1.7,5.6-.5.4-3.4-2.1-4.8-4.4h0Z"/>
  <path class="cls-4" d="M2433.1,481.7c3.6,1.8,5.5,5.4,5.5,5.4,0,0-4.8-2.5-6.9-3.6-2.1-1.1-3.2-2.3-3-2.7.2-.4,2.7,0,4.3.9h0Z"/>
  <path class="cls-4" d="M2433.6,487.7s16.7,1.6,21.6.8c4.9-.8,6.7-.9,6.2-2.6-.5-1.7-9.2-3.2-13.1-3.4-4-.2-10.4.9-14.7,5.1h0Z"/>
  <path class="cls-4" d="M2433.6,486.6s12.3,10.9,18.8,15c6.5,4.2,12.8,5.6,13.4,4.1.6-1.5-8-10-11.4-12.2-3-2-10.2-7.3-20.8-6.9Z"/>
  <path class="cls-4" d="M2440.4,481.1c-3.6,1.8-5.5,5.4-5.5,5.4,0,0,4.8-2.5,6.9-3.6,2.1-1.1,3.2-2.3,3-2.7-.2-.4-2.7,0-4.3.9h0Z"/>
</svg>