<?xml version="1.0" encoding="UTF-8"?>
<svg id="Layer_1" data-name="Layer 1" xmlns="http://www.w3.org/2000/svg" xmlns:xlink="http://www.w3.org/1999/xlink" version="1.1" viewBox="0 0 841.9 595.3">
  <defs>
    <style>
      .cls-1 {
        clip-path: url(#clippath);
      }

      .cls-2, .cls-3, .cls-4 {
        fill: none;
      }

      .cls-2, .cls-5, .cls-6 {
        stroke-width: 0px;
      }

      .cls-7 {
        fill: #d9bba0;
      }

      .cls-7, .cls-8, .cls-3, .cls-4, .cls-9 {
        stroke-miterlimit: 10;
      }

      .cls-7, .cls-8, .cls-9 {
        stroke: #7c5332;
      }

      .cls-7, .cls-9 {
        stroke-width: 7px;
      }

      .cls-8 {
        stroke-width: 6px;
      }

      .cls-8, .cls-5 {
        fill: #fff;
      }

      .cls-3 {
        stroke: #f20000;
        stroke-width: 4px;
      }

      .cls-4 {
        stroke: #000;
      }

      .cls-6 {
        fill: #d00000;
      }

      .cls-9 {
        fill: #f2d5bb;
      }
    </style>
    <clipPath id="clippath">
      <rect class="cls-2" x="123.1" y="224" width="523.8" height="12.9"/>
    </clipPath>
  </defs>
  <rect class="cls-7" x="63.5" y="198.8" width="725.8" height="237.5" rx="52.4" ry="52.4"/>
  <circle class="cls-9" cx="717.7" cy="268.8" r="38.5"/>
  <rect class="cls-5" x="113.5" y="224" width="537.5" height="12.2" rx="6.1" ry="6.1"/>
  <rect class="cls-5" x="113.5" y="239.5" width="537.5" height="12.2" rx="6.1" ry="6.1"/>
  <g class="cls-1">
    <g>
      <line class="cls-4" x1="123.6" y1="224" x2="123.6" y2="236.2"/>
      <line class="cls-4" x1="134.6" y1="224" x2="134.6" y2="236.2"/>
      <line class="cls-4" x1="145.6" y1="224" x2="145.6" y2="236.2"/>
      <line class="cls-4" x1="156.6" y1="224" x2="156.6" y2="236.2"/>
      <line class="cls-4" x1="167.6" y1="224" x2="167.6" y2="236.2"/>
      <line class="cls-4" x1="178.6" y1="224" x2="178.6" y2="236.2"/>
      <line class="cls-4" x1="189.6" y1="224" x2="189.6" y2="236.2"/>
      <line class="cls-4" x1="200.6" y1="224" x2="200.6" y2="236.2"/>
      <line class="cls-4" x1="211.6" y1="224" x2="211.6" y2="236.2"/>
      <line class="cls-4" x1="222.6" y1="224" x2="222.6" y2="236.2"/>
      <line class="cls-4" x1="233.6" y1="224" x2="233.6" y2="236.2"/>
      <line class="cls-4" x1="244.6" y1="224" x2="244.6" y2="236.2"/>
      <line class="cls-4" x1="255.6" y1="224" x2="255.6" y2="236.2"/>
      <line class="cls-4" x1="266.6" y1="224" x2="266.6" y2="236.2"/>
      <line class="cls-4" x1="277.6" y1="224" x2="277.6" y2="236.2"/>
      <line class="cls-4" x1="288.6" y1="224" x2="288.6" y2="236.2"/>
      <line class="cls-4" x1="299.6" y1="224" x2="299.6" y2="236.2"/>
      <line class="cls-4" x1="310.6" y1="224" x2="310.6" y2="236.2"/>
      <line class="cls-4" x1="321.6" y1="224" x2="321.6" y2="236.2"/>
      <line class="cls-4" x1="332.6" y1="224" x2="332.6" y2="236.2"/>
      <line class="cls-4" x1="343.6" y1="224" x2="343.6" y2="236.2"/>
      <line class="cls-4" x1="354.6" y1="224" x2="354.6" y2="236.2"/>
      <line class="cls-4" x1="365.6" y1="224" x2="365.6" y2="236.2"/>
      <line class="cls-4" x1="376.6" y1="224" x2="376.6" y2="236.2"/>
      <line class="cls-4" x1="387.6" y1="224" x2="387.6" y2="236.2"/>
      <line class="cls-4" x1="398.6" y1="224" x2="398.6" y2="236.2"/>
      <line class="cls-4" x1="409.6" y1="224" x2="409.6" y2="236.2"/>
      <line class="cls-4" x1="420.6" y1="224" x2="420.6" y2="236.2"/>
      <line class="cls-4" x1="431.6" y1="224" x2="431.6" y2="236.2"/>
      <line class="cls-4" x1="442.6" y1="224" x2="442.6" y2="236.2"/>
      <line class="cls-4" x1="453.6" y1="224" x2="453.6" y2="236.2"/>
      <line class="cls-4" x1="464.6" y1="224" x2="464.6" y2="236.2"/>
      <line class="cls-4" x1="475.6" y1="224" x2="475.6" y2="236.2"/>
      <line class="cls-4" x1="486.6" y1="224" x2="486.6" y2="236.2"/>
      <line class="cls-4" x1="497.6" y1="224" x2="497.6" y2="236.2"/>
      <line class="cls-4" x1="508.6" y1="224" x2="508.6" y2="236.2"/>
      <line class="cls-4" x1="519.6" y1="224" x2="519.6" y2="236.2"/>
      <line class="cls-4" x1="530.6" y1="224" x2="530.6" y2="236.2"/>
      <line class="cls-4" x1="541.6" y1="224" x2="541.6" y2="236.2"/>
      <line class="cls-4" x1="552.6" y1="224" x2="552.6" y2="236.2"/>
      <line class="cls-4" x1="563.6" y1="224" x2="563.6" y2="236.2"/>
      <line class="cls-4" x1="574.6" y1="224" x2="574.6" y2="236.2"/>
      <line class="cls-4" x1="585.6" y1="224" x2="585.6" y2="236.2"/>
      <line class="cls-4" x1="596.6" y1="224" x2="596.6" y2="236.2"/>
      <line class="cls-4" x1="607.6" y1="224" x2="607.6" y2="236.2"/>
      <line class="cls-4" x1="618.6" y1="224" x2="618.6" y2="236.2"/>
      <line class="cls-4" x1="629.6" y1="224" x2="629.6" y2="236.2"/>
      <line class="cls-4" x1="640.6" y1="224" x2="640.6" y2="236.2"/>
    </g>
  </g>
  <line class="cls-3" x1="260.1" y1="224" x2="260.1" y2="246.5"/>
  <rect class="cls-8" x="679.6" y="341.3" width="86.2" height="51.1" rx="25.6" ry="25.6"/>
  <g>
    <path class="cls-6" d="M692.1,361.5h5.3v2.2h-3.2v1.9h2.8v2.2h-2.8v3.7h-2v-10.1Z"/>
    <path class="cls-6" d="M698.7,361.5h2.1l.6,3.3.2,1.3h0l.2-1.3.6-3.3h2.1v10.1h-1.7v-2.4c0-1.2.2-3.9.3-5.1h0l-.7,3-.4,1.8h-.9l-.4-1.8-.6-3h0c0,1.2.3,3.9.3,5.1v2.4h-1.7v-10.1Z"/>
    <path class="cls-6" d="M713.1,369.4h2v-5.1h-1.7v-1.6c1.1-.2,1.6-.5,2.2-1h1.5v7.7h1.6v2.1h-5.6v-2.1Z"/>
    <path class="cls-6" d="M720,366.6c0-3.4,1.2-5.1,3-5.1s3,1.7,3,5.1-1.2,5.2-3,5.2-3-1.8-3-5.2ZM724.1,366.6c0-2.5-.5-3-1.2-3s-1.2.6-1.2,3,.5,3.1,1.2,3.1,1.2-.7,1.2-3.1ZM722,366.6c0-.7.4-1.2.9-1.2s.9.5.9,1.2-.4,1.2-.9,1.2-.9-.5-.9-1.2Z"/>
    <path class="cls-6" d="M727,370.4l.9-1.7c.5.6,1.1.9,1.7.9s1.3-.3,1.3-.9-.4-1.2-2.1-1.2v-1.9c1.4,0,1.8-.4,1.8-1.1s-.4-.9-.9-.9-1,.3-1.5.8l-1-1.6c.8-.8,1.6-1.3,2.6-1.3,1.7,0,2.9,1,2.9,2.8s-.5,1.7-1.4,2.1h0c.9.4,1.6,1.2,1.6,2.4,0,1.9-1.5,2.9-3.1,2.9s-2.3-.5-2.8-1.4Z"/>
    <path class="cls-6" d="M735.7,369.7c0-1.1.6-2,1.5-2s1.5.9,1.5,2-.6,2-1.5,2-1.5-.9-1.5-2Z"/>
    <path class="cls-6" d="M745,364h-3.6v-2.2h5.7v1.6c-1.9,2.7-2.1,4.4-2.3,8.2h-2c.2-3.1.6-5.1,2.1-7.6Z"/>
    <path class="cls-6" d="M748.5,366.6c0-3.4,1.2-5.1,3-5.1s3,1.7,3,5.1-1.2,5.2-3,5.2-3-1.8-3-5.2ZM752.6,366.6c0-2.5-.5-3-1.2-3s-1.2.6-1.2,3,.5,3.1,1.2,3.1,1.2-.7,1.2-3.1ZM750.5,366.6c0-.7.4-1.2.9-1.2s.9.5.9,1.2-.4,1.2-.9,1.2-.9-.5-.9-1.2Z"/>
  </g>
</svg>