<?xml version="1.0" encoding="UTF-8"?>
<svg id="Layer_1" data-name="Layer 1" xmlns="http://www.w3.org/2000/svg" xmlns:ns0="http://www.w3.org/2000/svg" version="1.1" viewBox="0 0 5376 3584">
  <defs>
    <style>
      .cls-1 {
        fill: #baaead;
      }

      .cls-1, .cls-2, .cls-3, .cls-4, .cls-5, .cls-6, .cls-7, .cls-8, .cls-9, .cls-10, .cls-11, .cls-12, .cls-13, .cls-14, .cls-15, .cls-16, .cls-17, .cls-18, .cls-19, .cls-20, .cls-21, .cls-22, .cls-23, .cls-24, .cls-25, .cls-26, .cls-27, .cls-28, .cls-29, .cls-30, .cls-31, .cls-32, .cls-33, .cls-34, .cls-35, .cls-36, .cls-37 {
        stroke-width: 0px;
      }

      .cls-2 {
        fill: #986d4e;
      }

      .cls-3 {
        fill: #a59998;
      }

      .cls-4 {
        fill: #7a5341;
      }

      .cls-5 {
        fill: #f1f7f0;
      }

      .cls-6 {
        fill: #562d0c;
      }

      .cls-7 {
        fill: #dad8d7;
      }

      .cls-8 {
        fill: #ccddd5;
      }

      .cls-9 {
        fill: #67686c;
      }

      .cls-10 {
        fill: #9a4232;
      }

      .cls-11 {
        fill: #b88a67;
      }

      .cls-12 {
        fill: #b05c20;
      }

      .cls-13 {
        fill: #4f4b4e;
      }

      .cls-14 {
        fill: #4b1e19;
      }

      .cls-15 {
        fill: #f9efe1;
      }

      .cls-16 {
        fill: #9e5428;
      }

      .cls-17 {
        fill: #ff2606;
      }

      .cls-18 {
        fill: #f2a24e;
      }

      .cls-19 {
        fill: #fc6c41;
      }

      .cls-20 {
        fill: #574f4c;
      }

      .cls-21 {
        fill: #5ca29e;
      }

      .cls-22 {
        fill: #b23019;
      }

      .cls-23 {
        fill: #254a46;
      }

      .cls-24 {
        fill: #e5b178;
      }

      .cls-25 {
        fill: #6e3826;
      }

      .cls-26 {
        fill: #276861;
      }

      .cls-27 {
        fill: #efca9d;
      }

      .cls-28 {
        fill: #bb8055;
      }

      .cls-29 {
        fill: #837063;
      }

      .cls-30 {
        fill: #d7b28b;
      }

      .cls-31 {
        fill: #da1301;
      }

      .cls-32 {
        fill: #9d7e62;
      }

      .cls-33 {
        fill: #e8bf89;
      }

      .cls-34 {
        fill: #1f1920;
      }

      .cls-35 {
        fill: #dfd4d3;
      }

      .cls-36 {
        fill: #f1dfce;
      }

      .cls-37 {
        fill: #d9c6b8;
      }
    </style>
  </defs>
  <path class="cls-26" d="M2770,886.2v3.6c0,1.4-.7,2.3-1.9,2.7-57.9,20.2-116.6,37.8-176.1,52.8l-347.1-49c-1.3-.2-2.6,0-3.9.4-3.5,1.4-5.9.3-7-3.2,65.3-14.3,130.7-28.2,196-41.7,8.6-1.8,17.4-2.2,26.2-1.3,104.7,10.9,209.3,22.8,313.8,35.8Z"/>
  <path class="cls-23" d="M2770,886.2c2.5-.3,5-.2,7.5.5,1.2.3,2,1.1,2.5,2.2l17.3,42.1c.6,1.5.1,2.5-1.3,3.1l-20,8c-1.3.5-2.3,1.8-2.4,3.2l-10.5,140.7-1,12-7,79c-4.1,38.6-7.2,77.2-9.3,115.9-.2,3.7,1.3,5.5,2.1,8.9-12.1-8.3-28.4-13.9-49-16.8-42.9-6-81.7-.9-116.3,15.2l-.6-274c0-1.4-.7-2.3-2.1-2.5-111.7-18.1-223.5-34.7-335.5-49.7l-1.5-16.9,338,49.3c1.4.2,2.2-.4,2.4-1.8.5-3.5,2.8-29.8,6.4-29.6,1.1,0,1.5.6,1.4,1.7-1,5.8-5.6,40.3,11.4,29.8,1.2-.7,1.6-1.8,1.3-3.2-4.8-19.4-13-38-11.9-58.2,59.5-15,118.2-32.5,176.1-52.8,1.3-.4,1.9-1.3,1.9-2.7v-3.6Z"/>
  <path class="cls-21" d="M2234,893.4c1.2,3.5,3.5,4.6,7,3.2,1.3-.5,2.5-.6,3.9-.4l347.1,49c-1.1,20.2,7.1,38.8,11.9,58.2.3,1.4,0,2.4-1.3,3.2-17,10.5-12.4-24-11.4-29.8.2-1.1-.3-1.7-1.4-1.7-3.6-.1-5.8,26.1-6.4,29.6-.2,1.4-1,2-2.4,1.8l-338-49.3c-9.5-3.2-19.5-5.1-29.9-5.6-1.6,0-2.1-.9-1.7-2.4,2.7-9.2,14.6-54.4,22.6-55.8Z"/>
  <path class="cls-18" d="M3078,963.8c-5.1,4.2-11.3,11-18.8,20.4-57.2,72.3-114,144.9-170.4,217.8-10.3-4.3-17.8-11.8-22.5-22.5l84.6-98.3c5.8-3.8,10.1-8.9,12.8-15.2,26.7-32.3,53.5-64.6,80.5-96.7,10.2-12.2,20.6-14.7,33.7-5.5Z"/>
  <path class="cls-12" d="M3078,963.8c12.1,5.3,20.1,14.3,24,27-7.2,5.6-16.6,13.7-15.8,23.8.2,3.8.8,7.5,1.8,11.1l-48.1,68.2-12.8,15.8c-34.5,48.3-70.5,95.4-108,141.3-7.6-11.4-28-37-30.2-49.2,56.4-72.9,113.2-145.5,170.4-217.8,7.4-9.4,13.7-16.2,18.8-20.4Z"/>
  <path class="cls-21" d="M2582.6,1300.3c-2.2,4.5-3.4,9-3.6,13.6l-1.4,10.2c-.2,1.4-.9,2.4-2.2,2.9-15.8,6.8-24.8,9.7-29.2,28.3-2.6,11.2-5.1,22.4-7.3,33.7l-263.4-23.2-10.5-143.4-4.9-54.5-15.5-193.8c112,15,223.8,31.5,335.5,49.7,1.4.2,2.1,1,2.1,2.5l.6,274Z"/>
  <path class="cls-12" d="M3223,1279.8c-12,3.8-24.3,5.9-36.8,6.2-1.9-3.5-3.1-5.8-3.3-7-27.1-130.8-47-223.8-59.5-279.1-.6-2.9-2.8-6.5-6.4-10.8,10.6-3,21.3-3.5,32.1-1.5,1.4.3,2.3,1.1,2.7,2.5,25.7,96.1,49.4,192.6,71.2,289.7Z"/>
  <path class="cls-18" d="M3117,989.2c3.6,4.3,5.7,7.9,6.4,10.8,12.5,55.3,32.3,148.3,59.5,279.1.3,1.1,1.4,3.5,3.3,7-11.7,5.9-24.2,8.9-37.3,9-.5-9.7-2.5-19-6-28-2.7-19.1-7-37.8-12.8-56.2l-11-46-31-139.1c-1-3.6-1.6-7.3-1.8-11.1-.7-10.1,8.6-18.2,15.8-23.8l15-1.7Z"/>
  <path class="cls-5" d="M3088,1025.8l31,139.1c-27.8-22.1-54.2-45.7-79.2-70.8l48.1-68.2Z"/>
  <path class="cls-11" d="M2963.8,1066c-2.8,6.3-7.1,11.3-12.8,15.2l-188.8,16.8,1-12c58.5-6.3,117-12.1,175.6-17.2,8.8-.8,15.6-1,20.2-.6,1.3.1,2.5-.3,3.5-1.1l1.4-1.1Z"/>
  <path class="cls-27" d="M2951,1081.2l-84.6,98.3c-37-7.1-74.1-7.9-111.2-2.5l7-79,188.8-16.8Z"/>
  <path class="cls-11" d="M3039.8,1094c25,25.2,51.4,48.8,79.2,70.8l11,46-6,1c-.8-1.7-2.1-2.8-3.9-3.2-1.3-.3-2.4-1-3.3-2l-89.8-96.8,12.8-15.8Z"/>
  <path class="cls-27" d="M3027,1109.8l89.8,96.8c.9,1,2,1.6,3.3,2,1.8.5,3.1,1.5,3.9,3.2l-218,56,13-16.7c37.5-45.9,73.5-93.1,108-141.3Z"/>
  <path class="cls-11" d="M2260,1167.8l4.9,54.5-77.5,20.1c-1.4.4-2.1,1.3-2.1,2.8l2.7,113.6-48-4-1-36c0-14.9,0-29.9-.2-44.8-.2-13.5,26.7-61.7,38.8-67.7,27.2-13.5,54.7-26.4,82.5-38.4Z"/>
  <path class="cls-32" d="M2866.4,1179.5c4.6,10.7,12.1,18.2,22.5,22.5,2.1,12.2,22.5,37.7,30.2,49.2l-13,16.7-38.2,11.7c-1.2.4-2.2,1.1-3,2.1l-1,1.4c-31.3,8.2-64.9,13.9-100.8,17-4.2.4-7.9,2.4-11,6.2l-4-4.3c-.8-3.4-2.3-5.2-2.1-8.9,2.1-38.7,5.2-77.4,9.3-115.9,37.1-5.4,74.2-4.6,111.2,2.5Z"/>
  <path class="cls-2" d="M3130,1210.8c5.8,18.3,10.1,37.1,12.8,56.2-85.4,24.7-171.3,47.7-257.6,68.8-1.3.3-2.2-.2-2.5-1.5-4.7-17.7-11-34.7-18.9-51.3l1-1.4c.7-1,1.7-1.7,3-2.1l38.2-11.7,218-56,6-1Z"/>
  <path class="cls-4" d="M2264.9,1222.4l10.5,143.4-87.4-7-2.7-113.6c0-1.5.7-2.4,2.1-2.8l77.5-20.1Z"/>
  <path class="cls-4" d="M3142.8,1267c3.5,9,5.5,18.3,6,28-33.6,12.4-65.3,28.7-95.1,48.8-10.8,7.3-17.1,20-22.9,27.1-8.2,10.1-16.1,20.5-23.6,31.1-.9,1.2-1.3,2.5-1.3,4v7.8c0,1.5.7,2.5,2.2,3l6.8,2c-33.1-4.3-66.6-6.5-100.3-6.6-1.9,0-2.9.9-2.9,2.8l-3.4,141.4c0,1.1.5,1.7,1.6,1.8l347.2,30.5c1.3.1,2.1-.5,2.4-1.8l25.4-142.7,59,7.9,7,.7,113,19.3,24,7-36,185-1.2,1.8-2.8,1.2c-13.6-2-63.6,33.4-76.9,42.1-22.7,14.7-45.4,29.7-68.1,44.9l-45.5-14.5c-3.3-1-6.9.4-8.6,3.4l-4.1,7.2c-1.3,2.2-2.4,2.2-3.4-.2l-3.3-8c-.5-1.1-1.3-1.9-2.5-2.2l-14.5-3.8c-1.7-1-3.4-2.2-5.6-2.4-88.1-7.8-176.2-15-264.4-21.5l-32-7.1-42-3c-1.6-.1-3,1-3.2,2.6l-3.2,26.8c-.2,1.3.4,2,1.8,2.1l30.6,1.5-108,155.3c-1.2,1.7-1.3,3.5-.3,5.4l21.3,39c-14,3.1-27.1,7.9-39.2,14.3l-11.8,1.7c.3-5.4-10.8-1-13.3-.2-1.3.4-2.5.1-3.5-.7-9.9-7.6-20.9-12.6-33.2-14.8-10.4-2-16.4-13.4-24.9-18.6-1.2-.7-2.5-1.1-3.8-1l-31.2.7c1.3-19.9,2-32.6,2-38.2v-477.8l1-1,100.6-24.4c1.6-.4,2.2-1.4,1.8-3l-5.4-24.7c-.5-2.3-2.8-3.8-5.1-3.2,0,0-.1,0-.2,0-7.8,2.1-11,7.1-9.6,15.2.2,1.4-.1,2.6-1,3.8-9.2,12.2-20.6-3.6-25.7-10.4-3.5-4.7-10.2-7.4-20-8-1.7-.1-2.3-1-1.8-2.6l.5-1.4c.3-.9.9-1.2,1.8-.9l10.3,3.5c1.4.5,2.9.6,4.4.2l31.7-7.9c1.2-.3,1.9-1,2.3-2.2l1.2-4c13.9,1.7,10.7-14.2,8-23,3.1-3.7,6.8-5.8,11-6.2,35.9-3.1,69.5-8.8,100.8-17,7.8,16.5,14.1,33.6,18.9,51.3.3,1.3,1.2,1.8,2.5,1.5,86.3-21.1,172.2-44.1,257.6-68.8ZM2892.2,1660.9c-.1.7.3,1.3,1,1.4,0,0,0,0,.1,0l350.9,29c.6,0,1.2-.4,1.3-1l11.8-65.4c.1-.7-.3-1.3-1-1.5,0,0,0,0-.1,0l-352.9-29.8c-.7,0-1.2.4-1.3,1.1l-9.8,66.1Z"/>
  <path class="cls-9" d="M3488,1479.2l-24-7c27.1-153.5-121.3-187.9-236-175l-30,4c-10.5,0-17.8,1-22,2.8-11,4.8-23.4,5.8-33.3,9.9-33.9,14-70.3,33.8-90.4,60.4-.2.2-26.9,36.4-26.2,45.6l-11-1-6.8-2c-1.5-.5-2.2-1.5-2.2-3v-7.8c0-1.5.4-2.8,1.3-4,7.5-10.6,15.4-21,23.6-31.1,5.8-7.2,12-19.8,22.9-27.1,29.8-20.1,61.5-36.3,95.1-48.8,13.1-.1,25.6-3.1,37.3-9,12.6-.3,24.9-2.3,36.8-6.2,1,.8,2.9,1.6,4.2,1.4,40.4-4.6,80.5-3.1,120.4,4.4,90.2,17.1,165.2,98.2,140.4,193.4ZM3249.8,1288.2c6.6.7,57,5.8,58.8,2.7.7-1.3.4-1.9-1.1-1.9-11,0-85.4-9-82.3.8.5,1.4,1.4,1.9,2.8,1.6,10.7-2.5,18-3.6,21.8-3.2Z"/>
  <path class="cls-5" d="M2748,1301.8l4,4.3c2.7,8.8,5.9,24.7-8,23-9.2.5-18.2-.6-27-3.2-37.6-2.7-75.3-3.3-113-1.9h-11.9c-3.6-4.4-8-7.8-13.2-10.2.2-4.6,1.5-9.1,3.6-13.6,34.7-16.2,73.4-21.2,116.3-15.2,20.6,2.9,37,8.5,49,16.8Z"/>
  <path class="cls-3" d="M3249.8,1288.2c-3.8-.4-11.1.7-21.8,3.2-1.4.3-2.3-.2-2.8-1.6-3.1-9.8,71.3-.9,82.3-.8,1.5,0,1.8.7,1.1,1.9-1.9,3-52.3-2-58.8-2.7Z"/>
  <path class="cls-5" d="M3464,1472.2l-113-19.3c3.9-14.6.4-23.5-12.4-32.2-35.6-24.2-68.4-51.7-98.4-82.6l-4.2-6.2c-.5-12.1-3.2-23.6-8-34.7,114.7-12.9,263.1,21.5,236,175Z"/>
  <path class="cls-12" d="M3228,1297.2c4.8,11.1,7.5,22.6,8,34.7-6.7.8-9.8,4.3-9.1,10.6.2,1.5-.3,2.7-1.4,3.7l-16.3,15.6c-1.1,1.1-2.5,1.5-4,1.2-6.2-1.3-32.5,10.7-38.2,12.9l1-4.7,29.3-11c1.5-.6,2-1.6,1.5-3.2-5.5-16.6-9.4-33.4-11.9-50.5l11.2-5.3,30-4Z"/>
  <path class="cls-4" d="M3198,1301.2l-11.2,5.3-28.9,7.8c-1.5.4-2.2,1.4-2,3,1.7,18.5,5.8,36.5,12.1,54l-1,4.7c-14.3,13.9-23.7,30.6-28.2,50.2l-.8,1.6c-.5,1-1.3,1.4-2.4,1.3l-109.6-9c-.6-9.2,26.1-45.4,26.2-45.6,20.2-26.5,56.6-46.4,90.4-60.4,9.9-4.1,22.3-5.1,33.3-9.9,4.2-1.8,11.5-2.7,22-2.8Z"/>
  <path class="cls-18" d="M3186.8,1306.4c2.5,17.1,6.5,33.9,11.9,50.5.5,1.5,0,2.6-1.5,3.2l-29.3,11c-6.3-17.5-10.4-35.5-12.1-54-.2-1.6.5-2.6,2-3l28.9-7.8Z"/>
  <path class="cls-1" d="M2579,1313.8c5.1,2.4,9.5,5.8,13.2,10.2,2.6,5.1,8,8.7,16,10.8,12.5,3.3,26,10.3,40.5,21.1,1,.8,1.7,1.8,2.1,3,1.2,4.1,2.3,8.1,3.4,12,2.4,8.8,0,18.4,3.9,28.2l-1,1c-3.4-1.4-6.4-2.2-9-2.2-22.8-.1-45.5-1.8-68-5.2l-.2-43.3c0-4.4-2.2-6.2-6.6-5.5-14,2.4-9.8,30.4-7.3,39,.3,1.1.3,2.3,0,3.5l-1,3c-.2.7,0,1.4.5,1.9l1.5,1.4c-9.6.5-19-.8-28.2-3.8,2.3-11.3,4.7-22.5,7.3-33.7,4.4-18.6,13.4-21.6,29.2-28.3,1.3-.6,2.1-1.5,2.2-2.9l1.4-10.2Z"/>
  <path class="cls-4" d="M2139,1318.8l1,36-111.1-8.7c-.6,0-.9-.3-.9-1v-1l111-25.3Z"/>
  <path class="cls-37" d="M2604.1,1324c33,9.1,80.3,14,113,1.9,8.7,2.6,17.7,3.7,27,3.2l-1.2,4c-.4,1.1-1.1,1.9-2.3,2.2l-31.7,7.9c-1.5.4-3,.3-4.4-.2l-10.3-3.5c-.9-.3-1.5,0-1.8.9l-.5,1.4c-.5,1.6,0,2.5,1.8,2.6,9.8.7,16.5,3.3,20,8,5.1,6.8,16.5,22.6,25.7,10.4.9-1.1,1.2-2.4,1-3.8-1.3-8.1,1.9-13.2,9.6-15.2,2.3-.6,4.6.7,5.2,3,0,0,0,.1,0,.2l5.4,24.7c.4,1.6-.2,2.6-1.8,3l-100.6,24.4c-3.9-9.7-1.5-19.4-3.9-28.2-1.1-3.9-2.2-7.9-3.4-12-.4-1.3-1.1-2.3-2.1-3-14.5-10.8-27.9-17.8-40.5-21.1-8-2.1-13.3-5.7-16-10.8h11.9Z"/>
  <path class="cls-2" d="M2717,1325.9c-32.6,12.1-80,7.2-113-1.9,37.7-1.4,75.4-.8,113,1.9Z"/>
  <path class="cls-18" d="M3236,1331.8l4.2,6.2c6,19.9,49.8,54.5,66.2,69.4,10.5,9.5,22.6,13.8,35.2,19.8,4.4,2.1,7.1,6.9,6.5,11.8l-1.4,11.6c-.1,1-.6,1.5-1.6,1.6h-1c0,0-59-7.8-59-7.8-43.7-4-87.4-9-131.1-15-5-.7-11.3,2.2-15-3.2,4.5-19.6,13.8-36.3,28.2-50.2,5.8-2.2,32.1-14.2,38.2-12.9,1.5.3,2.9,0,4-1.2l16.3-15.6c1.1-1,1.5-2.3,1.4-3.7-.7-6.3,2.4-9.8,9.1-10.6Z"/>
  <path class="cls-2" d="M3240.2,1338c30,30.9,62.8,58.5,98.4,82.6,12.8,8.7,16.3,17.6,12.4,32.2l-7-.7h1c1-.2,1.5-.7,1.6-1.6l1.4-11.6c.6-4.9-2-9.6-6.5-11.8-12.6-6-24.7-10.3-35.2-19.8-16.4-14.9-60.2-49.5-66.2-69.4Z"/>
  <path class="cls-9" d="M2580,1392.8h-13l-1.5-1.4c-.6-.5-.8-1.2-.5-1.9l1-3c.4-1.2.4-2.3,0-3.5-2.5-8.6-6.7-36.6,7.3-39,4.3-.7,6.5,1.1,6.6,5.5l.2,43.3Z"/>
  <path class="cls-28" d="M2028,1344.2v1c0,.6.3.9.9,1l111.1,8.7,48,4,87.4,7,263.4,23.2c9.1,3,18.5,4.3,28.2,3.8h13c22.5,3.3,45.2,5.1,68,5.2,2.6,0,5.6.7,9,2.2v477.8c0,5.5-.7,18.3-2,38.2-14.2-8.3-29.2-12.6-45.2-12.8-45.2-.8-86.1-4.4-131.4,3.2-9.5,1.6-22.2-2.1-22.5,13.9,0,1.4.5,2.5,1.5,3.4,9.5,8.6,9.3,17.9-.6,28.1-18.8-4.9-33.9-18.8-49.8-29.2l-9-14.2c-1-1.6-3-2.3-4.8-1.7-95.3,32.5-181,81.6-257.2,147.2l-32.4-43.3c-7.3-11.9-17.8-20.5-31.5-25.9-7.3-6-40.6-2.6-51.2-2.2l-.2-197.8v-436.7c.1-1.4.8-2.5,2-3.1,1.5-.8,3.2-1.1,5.1-1Z"/>
  <path class="cls-28" d="M3015,1418.8l11,1,109.6,9c1.1.1,1.9-.3,2.4-1.3l.8-1.6c3.8,5.4,10.1,2.6,15,3.2,43.7,6,87.3,11,131.1,15l-25.4,142.7c-.2,1.3-1,1.9-2.4,1.8l-347.2-30.5c-1.1-.1-1.6-.7-1.6-1.8l3.4-141.4c0-1.9,1-2.8,2.9-2.8,33.7.1,67.2,2.3,100.3,6.6Z"/>
  <path class="cls-28" d="M2892.2,1660.9l9.8-66.1c0-.7.7-1.1,1.3-1.1l352.9,29.8c.7,0,1.2.6,1.1,1.3,0,0,0,0,0,.1l-11.8,65.4c-.1.6-.7,1.1-1.3,1l-350.9-29c-.7,0-1.2-.7-1.1-1.3,0,0,0,0,0-.1ZM2927.2,1644.9c-.2,1.7,1,3.3,2.8,3.5,0,0,0,0,.1,0l304,26c1.6.1,3-.9,3.4-2.5l6.1-30.2c.3-1.7-.8-3.4-2.5-3.7-.1,0-.2,0-.4,0l-306.4-27.4c-1.7-.2-3.3,1.1-3.4,2.8l-3.6,31.6Z"/>
  <path class="cls-4" d="M2927.2,1644.9l3.6-31.6c.2-1.7,1.7-3,3.4-2.8l306.4,27.4c1.7.1,3,1.7,2.9,3.4,0,.1,0,.2,0,.4l-6.1,30.2c-.3,1.6-1.8,2.7-3.4,2.5l-304-26c-1.7-.1-3-1.7-2.9-3.4,0,0,0,0,0-.1Z"/>
  <path class="cls-12" d="M3626.5,1665l-3.5,46.8-67,1.3c-.4,0-.7,0-1.1-.2-.5-.1-.7-.5-.7-1l-.2-64.8,62.3-1.1c1.5,0,2.6.7,3.2,2l7,16.9Z"/>
  <path class="cls-12" d="M3547,1647c-5.8,22.5-7.8,45.5-6,68.8l-125,73-113-34.7c22.7-15.2,45.4-30.2,68.1-44.9,13.4-8.7,63.3-44.1,76.9-42.1-2.7,32.6-5.1,65.2-7.4,97.9-.2,3.1,1.3,4.4,4.8,3.9,2.2-.3,3.3-1.5,3.5-3.7,1.2-14.1,8.6-91.6,2-99.2l1.2-1.8c19.2-7,36.5-15,56.8-16.5,13.1-.9,25.9-1.2,38.2-.7Z"/>
  <path class="cls-16" d="M3547,1647l7,.2.2,64.8c0,.5.2.8.7,1,.4.1.7.2,1.1.2l-15,2.7c-1.8-23.4.3-46.3,6-68.8Z"/>
  <path class="cls-16" d="M3626.5,1665c14.9,2.2,27.7,2.8,38.4,1.8-5.3,14.5-6.9,29.5-4.9,45h-37l3.5-46.8Z"/>
  <path class="cls-16" d="M3450.8,1666c6.5,7.6-.9,85.1-2,99.2-.2,2.2-1.3,3.4-3.5,3.7-3.4.5-5-.8-4.8-3.9,2.3-32.6,4.8-65.3,7.4-97.9l2.8-1.2Z"/>
  <path class="cls-12" d="M3664.9,1666.8c6.8.1,4.2,28.2,4.2,34.1,0,10.7,6.8,15.6,10,25,8.1,23.3,16.1,46.6,23.9,70,1.5,4.4.2,8.4-3.8,12l-2-10-31.6-83c-.5-1.4-1.5-2.2-2.8-2.5l-2.7-.6c-2.1-15.6-.4-30.6,4.9-45Z"/>
  <path class="cls-12" d="M2020.8,1723v62c-38.7,14.7-77.5,29.3-116.3,43.9-5.6,2.1-8.6,2.3-9.2,9.4-5.1,51.6-11.9,112.3-20.4,182-30.1,14.6-59.8,29.2-88.9,44-37.6,19-25.5,66.1-59.2,86.5-20.4,12.3-42.3,20.4-65.8,24.2,6.3-36.1,11.3-72.4,14.8-108.8l41.1-327.1c.2-1.7,1.5-3.1,3.1-3.5,53.2-13,106-25.1,158.4-36.4,7.1-1.5,14.1-1.7,21.2-.4,40.6,7.3,81,15.4,121.2,24.4ZM1735.4,1742.9c9.6,3,18.4,6.7,26.6,11,43.2,22.7,86.3,45.6,129.4,68.8,1.2.6,2.4.7,3.6.3l40.4-14.1c1-.4,1.3-1.1.8-2l-51-98.3c-.6-1.2-1.6-1.7-3-1.4l-146.9,34.7c-.3,0-.5.4-.4.7,0,.2.2.3.4.4Z"/>
  <path class="cls-32" d="M2919,1705.2l-.8,6.8-15.2,23.2-30.6-1.5c-1.4,0-2-.7-1.8-2.1l3.2-26.8c.2-1.6,1.6-2.8,3.2-2.6l42,3Z"/>
  <path class="cls-30" d="M2919,1705.2l32,7.1c2.9,3.5,5.9,6,9.2,7.6,35.9,17.8,71.4,36.2,106.5,55.4,9.7,5.3,20.8,14.3,33.3,26.9l63.2,74.8,1,3-46.2,97.2-43.8-55.8c-1.3-1.7-3.7-2-5.4-.7,0,0-.1,0-.2.1l-169.6,149-4-2.7c.6-1,.9-2.2,1.1-3.6.1-1.3.7-2.5,1.6-3.4,54.8-49.9,110.6-98.5,167.5-146,1-.8,1.1-1.7.4-2.7l-144-198.4c-.5-.7-1.2-1-2-1h-1.4l.8-6.8Z"/>
  <path class="cls-6" d="M1735.4,1742.9c-.3,0-.5-.4-.4-.7,0-.2.2-.3.4-.4l146.9-34.7c1.3-.3,2.3.1,3,1.4l51,98.3c.5,1,.2,1.7-.8,2l-40.4,14.1c-1.2.5-2.4.4-3.6-.3-43.1-23.1-86.2-46-129.4-68.8-8.2-4.3-17-7.9-26.6-11Z"/>
  <path class="cls-27" d="M2918.2,1712h1.4c.9,0,1.5.3,2,1l144,198.4c.7,1,.6,1.9-.4,2.7-56.9,47.5-112.7,96.2-167.5,146-1,.9-1.5,2-1.6,3.4-.1,1.4-.5,2.6-1.1,3.6-4-3.8-4.6-2.9-7.6-8.4-22.9-41.9-46.7-83.2-71.4-123.9l-21.3-39c-1-1.9-.9-3.7.3-5.4l108-155.3,15.2-23.2Z"/>
  <path class="cls-28" d="M3221,1736.2l-6.4,20.7c-.4,1.3-1.3,2-2.7,2l-15.9.2-41.2-1.2c-1.3,0-2.5.3-3.6,1-5.4,3.4-6.8,7.8-4.2,13.2,7.4,4.2,15.3,6.7,23.6,7.6,13.6,1.4,21.6,3.2,32.7,6.2-.3,12.1-4.1,22.8-11.4,32.2-30.9-3.9-61.6-9.2-92-16-12.5-12.7-23.6-21.6-33.3-26.9-35.1-19.1-70.7-37.6-106.5-55.4-3.2-1.6-6.3-4.1-9.2-7.6,88.2,6.5,176.3,13.7,264.4,21.5,2.1.2,3.8,1.4,5.6,2.4Z"/>
  <path class="cls-6" d="M3623,1711.8h37l2.7.6c1.4.3,2.3,1.2,2.8,2.5l31.6,83c-5.2,10-12.1,18.6-20.6,25.8-26,22-50.6,46.2-75.5,69.7-.8.8-1.4.6-1.8-.4l-45-129.5c-.8-2.2-3.2-3.4-5.4-2.6-.2,0-.3.1-.5.2-26.4,12.9-52.8,27.6-79.1,44-17.5-4-35.3-9.5-53.4-16.5l125-73,15-2.7,67-1.3Z"/>
  <path class="cls-15" d="M3221,1736.2l14.5,3.8c1.2.3,2,1,2.5,2.2l3.3,8c1,2.4,2.2,2.4,3.4.2l4.1-7.2c1.7-3,5.3-4.4,8.6-3.4l45.5,14.5,113,34.7c18.1,7,35.8,12.5,53.4,16.5l30.8,10.7-22.6,46.2c-83.3-33.8-167.6-67.7-252.7-97.1-4.1-1.4-14.2-2.1-30.3-2-1.9,0-2.4-.8-1.3-2.4.6-.9,1.5-1.4,2.8-1.5l15.9-.2c1.4,0,2.3-.7,2.7-2l6.4-20.7Z"/>
  <path class="cls-29" d="M4053.2,1910l53,200.2c.3,1.3,1.1,2.4,2.1,3.2l4.8,3.8-18.2,28.8-17.7,24c-1-.6-2.3-.9-3.7-1.1-1.3-.1-2.1-.8-2.5-2.1-3.3-10.2-8.8-18.4-16.7-24.8-10.3-8.3-15.7-16.2-24.2-24.9-5-5.1-5.4-4.7-1.4,1.1l42.8,62c-5.1,13.5-14.8,21.8-29,24.9-1.1.2-2.1.8-2.8,1.7-3.1,3.7-3.2,6.8-.2,9.4.9.8,1.9.9,3,.4,4.9-2.5,9.9-2.8,15-.9,2,.8,2.2,1.8.5,3.2-3.5,2.9-7.4,4.2-11.7,4-16.3-.8-44.8,4.7-48.6,23.9-1.1,5.5-1.2,11.1-.4,17,.2,1.4,1,1.9,2.4,1.5,3.2-1,5.2-23,11.4-29.4,1.1-1.2,2.4-1.3,3.6-.2,4.4,3.8,12.7,24.4,13.4,24.4,1.1-.1,1.6-.7,1.7-1.8l.8-19.3c0-1.4.7-2.4,1.8-3,21.8-12.3,53.6,23.8,73.6,24.3l-2,12.2c-.3,1.7.4,2.9,1.9,3.5l5,2.2c1.2.5,2.2,1.3,3,2.2,18.8,22.9,33.6,48.2,44.4,75.7.3.8-.1,1.7-.9,2-.5.2-1.1,0-1.5-.3-21.6-19.7-39.5-42.2-53.8-67.8-.6-1.1-2-1.5-3-.9-.6.3-1,.9-1.1,1.5l-16.8,95c-.3,1.7-1.9,2.8-3.6,2.6l-15.3-2.5c-2.3-.4-4.5,1.2-4.9,3.5,0,.4,0,.9,0,1.3l4.3,32.1c.2,1.7-.5,2.5-2.2,2.5-12.7-.1-24.8,1.3-36.5,4.2-16.8-5.5-32.8-12.9-48-22-19.5-10.9-40.5-16.9-63-17.9-2.1,0-4.1-.5-6-1.4,5.7-12.8,32.3-32.9,43.5-43.4,1.3-1.2,1-1.6-.7-1.2-29.4,5.9-59.1,7.8-89,5.6-3-.2-5.6,2-5.8,5,0,.5,0,1,0,1.4,2.3,11.4,2.9,22.9,1.8,34.6-23.8,4.2-44.5-1.3-62-16.6-3.3-2.9-7-3.8-11-4.4-7.2-2.8-13.8-.4-19.9-1.2-29.7-4.3-48.6-19.6-74.9-38.5-1.1-.8-1.4-1.9-.9-3.1l58.7-136.1,5.6.2c1.4,0,2.5.6,3.4,1.6,7.6,8.4,16,15.8,25.4,22.2,1.1.7,1.9,1.8,2.3,3.1,2.8,8.8,5.7,16.1,11.8,23.6,7.2,9,19.4,20.1,19.4,32.2s-.4,2.5-1.2,3.5c-9.5,13-31,13.1-46.4,15.5-1.1.2-1.8,1.2-1.6,2.2,0,.6.4,1.1.9,1.4l6.6,4.1c1.5.9,1.9,2.8,1,4.3-.4.7-1.1,1.2-1.9,1.4l-36.6,9c-4.3,1.1-6.9,5.4-5.8,9.7,0,.1,0,.3.1.4,4,12.9,48,18.8,59.5,19.8,1.3.1,2.5.5,3.6,1.2,5.2,3.4,9.7,2.5,13.5-2.7,9.1-12.3,20.3-20.6,33.4-24.7,15.7-4.9,24.9,1.5,38.7,8.8,15.6,8.2,84,7.3,97.8-4,2.9-2.4,5.8-5.1,8.6-8.2,5.1-8.6,3.9-16.9-3.6-24.7-5.9-6.3-11.5-12.5-16.8-18.8-2-2.4-1.7-6,.7-8,0,0,.2-.1.2-.2l26.5-19.9c2.3-1.8,2.1-2.6-.9-2.6h-3.2c-1.9,0-2.6-.9-2.2-2.7.9-3.9-.4-6.3-3.9-7.4,3.9-9.3,9.9-16.8,18-22.6,1.1-.7,2.2-1.1,3.5-1,7.4.6,13.7,3.3,18.9,8,1.2,1.1,2.6,1.3,4,.6,6.3-3,8.3-8,6.1-15-.3-.9-.9-1.2-1.8-.9-12.9,4.4-25,2.8-36.5-4.8-1.2-.8-2.6-1.2-4-1.3-40.6-1.6-78.7-12.1-114.4-31.6-1.6-.9-2.3-2.2-2.3-4l1.8-194.4c0-.5,0-.5-.3,0-9.4,23.3-17.5,46.9-24.2,70.8-.2.5-.8.9-1.3.7-.3,0-.5-.3-.6-.5l-49.3-97.7c-.5-.9-1.6-1.3-2.5-.8-.2.1-.5.3-.6.5l-39.4,52.2-21.3-7.8-88.9-39.4c.6-14.6,3.6-28.5,9.2-41.5.8-1.8,2.8-2.7,4.7-2.1l48.5,16.6c1.6.5,3.3-.3,3.8-1.9.1-.3.2-.7.2-1.1-.8-19-3.9-38.3-.4-56.2,1.7-8.6,3.7-17.2,6.2-25.7,10.1-11.3,4-22.7,19.6-32.8,22.8-14.8,45.7-29.4,68.8-43.8,1.2-.7,2.4-.7,3.5.1,31.9,23.3,64.1,46,96.5,68.1,21.5,14.7,47.4,20.1,77.6,16.2,7.7-1,14.7,2.6,21,10.9,16,20.8,32,41.6,48.2,62.2Z"/>
  <path class="cls-36" d="M3196,1759.2c-1.3.2-2.2.7-2.8,1.5-1.1,1.6-.6,2.4,1.3,2.4,16.1-.1,26.2.6,30.3,2,85.1,29.4,169.4,63.2,252.7,97.1,32.3,15.9,65.5,29.8,99.5,41.7l14.2,7.2-1,6c-2.2,5.3-6.3,6.7-12.2,4.2-63-25.8-126.2-50.9-189.8-75.2-38.8-15.5-77.8-30.6-116.9-45.2-22.6-8.5-41.7-13.7-57.2-15.6l-67-13c-2.6-5.4-1.2-9.9,4.2-13.2,1.1-.7,2.3-1,3.6-1l41.2,1.2Z"/>
  <path class="cls-16" d="M3697.2,1798l2,10-13.3,15c-14,7.9-25,18.9-33,32.8-17,16.5-34.3,32.8-51.9,49-3.2,2.9-6.4,3.5-9.8,6.2l-14.2-7.2c-17.5-32.2-31.5-65.4-42.1-99.5-.6-2-2.5-3.2-4.5-2.9-12.6,1.7-22.6,6.5-30.2,14.6l-30.8-10.7c26.3-16.5,52.7-31.2,79.1-44,2.1-1,4.6-.2,5.6,1.9,0,.2.1.3.2.5l45,129.5c.4,1,1,1.2,1.8.4,25-23.5,49.5-47.8,75.5-69.7,8.5-7.2,15.4-15.8,20.6-25.8Z"/>
  <path class="cls-4" d="M3147,1772.2l67,13c-3.4,1.8-7,2.1-10.6.8-11.1-3.1-19.1-4.9-32.7-6.2-8.4-.8-16.3-3.3-23.6-7.6Z"/>
  <path class="cls-6" d="M2020.8,1785l.2,197.8c-33.9,2.9-67.2,8.7-99.9,17.7-16,4.4-30.7,13-46.3,19.7,8.5-69.7,15.3-130.4,20.4-182,.7-7,3.6-7.3,9.2-9.4,38.8-14.6,77.6-29.2,116.3-43.9Z"/>
  <path class="cls-3" d="M3214,1785.2c15.5,1.9,34.6,7.1,57.2,15.6,39.1,14.6,78.1,29.7,116.9,45.2,0,10.3-19.4,13.2-29,17.9-1.3.6-2.1,1.7-2.2,3.2-.5,6.7-2.8,12.6-6.9,17.8l-2,.2c-61.3-1.7-122.7-1.2-183.8-5.2l-1-3,28.8-58.8c7.3-9.4,11.1-20.1,11.4-32.2,3.7,1.3,7.2,1,10.6-.8Z"/>
  <path class="cls-6" d="M3577,1903.8c-34-11.9-67.1-25.8-99.5-41.7l22.6-46.2c7.6-8.1,17.6-12.9,30.2-14.6,2-.3,3.9,1,4.5,2.9,10.6,34.1,24.6,67.3,42.1,99.5Z"/>
  <path class="cls-4" d="M3100,1802.2c30.4,6.8,61.1,12.1,92,16l-28.8,58.8-63.2-74.8Z"/>
  <path class="cls-28" d="M3685.8,1823l-1.7,6-31.4,26.8c8-13.9,19-24.9,33-32.8Z"/>
  <path class="cls-20" d="M3718,1829.2c-2.5,8.5-4.5,17.1-6.2,25.7-3.5,17.9-.4,37.2.4,56.2,0,1.7-1.2,3.1-2.9,3.1-.4,0-.7,0-1.1-.2l-48.5-16.6c-1.9-.6-3.9.3-4.7,2.1-5.6,13-8.6,26.8-9.2,41.5l-55.7-24,1-6c3.4-2.8,6.6-3.4,9.8-6.2,17.6-16.1,34.9-32.5,51.9-49l31.4-26.8c11.3-1.5,22.6-1.4,33.8.2Z"/>
  <path class="cls-1" d="M3388.2,1846c63.5,24.3,126.8,49.4,189.8,75.2,5.9,2.4,10,1,12.2-4.2l55.7,24,88.9,39.4c-1.5,7.9-.7,15.1,2.5,21.5,6.4,12.8,51.5,30,65.8,37.1,1.2.6,2.1,1.5,2.8,2.7l3.4,6.3c-22.8,46.5-43.9,93.8-63.2,141.8l-58.7,136.1c-.5,1.3-.2,2.3.9,3.1,26.4,19,45.2,34.2,74.9,38.5,6.1.9,12.7-1.5,19.9,1.2l-3.2,3.2c-10.5,0-20.8,1.3-30.8,4.2-25.9.5-51.9,1.1-77.8,1.8-4.5.1-7.7,2.3-9.6,6.7-9,21-20.8,47.5-35.6,79.5-.7,1.4-1.7,1.7-3,.9l-142.6-88.8c-1.4-.9-2.6-.7-3.6.7l-3.7,4.9c-1.1,1.4-.9,2.6.6,3.5,47.6,29.8,95.3,59.4,143.1,88.8,3.2,1.9,6.7,3.2,10.7,3.7,1.3.2,2.4.8,3.1,1.9,7.1,11.2,12,23.3,14.7,36.1l-88.2,66.2c-10.8,8.2-19,14.6-33.3,15-20,.7-39.9.7-59.7,0-1.3,0-2.4.3-3.4,1.1-5.4,4.3-9.9,9.3-13.4,15-4.2,6.9-9.4,11-13.6,17.6-.7,1.1-1.7,1.9-2.9,2.4-4,1.7-6.2,4.9-6.6,9.6l-6,3c-7,1.9-13.6,1.2-20-2l39-149.1c1-3.9-.4-6.4-4.2-7.7l-26.8-8.9-62.1-12,214.2-497.6c.5-1.3.2-2.1-1.1-2.6l-207-81c4.1-5.2,6.4-11.1,6.9-17.8.1-1.5.8-2.6,2.2-3.2,9.6-4.7,29-7.6,29-17.9Z"/>
  <path class="cls-15" d="M3164.2,1880c61.2,3.9,122.6,3.5,183.8,5.2-18.5,44-38.5,87.3-60.2,129.8-27.9-12.3-55.7-24.8-83.4-37.5-6.6-3-11.2-2.4-12.5,5.5-.3,1.8.4,3,2,3.8l89,39.4-94,206-50.7-24.6c-2-1-4.4-.1-5.3,1.9-.1.3-.2.6-.3.9l-1.2,6c-.3,1.4.2,2.4,1.5,3l54.2,26-6.9,4.9c-1.2.8-2,1.9-2.5,3.2-9.8,25.5-20.9,50.4-33.3,74.6-2.2,0-3.5,0-5.3,1.2-38.7,26.3-77,53-115.1,80.1l-54.5-10.2c-1.5-.3-2.6.2-3.4,1.5-3.3,5.2-7.7,6-13.4,2.4-1.7-1.1-2.8-.7-3.4,1.2l-32.5,100.9c-5.2,1.9-9.4,4-12.6,6.2-46.7,33.1-93.8,65.8-141.2,97.9l-197-210.3-3-5-26.2-33.5c-1-1.3-.9-2.4.6-3.4l261.6-174.1,14.2,49c.4,1.5.8,1.5,1.2,0,5-19.4,2.4-37.7-7.6-54.9l74.6-52.2c1.3-.9,2.5-.9,3.8,0l61.6,47.1c17.8,16.5,36.6,31.7,56.6,45.7,1.1.8,2,.6,2.6-.7l28.7-58.2c.6-1.1.2-1.7-1-1.8l-56.8-3.2c24.9-20.3,50.3-39.9,76.4-58.6,9.1-6.5,16.1-14.9,21-25,15-30.9,29.5-61.9,43.6-93.2l46.2-97.2ZM3018.6,2231l115.2,93.2c.3.3.7.2,1,0,.2-.2.2-.6,0-.9-19.1-26.7-35.1-55.3-47.9-85.6-.6-1.3-1.6-2-3-2.1l-65.1-5c-.6,0-.7.1-.2.6Z"/>
  <path class="cls-35" d="M3348,1885.2l2-.2,207,81c1.3.5,1.6,1.3,1.1,2.6l-214.2,497.6-105.9-19.3c0-1.9.3-3.2-.6-5-22.1-45.7-53.1-83.7-93-114,12.4-24.2,23.5-49,33.3-74.6.5-1.3,1.3-2.4,2.5-3.2l6.9-4.9c46.4,23.7,93.1,47.1,140,70.3,3.5,1.8,6.1.3,7.8-4.4.7-2,.1-3.4-1.8-4.4l-144.1-74.6,94-206,90.2,41c1.5.7,2.7.3,3.6-1.1l3.5-5.8c.9-1.5.5-2.7-1.1-3.5l-91.3-41.8c21.6-42.5,41.7-85.8,60.2-129.8Z"/>
  <path class="cls-34" d="M2655,1916.2l31.2-.7c1.4,0,2.7.3,3.8,1,8.6,5.2,14.5,16.7,24.9,18.6,12.3,2.2,23.3,7.2,33.2,14.8,1.1.8,2.2,1.1,3.5.7,2.5-.7,13.6-5.1,13.3.2l-1,1c-43.3,9.8-81.1,43.6-114.6,69.1-3.3,2.5-7,3.1-11,1.8-60.7-19.9-120.3-42.6-178.9-68-.8-.3-1.4-.9-1.9-1.6l-.8-1.2c9.9-10.2,10.1-19.5.6-28.1-1-.9-1.5-2.1-1.5-3.4.4-16,13-12.3,22.5-13.9,45.2-7.6,86.2-4,131.4-3.2,15.9.2,31,4.5,45.2,12.8Z"/>
  <path class="cls-20" d="M4113,2117.2l-4.8-3.8c-1.1-.9-1.8-1.9-2.1-3.2l-53-200.2,25.5-6.3c1.3-.3,2.5,0,3.6.8,22.7,17.6,39.6,46.2,56.8,69.2,12.9,17.2,28.9,31.6,44.1,47.1.9.9,1,1.9.2,2.9l-70.4,93.6Z"/>
  <path class="cls-33" d="M2407,1922.8c-3.6.6-6,2.7-7.2,6.2-86.9,32.1-167.3,76-241.2,131.8-3.3,2.5-6.5,5.3-9.5,8.2-5.8-2.5-10.1-7.4-13.1-14.8,76.2-65.6,161.9-114.7,257.2-147.2,1.8-.6,3.8,0,4.8,1.7l9,14.2Z"/>
  <path class="cls-27" d="M3118,1977.2c-14.1,31.3-28.6,62.3-43.6,93.2-4.9,10.1-11.9,18.4-21,25-26.1,18.7-51.5,38.2-76.4,58.6l-17.8,1.2,33.6-44c.9-1.2.7-2.1-.7-2.7l-93-38.5,169.6-149c1.6-1.4,4-1.2,5.4.4,0,0,0,.1.1.2l43.8,55.8Z"/>
  <path class="cls-36" d="M2407,1922.8c15.9,10.4,31.1,24.2,49.8,29.2l.8,1.2c.5.7,1.1,1.2,1.9,1.6,58.6,25.4,118.2,48.1,178.9,68,4,1.3,7.7.7,11-1.8,33.5-25.4,71.3-59.2,114.6-69.1.4,0,.7,0,1,.2.1,0,.2.1.2.3,5.1,25.2,6.7,45.8,4.6,61.7-6.1,46.8-56.6,70.5-100,59.2-1.2-.3-2.2-1-2.9-2.1-7.9-11.5-13.8-24-17.7-37.4-.3-1.1-1.1-1.7-2.3-1.7h-3c-1.7,0-2.1.7-1.4,2.2,10.8,21.4,18.5,44.1,23.1,68.1-46.1-20.4-85.5-25.4-137.7-18.3-32,4.3-64.1,9-96.2,14.2-4.1,0-8.3,1-12.6,3-29.7,13.9-59.4,27.8-89.2,41.7l26.7-92.8c12.9-41,27.2-81.3,43.1-121,1.2-3.5,3.6-5.5,7.2-6.2ZM2498.2,1975.8c-1.6-1.1-3.3-1.8-5.2-2.1-1.3-.2-2.5.2-3.5,1-25.8,22.8-55,39.4-87.8,50-.4.1-.6.5-.5.9.1.3.4.6.8.5,38.2-5.1,71.1-20.7,98.8-46.9,1.1-1.1,1.1-2.1-.2-3-.6-.5-1.4-.6-2.4-.5ZM2561.6,2031.7l-11.8,43.6c-.4,1.5.2,2.4,1.8,2.5h1.8c1.3.2,2.5-.7,2.7-2l6.8-43.8c0-.4-.2-.7-.5-.8-.4,0-.7.2-.8.5Z"/>
  <path class="cls-4" d="M2399.8,1929c-15.9,39.7-30.3,80.1-43.1,121-1.9-.6-3.2-1.9-4.1-3.8-.7-1.5-1.8-2-3.4-1.6-55.2,14.1-102,42.1-140.6,84.1-2.2,2.4-4.1,5.2-5.7,8.4l-27.2-40.2c6.4,4.2,11.6,9.7,15.7,16.6.7,1.2,2.3,1.6,3.6.9.2-.1.5-.3.6-.5,24.2-28,54.4-46.6,90.6-55.7,1.3-.3,2-1.6,1.7-2.9,0-.2,0-.3-.2-.4l-13.7-27.7c-.6-1.2-2.1-1.7-3.3-1.1-36.6,17.4-71.1,38-103.4,61.8-6.5-4.6-12.6-10.9-18.4-18.9,3-2.9,6.2-5.6,9.5-8.2,73.8-55.8,154.2-99.8,241.2-131.8Z"/>
  <path class="cls-13" d="M2816,1934.8c24.7,40.7,48.5,82.1,71.4,123.9,3,5.5,3.6,4.6,7.6,8.4l4,2.7,93,38.5c1.4.6,1.6,1.5.7,2.7l-33.6,44-12.3,17-61.6-47.1c-1.2-.9-2.5-1-3.8,0l-74.6,52.2-7.8,5.8-261.6,174.1c-1.4.9-1.6,2.1-.6,3.4l26.2,33.5c-4.6-2-7.6-1-9.2,3.2-10.5,1-28.4-2.3-36.8.8.2-1.2-.4-2.1-1.6-2.5-28.2-9.5-52.7-24.7-73.5-45.5-23.5-23.5-75.8-10.6-100.3,3.5-1.3.7-2.1,2.2-2.6,4.5l-6,2c4-22.5-25.2-28.2-38.6-37.3-4.7-3.2-8.8-5.3-12.4-6.2-15.9-4.5-32.2-7.5-48.8-9.1l-6.2-7,2.6,1.8c1,.7,2,.6,2.9-.2l23.4-22.6c13.8-10.2,22.9-21.1,24.2-39.4,1.6-22.2,1.4-44.6-.6-67.3,13.9.4,38.8-21.4,50.4-29.7,29.8-13.9,59.5-27.8,89.2-41.7,4.3-2,8.5-3,12.6-3,11,2.4,22.1,3.7,33.4,3.9,7.9.1,14.9,1.2,21,3.2,33.3,11.4,66.5,23.3,99.5,35.7,9.1,3.4,15.3,1.9,20.8-5.8.9-1.3.8-2.4-.4-3.5-.6-.5-.9-1.1-1.1-1.9-.4-2.2.4-2.9,2.4-2.1,13.2,5,25,11.9,35.6,20.8,26.5,22.4,57.1,39.8,86.5,58.1,11,6.8,26.4-4.3,33.4-12.9,1-1.2.9-2.4-.2-3.5-14.4-14-27.5-29.3-39.2-45.7-.8-1.2-1.9-2-3.2-2.5-7.7-3-9.6-8.2-5.8-15.5,3.8,2.8,7.5,4.5,11.2,5.3,1.3.3,2.3-.1,3.1-1.1,8-9.8,23.2-26.9,45.5-51.4,33.4-36.7,25.8-89.8,2.5-130.1,12.2-6.4,25.2-11.1,39.2-14.3ZM2328.2,2259c63.8-35.2,131.2-47.4,202.8-44.6,51.9,2,105.1,17,155,34.4.8.3,1.5,0,1.9-.7l.8-1.4c1-1.6.6-2.7-1.2-3.3l-40.5-13.3c3.9-5.3,9-7.3,15.3-6,1.5.3,1.8-.1.9-1.4-23.5-33.6-54.1-58.3-91.9-74.1-47.5-20-129.4-45-174.5-13.8-35.6,24.6-66.5,58.2-92.6,100.7-5.8,9.5-9.1,21.7-14.7,32.3-.6,1.2-.6,2.4.2,3.5,5.5,8.3,33.4-8,38.4-12.4ZM2447,2251.2c42.6-17.3,82-12,126.1-16.5,3.8-.4,3.8-.7,0-1-26.8-2-53.5-1.9-80.1.5-46.9,4.2-90.2,30.8-123.4,63.3-3,2.9-2.7,3.2.8,1,25.1-16,52.3-37.4,76.6-47.2ZM2441.8,2274.1c31.3-10.7,62.3-20.5,93-29.4.9-.3,1.7-.7,2.4-1.3,1.1-.9,1-1.2-.4-.8-33.7,8.2-64.4,14-95.8,29.7-.5.2-.7.8-.5,1.3.2.5.8.7,1.3.5Z"/>
  <path class="cls-20" d="M3981,2229.8l-2,4.9c-.5,1.3-1.3,2.4-2.2,3.4l-30.6,29.4c-1.5,1.4-1.5,3.8,0,5.3,0,0,0,0,0,0,14,13.4,26.4,24,37.9,41.3-2.8,3.1-5.7,5.8-8.6,8.2-13.8,11.3-82.2,12.2-97.8,4-13.8-7.2-23-13.7-38.7-8.8-13.1,4.1-24.3,12.4-33.4,24.7-3.8,5.2-8.3,6.1-13.5,2.7-1.1-.7-2.3-1.1-3.6-1.2-11.5-1-55.5-6.8-59.5-19.8-1.3-4.2,1.1-8.7,5.3-10,.1,0,.3,0,.4-.1l36.6-9c1.7-.4,2.7-2.1,2.3-3.8-.2-.8-.7-1.5-1.4-1.9l-6.6-4.1c-.9-.6-1.2-1.8-.6-2.7.3-.5.8-.8,1.4-.9,15.5-2.4,36.9-2.6,46.4-15.5.8-1,1.2-2.2,1.2-3.5,0-12.1-12.2-23.3-19.4-32.2-6-7.5-8.9-14.8-11.8-23.6-.4-1.3-1.2-2.3-2.3-3.1-9.4-6.4-17.8-13.8-25.4-22.2-.9-1-2.1-1.6-3.4-1.6l-5.6-.2c19.3-48.1,40.4-95.4,63.2-141.8l37.2,17.2c1.4.7,2.3.2,2.4-1.4l1-8.7c.2-1.5-.3-2.7-1.5-3.6-12.3-9.5-25.2-18.3-38.7-26.4-5.8-3.5-6.8-9.3-3.1-17.5.7-1.6.3-2.6-1.5-3-17-4.3-33.3-9.8-49-16.6l39.4-52.2c.6-.8,1.8-1,2.6-.3.2.2.4.4.5.6l49.3,97.7c.3.5.9.7,1.4.5.3-.1.4-.3.5-.6,6.7-23.9,14.8-47.5,24.2-70.8.2-.4.3-.4.3,0l-1.8,194.4c0,1.8.7,3.1,2.3,4,35.7,19.5,73.8,30,114.4,31.6,1.5,0,2.8.5,4,1.3,11.4,7.6,23.6,9.2,36.5,4.8.9-.3,1.5,0,1.8.9,2.2,7,.2,12-6.1,15-1.5.7-2.8.5-4-.6-5.3-4.7-11.6-7.4-18.9-8-1.3-.1-2.5.2-3.5,1-8,5.8-14,13.4-18,22.6ZM3786.4,2213.6c23.9,21.2,50.7,37.9,80.2,50.3.8.3,1.8,0,2.1-.9.3-.7,0-1.5-.6-1.9-20.2-13.2-30.6-30.5-47.9-46.8-1-.9-2.2-1.4-3.6-1.5l-29.2-1.7c-.8,0-1.5.5-1.5,1.4,0,.5.2.9.5,1.2Z"/>
  <path class="cls-37" d="M2776.8,1949.1c23.4,40.3,30.9,93.4-2.5,130.1-22.3,24.5-37.5,41.7-45.5,51.4-.8,1-1.8,1.4-3.1,1.1-3.7-.7-7.4-2.5-11.2-5.3l-48.8-24.2c-4.6-24-12.3-46.7-23.1-68.1-.7-1.5-.3-2.2,1.4-2.2h3c1.2,0,1.9.6,2.3,1.7,3.9,13.4,9.8,25.8,17.7,37.4.7,1.1,1.7,1.8,2.9,2.1,43.4,11.3,94-12.4,100-59.2,2.1-15.9.5-36.5-4.6-61.7,0-.1-.1-.2-.2-.3-.3-.1-.6-.2-1-.2l1-1,11.8-1.7Z"/>
  <path class="cls-37" d="M2498.2,1975.8c.9-.2,1.7,0,2.4.5,1.3.9,1.3,1.9.2,3-27.7,26.2-60.6,41.8-98.8,46.9-.4,0-.8-.2-.8-.6,0-.4.2-.7.5-.8,32.8-10.6,62.1-27.2,87.8-50,1-.9,2.1-1.2,3.5-1,1.9.3,3.6,1,5.2,2.1Z"/>
  <path class="cls-34" d="M3287.8,2015l91.3,41.8c1.6.8,2,1.9,1.1,3.5l-3.5,5.8c-.9,1.4-2,1.8-3.6,1.1l-90.2-41-89-39.4c-1.7-.7-2.3-2-2-3.8,1.4-8,5.9-8.5,12.5-5.5,27.7,12.7,55.5,25.2,83.4,37.5Z"/>
  <path class="cls-37" d="M3734.7,1980.4l21.3,7.8c15.7,6.7,32,12.2,49,16.6,1.7.4,2.2,1.4,1.5,3-3.7,8.2-2.7,14,3.1,17.5,13.5,8.1,26.4,16.9,38.7,26.4,1.2.9,1.7,2.1,1.5,3.6l-1,8.7c-.2,1.6-1,2-2.4,1.4l-37.2-17.2-3.4-6.3c-.7-1.2-1.6-2.1-2.8-2.7-14.2-7.2-59.4-24.3-65.8-37.1-3.2-6.4-4-13.6-2.5-21.5Z"/>
  <path class="cls-15" d="M2072.2,1985c-32.1,81-98.1,138.8-162.2,200-29.2,27.9-61.1,49.4-95.6,64.4-80.8,35.2-149.8,53.5-236.4,21.7-4.3-2.5-7.2-5.9-8.7-10.2-.5-1.4-.3-2.6.7-3.7,14.6-16.6,27.6-34.3,39-53.1l21.2-22.8c1-1,2.2-1.6,3.6-1.6,9.4-.2,18.4-1.8,27.2-4.9,23.4-3.8,45.4-11.8,65.8-24.2,33.7-20.4,21.6-67.4,59.2-86.5,29.1-14.7,58.7-29.4,88.9-44,15.6-6.7,30.3-15.3,46.3-19.7,32.7-8.9,66-14.8,99.9-17.7,10.6-.4,43.9-3.8,51.2,2.2Z"/>
  <path class="cls-1" d="M2072.2,1985c13.7,5.4,24.1,14,31.5,25.9-3.3,43.8-1.8,87.3,4.3,130.6,4.2,29.8,2,46.2-25.8,58.8-21.9,9.9-46.1,24.6-72.6,44.1-8,5.9-19.7,9.3-27.1,17-9.5,9.9-17.6,22.2-24.2,36.7-33.5,3.8-58.1,4.1-90.4,24.4-3.7,0-7.4,1-10.9,3-4.5,2.5-7.8,4-10,4.6-31.1,8.5-62.2,17.1-93.2,25.9-31.2,5.5-62.1,13-92.6,22.6-5.5,1.7-11.6-.4-15.6-4-1-.9-1.6-2-1.8-3.4-1.4-11.5-6.6-20.6-15.7-27.2-22.1-16.1-39.4-53.1-50-72.7,86.6,31.8,155.5,13.4,236.4-21.7,34.5-15,66.4-36.5,95.6-64.4,64.1-61.2,130.1-119,162.2-200ZM2086.2,2018.5c-15.9,38-35.3,84.4-68.5,109.1-37.7,28-68.5,51.8-92.3,71.4-1.7,1.4-1.5,1.9.7,1.4,30.3-6.9,65.4-13.5,91.6-30.4,21.7-13.9,41.6-30.1,59.8-48.4,15.1-15.2,15.7-80,16-101.9,0-1.3-.5-2.5-1.6-3.3-2.5-1.9-4.4-1.2-5.8,2.2ZM2017.8,2193.6c18.2-1.3,53.8-17.3,57.3-40,.2-1.3-.3-1.6-1.4-.9l-57.3,37c-1,.6-1.3,1.9-.7,2.9.4.7,1.2,1.1,2,1Z"/>
  <path class="cls-35" d="M2103.6,2010.9l32.4,43.3c3,7.4,7.4,12.3,13.1,14.8,5.8,8,11.9,14.3,18.4,18.9l8.3,9.1,27.2,40.2c6.5,11.6,14.7,21.8,24.5,30.6,1,.9,2.3,1.4,3.7,1.4,16-.4,32.1.7,48.4,3.4,2,22.7,2.2,45.1.6,67.3-1.3,18.3-10.4,29.1-24.2,39.4-31.3-29.2-45.4-58.6-69.7-88.4-7.5-9.2-15.8-12-27.4-7.2-33.9,13.9-64.6,31.4-89.6,59.8-14.7,16.7-29.1,33.5-43.3,50.5l-67.8,4.2c6.6-14.6,14.7-26.8,24.2-36.7,7.4-7.7,19.1-11.1,27.1-17,26.5-19.5,50.7-34.2,72.6-44.1,27.9-12.6,30.1-28.9,25.8-58.8-6.2-43.2-7.6-86.7-4.3-130.6ZM2149.1,2081.5l-1.5,74.2c0,1.6,1.4,2.9,3,2.9,1.4,0,2.6-1.1,2.9-2.5,3.1-24.1,4.4-47.1,3.9-69.1,0-4.2-2.1-6.7-6.2-7.3-1-.2-1.9.5-2.1,1.5,0,0,0,.2,0,.3Z"/>
  <path class="cls-35" d="M2086.2,2018.5c1.4-3.4,3.3-4.1,5.8-2.2,1,.8,1.6,2,1.6,3.3-.4,21.8-.9,86.6-16,101.9-18.2,18.4-38.2,34.5-59.8,48.4-26.2,16.8-61.3,23.4-91.6,30.4-2.2.5-2.4,0-.7-1.4,23.8-19.5,54.6-43.3,92.3-71.4,33.2-24.7,52.6-71.1,68.5-109.1Z"/>
  <path class="cls-24" d="M2175.8,2097l-8.3-9.1c32.3-23.8,66.7-44.4,103.4-61.8,1.2-.6,2.7,0,3.3,1.1l13.7,27.7c.6,1.2,0,2.6-1.1,3.2-.1,0-.3.1-.4.2-36.2,9.1-66.4,27.7-90.6,55.7-.9,1.1-2.6,1.2-3.7.3-.2-.2-.4-.4-.5-.6-4.1-6.9-9.3-12.4-15.7-16.6Z"/>
  <path class="cls-1" d="M2561.6,2031.7c0-.4.4-.6.8-.5.4,0,.6.4.5.8l-6.8,43.8c-.2,1.3-1.4,2.3-2.7,2.2h-1.8c-1.6-.3-2.2-1.1-1.8-2.6l11.8-43.6Z"/>
  <path class="cls-16" d="M2356.7,2050l-26.7,92.8c-11.6,8.3-36.5,30-50.4,29.7-16.3-2.6-32.4-3.8-48.4-3.4-1.4,0-2.6-.4-3.7-1.4-9.9-8.8-18-19-24.5-30.6,1.6-3.2,3.5-6,5.7-8.4,38.5-42,85.4-70,140.6-84.1,1.6-.4,2.7.1,3.4,1.6.9,1.9,2.3,3.2,4.1,3.8Z"/>
  <path class="cls-14" d="M1675.8,2066c-3.5,36.5-8.5,72.8-14.8,108.8-8.8,3.1-17.9,4.7-27.2,4.9-1.4,0-2.6.6-3.6,1.6l-21.2,22.8c-13.2-1.7-25.8-5.1-38-10.3,1.3-16.5.2-32.9-3.2-49.1-.3-1.3-.2-2.5.3-3.7,6.6-17.9,32.8-10.6,45.4-5,3.9,1.7,8.4,0,10.1-3.9.3-.6.5-1.3.6-1.9l4.1-27.2c.2-1.7,1.2-2.4,2.9-2.1l5.9.9c2.9.4,5.9-.6,7.9-2.8l30.8-32.9Z"/>
  <path class="cls-1" d="M2149.1,2081.5c0-1,.8-1.8,1.8-1.8,0,0,.2,0,.3,0,4,.6,6.1,3.1,6.2,7.3.5,22-.8,45.1-3.9,69.1-.3,1.6-1.8,2.7-3.4,2.4-1.4-.2-2.5-1.4-2.5-2.9l1.5-74.2Z"/>
  <path class="cls-20" d="M2665.7,2102.4l48.8,24.2c-3.8,7.3-1.9,12.5,5.8,15.5,1.3.5,2.4,1.3,3.2,2.5,11.7,16.4,24.8,31.7,39.2,45.7,1.1,1.1,1.2,2.3.2,3.5-7,8.6-22.4,19.7-33.4,12.9-29.4-18.2-60-35.7-86.5-58.1-10.6-8.9-22.4-15.8-35.6-20.8-2-.8-2.8,0-2.4,2.1.2.8.5,1.4,1.1,1.9,1.2,1,1.3,2.2.4,3.5-5.4,7.8-11.6,9.2-20.8,5.8-33-12.4-66.2-24.3-99.5-35.7-6.1-2.1-13-3.1-21-3.2-11.3-.2-22.5-1.5-33.4-3.9,32.2-5.1,64.3-9.9,96.2-14.2,52.2-7,91.6-2.1,137.7,18.3Z"/>
  <path class="cls-24" d="M1546.8,2192.4c-14.8-.6-29.1-2.3-42.9-5-15.4-3-25.9-15.3-38-19.4-38.1-12.7-76.7-23.5-115.9-32.5l125.4-34.5c2.7-.7,4.9,0,6.7,2.2,22.2,28.1,43.8,57.8,64.8,89.2Z"/>
  <path class="cls-20" d="M4077.2,2170l-5.7,10.2-42.8-62c-4-5.8-3.6-6.2,1.4-1.1,8.5,8.8,13.9,16.6,24.2,24.9,7.9,6.4,13.5,14.6,16.7,24.8.4,1.3,1.2,1.9,2.5,2.1,1.4.1,2.7.5,3.7,1.1Z"/>
  <path class="cls-20" d="M2647,2230.2c-42.4-14.6-86.1-22.8-131-24.5-51.8-1.9-95.8.8-132.1,8.3-23.9,4.9-42.5,19.9-55.8,45-5,4.4-32.9,20.7-38.4,12.4-.7-1.1-.8-2.3-.2-3.5,5.6-10.6,8.9-22.8,14.7-32.3,26.1-42.5,57-76.1,92.6-100.7,45.1-31.2,127-6.1,174.5,13.8,37.8,15.8,68.4,40.5,91.9,74.1.9,1.3.5,1.7-.9,1.4-6.3-1.3-11.4.7-15.3,6Z"/>
  <path class="cls-24" d="M1345,2134.8c-.5.1-.9.4-1.2.9-.5.9-.3,1.5.6,1.9,20,8.1,40.1,16.3,60.1,24.6,17.6,7.3,28.9,10.3,33.6,31.6,6.9,31.4,21.8,57.8,44.7,79.2,7,6.6,15.6,8.8,24.3,12.9,1.4.6,1.8,1.7,1.4,3.1-5.2,18.1-8.1,36.4-8.7,54.9-33.4-15-63.7-36.7-94.5-56.3-1.1-.7-2.3-.7-3.4,0-26.9,18.9-81.7,56.4-74,94.1,3.3,16,4.9,26.4,4.9,31.1-40.9,12.8-82.5,22.4-124.8,28.8l15.3-43.6c.5-1.5,1.5-2.3,3.1-2.6l66.5-9.1c.9-.1,1.6-1,1.4-1.9,0-.3-.2-.6-.4-.9l-31.4-34.6c-1.1-1.2-1.6-2.9-1.3-4.5l7.6-40.4c.3-1.5,0-2.8-1-4-9.4-11.9-20.2-22.6-26.8-36.2-8.1-16.7-15.7-33.3-22.6-49.8-.7-1.8-.3-3.9,1.2-5.2,30.5-27.5,62.5-58.7,97.9-79.4,1.2-.7,2.5-.9,3.9-.6l23.7,5.8Z"/>
  <path class="cls-32" d="M1345,2134.8l4.9.7c39.2,8.9,77.8,19.8,115.9,32.5,12.2,4.1,22.6,16.4,38,19.4,13.8,2.7,28.1,4.4,42.9,5,7.1,3.8,15.2,4.2,24.2,1.4,12.2,5.2,24.8,8.6,38,10.3-11.4,18.9-24.4,36.6-39,53.1-1,1.1-1.2,2.3-.7,3.7,1.5,4.3,4.5,7.7,8.7,10.2,10.6,19.6,27.9,56.6,50,72.7l-3,1.3-43.1-10.7c-1.5-.4-3,.5-3.4,2-.1.5-.1,1.1,0,1.6l2.2,6.4c.9,2.5-.4,5.3-2.9,6.2-1.2.4-2.5.4-3.6-.1l-46.7-20.6c-1.9-.8-2.7-.2-2.4,1.8l3.4,23.6c.3,1.7-.5,2.7-2.2,2.8-1.1,0-2.3-.3-3.4-1.2.4-2,.1-3.8-.8-5.3-.7-1.2-1.8-1.7-3.2-1.6-7.3.7-13.7-1.3-19.2-6,.6-18.5,3.5-36.8,8.7-54.9.4-1.4,0-2.5-1.4-3.1-8.7-4.1-17.3-6.3-24.3-12.9-23-21.5-37.9-47.9-44.7-79.2-4.7-21.3-16-24.3-33.6-31.6-20.1-8.3-40.1-16.5-60.1-24.6-.9-.4-1.1-1-.6-1.9.3-.5.7-.8,1.2-.9Z"/>
  <path class="cls-37" d="M4094.8,2146l19.6,42c.6,3.5-1.9,6.5-7.4,8.9-6.4,3.7-12.3,8.1-17.6,13.3-2.5,2.4-2.2,2.7.7.9l17.9-11.2,10-2.7c-1.4,5.2,12,29.5,13.8,36.8l-25.8,26.2c-20-.5-51.8-36.6-73.6-24.3-1.2.7-1.8,1.7-1.8,3l-.8,19.3c0,1.1-.6,1.7-1.7,1.8-.8,0-9-20.5-13.4-24.4-1.3-1.1-2.5-1-3.6.2-6.2,6.5-8.2,28.5-11.4,29.4-1.4.4-2.2,0-2.4-1.5-.8-5.9-.7-11.6.4-17,3.9-19.2,32.3-24.7,48.6-23.9,4.3.2,8.2-1.1,11.7-4,1.7-1.4,1.5-2.4-.5-3.2-5.1-1.9-10.1-1.6-15,.9-1.1.6-2.1.4-3-.4-3-2.6-3-5.7.2-9.4.7-.9,1.7-1.5,2.8-1.7,14.2-3.1,23.9-11.4,29-24.9l5.7-10.2,17.7-24Z"/>
  <path class="cls-35" d="M2075.2,2153.6c-3.6,22.7-39.1,38.7-57.3,40-1.2.1-2.2-.7-2.3-1.9,0-.8.3-1.6,1-2l57.3-37c1.1-.7,1.5-.4,1.4.9Z"/>
  <path class="cls-24" d="M2977,2153.8l56.8,3.2c1.3,0,1.6.7,1,1.8l-28.7,58.2c-.6,1.3-1.5,1.5-2.6.7-20-13.9-38.9-29.2-56.6-45.7l12.3-17,17.8-1.2Z"/>
  <path class="cls-37" d="M2806.8,2177c10.1,17.2,12.6,35.5,7.6,54.9-.4,1.5-.8,1.5-1.2,0l-14.2-49,7.8-5.8Z"/>
  <path class="cls-14" d="M2256,2279.2l-23.4,22.6c-.9.9-1.9.9-2.9.2l-2.6-1.8c-12.3-4-22.9-7.2-36.4-7.2-54.9.1-109.8.4-164.6.8,14.2-17,28.7-33.9,43.3-50.5,24.9-28.3,55.6-45.8,89.6-59.8,11.7-4.8,20-2,27.4,7.2,24.3,29.8,38.4,59.2,69.7,88.4Z"/>
  <path class="cls-1" d="M4118,2197.2l-10,2.7-1-3c5.5-2.4,8-5.4,7.4-8.9,10.2-2.3,19.4-2.9,27.5-1.9,1.7.2,1.8.8.4,1.8-7.3,5.1-15.4,8.2-24.3,9.4Z"/>
  <path class="cls-3" d="M4107,2196.8l1,3-17.9,11.2c-2.9,1.8-3.1,1.5-.7-.9,5.3-5.1,11.2-9.6,17.6-13.3Z"/>
  <path class="cls-34" d="M2647,2230.2l40.5,13.3c1.8.6,2.2,1.7,1.2,3.3l-.8,1.4c-.5.8-1.1,1-1.9.7-49.9-17.4-103.1-32.5-155-34.4-71.6-2.8-139,9.4-202.8,44.6,13.3-25.1,31.9-40.1,55.8-45,36.2-7.5,80.3-10.2,132.1-8.3,44.9,1.7,88.6,9.8,131,24.5Z"/>
  <path class="cls-34" d="M3189,2232.2l144.1,74.6c1.9,1,2.5,2.4,1.8,4.4-1.7,4.7-4.3,6.2-7.8,4.4-46.9-23.2-93.5-46.7-140-70.3l-54.2-26c-1.3-.6-1.8-1.6-1.5-3l1.2-6c.5-2.2,2.6-3.5,4.8-3.1.3,0,.6.2.9.3l50.7,24.6Z"/>
  <path class="cls-29" d="M3786.4,2213.6c-.6-.5-.7-1.5-.1-2.1.3-.3.7-.5,1.2-.5l29.2,1.7c1.4,0,2.6.6,3.6,1.5,17.3,16.2,27.7,33.6,47.9,46.8.7.5.9,1.5.4,2.3-.4.6-1.2.9-1.9.6-29.5-12.4-56.3-29.1-80.2-50.3Z"/>
  <path class="cls-1" d="M3133.8,2324.2l-115.2-93.2c-.5-.4-.4-.6.2-.6l65.1,5c1.4.1,2.4.8,3,2.1,12.8,30.3,28.8,58.9,47.9,85.6.2.3.1.8-.2,1-.3.2-.6.2-.8,0Z"/>
  <path class="cls-1" d="M3981,2229.8c3.5,1.1,4.8,3.6,3.9,7.4-.4,1.8.3,2.7,2.2,2.7h3.2c2.9,0,3.2.9.9,2.6l-26.5,19.9c-2.5,1.9-3,5.4-1.1,7.9,0,0,.1.2.2.2,5.3,6.2,10.9,12.5,16.8,18.8,7.4,7.9,8.6,16.1,3.6,24.7-11.5-17.3-23.9-28-37.9-41.3-1.5-1.4-1.5-3.8,0-5.3,0,0,0,0,0,0l30.6-29.4c1-1,1.7-2.1,2.2-3.4l2-4.9Z"/>
  <path class="cls-34" d="M2573.1,2234.7c-44.1,4.5-83.6-.8-126.1,16.5-24.2,9.9-51.5,31.2-76.6,47.2-3.5,2.2-3.8,1.9-.8-1,33.2-32.4,76.5-59.1,123.4-63.3,26.6-2.4,53.3-2.5,80.1-.5,3.8.3,3.8.6,0,1Z"/>
  <path class="cls-20" d="M4131.8,2234c3,4.9,6.4,10,8.5,15.4,12.7,33,25.6,65.9,38.8,98.6l26.3,50.5c.8,1.5.2,3.3-1.3,4.1-.2.1-.5.2-.7.3-50.6,11.7-100.5,25.5-150,41.5-1.3.4-2.5.3-3.6-.3l-26.9-14.8c11.7-2.9,23.8-4.3,36.5-4.2,1.7,0,2.4-.8,2.2-2.5l-4.3-32.1c-.3-2.3,1.3-4.5,3.6-4.8.4,0,.9,0,1.3,0l15.3,2.5c1.7.3,3.3-.9,3.6-2.6l16.8-95c.2-1.2,1.4-2,2.6-1.8.7.1,1.2.5,1.5,1.1,14.2,25.5,32.1,48.1,53.8,67.8.7.6,1.6.5,2.2-.2.4-.4.5-1,.3-1.5-10.8-27.5-25.6-52.7-44.4-75.7-.8-1-1.8-1.7-3-2.2l-5-2.2c-1.5-.7-2.2-1.8-1.9-3.5l2-12.2,25.8-26.2Z"/>
  <path class="cls-34" d="M2441.8,2274.1c-.5.2-1.1,0-1.3-.5-.2-.5,0-1.1.5-1.3,31.4-15.8,62.1-21.6,95.8-29.7,1.4-.3,1.5,0,.4.8-.7.6-1.6,1-2.4,1.3-30.7,9-61.7,18.8-93,29.4Z"/>
  <path class="cls-13" d="M1499.8,2344c5.5,4.7,11.9,6.7,19.2,6,1.4-.2,2.4.4,3.2,1.6.9,1.5,1.2,3.3.8,5.3-40.5-1.7-79-32.7-116.8-59.3-1.4-1-2.6-.7-3.4.8l-15.7,27.2c-.7,1.2-.7,2.4-.2,3.7,7.9,19.6,45.2,42,64.2,52.1,21.1,11.2,52.8,22.7,79.1,34.3,3,1.3,2.8,2.2-.4,2.6l-30.6,4.6c-1.2.2-2,1.3-1.8,2.5,0,.5.4,1,.8,1.3,47.7,39.8,88.3,48.2,156.2,57.5,26.2,3.6,52.4,7.7,78.5,12.2,0,.8.1,1.3.2,1.7-.9,3.5.7,5.6,4.8,6.2-1,3.7-.4,7.1,1.9,10,.8,1,1.2,2.2,1.1,3.5-.6,16.6,11,25,14,39.1-3.3-2.4-5.6-3.7-7-3.8-38.5-4-75-5.2-109.8-3.6-58.3,2.7-123,6.9-194.3,12.8-10.3.8-18.6,2.2-28.6-2.1-14.7-6.4-29-14.3-42.9-23.7-1.4-.9-2.5-.7-3.5.7-14.4,21.9-30.7,42.2-48.9,61-1,1-1.2,2.6-.5,3.8l22.6,39.7c1.2,2.1,3.3,3.3,5.7,3.4l81.1,1.5c1.4,0,2.5,1.2,2.5,2.6,0,.7-.3,1.3-.8,1.8-1.9,1.8-4.2,3.1-6.8,3.9-31.6,9.8-62.9,20.6-93.8,32.6-.7.2-1,1-.8,1.6,0,.1.1.3.2.4,23.3,26.9,45.1,55.1,65.5,84.8l-19,32.7c-18.5,21-41.7,29.6-69.8,25.7-15.8-5.7-29.6-14.2-41.4-25.5l27.3-6.2c1.4-.3,1.6-1,.6-2-16.5-15.9-27-30.8-52.8-34.9,7.4-9.6,16.2-18.3,26.4-25.9,2.3-1.6,4.3-3.7,5.8-6.3.7-1.1.7-2.3.1-3.4l-2.2-4.2c-1-1.9-.4-3.1,1.7-3.4,15.4-2.6,14.6-19.8,15.1-31.7l1.2-22.2,2.2-23.8,1.7-17v-45l2.2-23.8c3.6-6.9,4.9-14.2,4-22l4.8-27.2c2.9-6.9,6.1-13.7,9.7-20.4,13.2-24.3,8-50.6,20.3-74.6,0-4.7-1.6-15.1-4.9-31.1-7.7-37.7,47.2-75.2,74-94.1,1.1-.8,2.2-.8,3.4,0,30.8,19.6,61.1,41.3,94.5,56.3ZM1369.3,2458.4c12.2,33.8,42,54,67.8,71.6,1.6,1.1,2.8.8,3.6-1l46.4-101.1c.3-.7,0-1.5-.7-1.8-.3-.1-.6-.1-.9,0-37.7,12.1-75.9,22-114.7,29.8-1,.2-1.7,1.2-1.5,2.3,0,0,0,.2,0,.3Z"/>
  <path class="cls-10" d="M2227,2300.2l6.2,7c-1.5,14.5-1,28.5,1.4,42,.2,1.3,1,2,2.4,2.1,28.3,1.6,56.3,4.9,84.1,9.8,3.4.6,7.4.2,12-1.2l6-2c23.3,12.8,34.5,29.8,62.2,36.2l1.6,7.1c.3,1.3.3,2.6,0,3.9-1.7,6.5-10.4,37.2-18.6,36.1l-6-1.3c-5-29.8-16.6-65.5-52.5-65.8-1.5,0-2.8.4-4,1.4l-68.7,52.8c-1.5,1.2-3.2,1.4-5,.6l-22-10c-4.3-1.9-9.3-.6-12.1,3.2l-10.2,14c-21.8,4.8-43.7,6.8-65.6,6.1-1,0-1.6.5-1.8,1.4,0,.5-.1.9-.2,1.5l-5-8,.8-6.2c.2-1.3.1-2.5-.2-3.7-3.9-14.8-6.3-39.9-20.5-48.2,2.7-19.6-21.6-24.2-35.7-25.8-52-5.9-104.1-10.2-156.3-13.1-7.1-.4-14.1,0-21,1.2-29.3,6.1-44.2,23.3-63.8,41.8l-1.3-2c9.7-20.5,21.3-40,35-58.6,32.2-20.2,56.9-20.6,90.4-24.4l67.8-4.2c54.9-.5,109.8-.7,164.6-.8,13.5,0,24,3.1,36.4,7.2Z"/>
  <path class="cls-34" d="M1523,2356.8c1.1.9,2.3,1.3,3.4,1.2,1.8-.2,2.5-1.1,2.2-2.8l-3.4-23.6c-.3-2,.5-2.6,2.4-1.8l46.7,20.6c2.5,1.1,5.3,0,6.4-2.5.5-1.1.6-2.4.1-3.6l-2.2-6.4c-.5-1.4.2-3,1.7-3.5.5-.2,1.1-.2,1.6,0l43.1,10.7c6.3,5.2,2.6,31,3.2,39,.1,1.4.8,2.2,2.2,2.5,33.2,6.4,74.3,17.6,107.6,13.8,3.8-.4,3.9-1.2.2-2.3-19.8-5.9-40-9.3-60.8-9.9-4.6-.2-7-2.2-6.8-6.8,0-1.4.7-2.1,2.1-2.3,4-.6,8.4.2,12.2-1.2,42.2-15.1,84.3-14.6,126.2,1.5,1.2.5,2.4.4,3.6-.2l5.3-2.5c3.9,2.8,8.1,4.2,12.8,4.2l1.3,2c-24.7,25.3-52.7,55.4-83.9,90.2-7.6,8.5-13.3,16.2-17.3,23.1-26.1-4.6-52.2-8.7-78.5-12.2-67.9-9.3-108.6-17.7-156.2-57.5-.9-.8-1.1-2.1-.3-3,.3-.4.8-.7,1.3-.8l30.6-4.6c3.2-.5,3.3-1.4.4-2.6-26.3-11.6-58-23.1-79.1-34.3-19-10.1-56.4-32.4-64.2-52.1-.5-1.3-.4-2.5.2-3.7l15.7-27.2c.9-1.5,2-1.7,3.4-.8,37.8,26.6,76.4,57.6,116.8,59.3Z"/>
  <path class="cls-25" d="M2333,2359.8c-4.6,1.4-8.6,1.9-12,1.2-27.7-4.9-55.8-8.1-84.1-9.8-1.3,0-2.1-.8-2.4-2.1-2.4-13.5-2.9-27.5-1.4-42,16.6,1.6,32.9,4.6,48.8,9.1,3.5,1,7.7,3.1,12.4,6.2,13.5,9.2,42.6,14.8,38.6,37.3Z"/>
  <path class="cls-36" d="M1867.8,2322.4c-13.6,18.6-25.3,38.2-35,58.6-4.7,0-9-1.3-12.8-4.2-20.2-11.3-42.3-18.3-66.4-21.1,31-8.8,62.1-17.4,93.2-25.9,2.2-.6,5.5-2.1,10-4.6,3.5-1.9,7.2-2.9,10.9-3Z"/>
  <path class="cls-1" d="M3144.4,2327.9c40,30.3,71,68.3,93,114,.8,1.8.6,3.1.6,5l-106-18c3.5-16,5.6-32.4,6.4-49.1,0-1.8-.6-2.2-2.2-1.2-17,10.5-32.7,22.6-47.1,36.5-1.1,1-2.3,1.4-3.8,1.2-10-1.4-19.8-1-29.4,1-11.1-.8-21.8-3.5-32-8,38.1-27.1,76.5-53.8,115.1-80.1,1.8-1.2,3.1-1.2,5.3-1.2Z"/>
  <path class="cls-15" d="M2517,2397.8c-42.2,13.2-73.9,2.5-115.8-3.8-27.6-6.4-38.9-23.4-62.2-36.2.5-2.3,1.4-3.8,2.6-4.5,24.5-14.1,76.8-27,100.3-3.5,20.8,20.9,45.3,36,73.5,45.5,1.2.4,1.8,1.3,1.6,2.5Z"/>
  <path class="cls-11" d="M4393.4,2542.7l-28-15.3c-1.3-.7-2.6-.9-4.1-.6l-74.4,16.3-14.3-3.4c-1.6-.4-2.8.1-3.6,1.5-13.5,23.4-28.1,45.8-43.8,67.4-19.9-31.8-75.9,8.3-91.1,24.6,2.8-12.5,8.4-23.5,16.9-33,3.4-3.8,11.6-27.2,3.8-35,4.5-4.5-30.4-43.8-37.5-51.6-23-25.5-64-33.8-96.9-32-1.3,0-2.5.4-3.6,1.1l-7.1,4.5-3-3.3c11.2-10-23.5-60-31.3-68.8-.8-.9-1.2-2-1.1-3.2l.4-4.6c15.2,9.1,31.2,16.5,48,22l26.9,14.8c1.1.6,2.3.7,3.6.3,49.4-16,99.4-29.8,150-41.5,1.6-.4,2.6-2,2.3-3.6,0-.3-.1-.5-.3-.7l-26.3-50.5,16.7-9.3c1.1-.6,2.3-.7,3.5-.3l52.4,18.9c1.2.4,2.2,1.1,3.1,2.1,17.9,19.6,33.4,61.3,46.3,90.4,13,29.2,45,12.7,62.7,44.2,9.3,16.5,19.2,32.8,29.6,48.7Z"/>
  <path class="cls-15" d="M2111,2378.8c-51,52-103.9,100.4-159.1,147.8l-213.9-22.5c-4.1-.6-5.7-2.6-4.8-6.2,23.1,1.4,41.5-.5,55.2-5.6,27.8-10.5,77.2-32.5,148.2-66.1,7.8-3.7,10.3-9.5,7.4-17.2-7-18.7-15.9-38-26.8-58.1-3.2-5.8-7.3-7.6-13.6-5.6-1.4.4-2.5,0-3.3-1.1l-2.2-3.2c6.9-1.2,13.9-1.6,21-1.2,52.2,2.9,104.3,7.3,156.3,13.1,14.1,1.6,38.4,6.2,35.7,25.8Z"/>
  <path class="cls-36" d="M1898,2341.2l2.2,3.2c.8,1.2,1.9,1.5,3.3,1.1,6.3-2,10.5-.2,13.6,5.6,10.9,20.1,19.9,39.4,26.8,58.1,2.9,7.7.4,13.4-7.4,17.2-71,33.6-120.4,55.6-148.2,66.1-13.7,5.1-32.1,7-55.2,5.6-.1-.3-.2-.9-.2-1.7,4-6.9,9.7-14.6,17.3-23.1,31.2-34.9,59.2-64.9,83.9-90.2,19.6-18.6,34.5-35.7,63.8-41.8Z"/>
  <path class="cls-20" d="M3906,2387.8c-16.7-1.3-33.4-.6-50,2,1-11.6.4-23.1-1.8-34.6-.6-2.9,1.3-5.8,4.2-6.3.5,0,1-.1,1.4,0,29.9,2.2,59.6.3,89-5.6,1.7-.3,1.9,0,.7,1.2-11.2,10.5-37.8,30.6-43.5,43.4Z"/>
  <path class="cls-13" d="M1628,2343.8c9.1,6.6,14.4,15.6,15.7,27.2.2,1.4.7,2.5,1.8,3.4,4,3.6,10.1,5.7,15.6,4,30.5-9.6,61.3-17.1,92.6-22.6,24,2.7,46.1,9.8,66.4,21.1l-5.3,2.5c-1.2.6-2.4.6-3.6.2-42-16.2-84.1-16.7-126.2-1.5-3.8,1.4-8.2.6-12.2,1.2-1.3.2-2,1-2.1,2.3-.2,4.6,2.3,6.7,6.8,6.8,20.8.7,41,4,60.8,9.9,3.7,1.1,3.6,1.9-.2,2.3-33.3,3.8-74.4-7.4-107.6-13.8-1.4-.3-2.1-1.1-2.2-2.5-.6-8.1,3-33.8-3.2-39l3-1.3Z"/>
  <path class="cls-30" d="M3783,2368.8c4,.6,7.7,1.6,11,4.4,17.5,15.3,38.2,20.8,62,16.6,16.6-2.6,33.3-3.3,50-2,1.9.9,4,1.3,6,1.4,22.5,1,43.4,7,63,17.9l-.4,4.6c-.1,1.2.3,2.3,1.1,3.2,7.8,8.8,42.4,58.8,31.3,68.8-34.9,11.8-69.3,24.8-103.2,39-3.3,1.4-5.3,1-8.6,1.1-8.9-32.3-19.5-63.9-31.9-94.5-.6-1.5-2.3-2.2-3.8-1.5,0,0-.2,0-.2.1-10.4,5.4-19.8,12.1-28.3,20.1-17.5-26-30.5-52.2-51.2-76.2l3.2-3.2Z"/>
  <path class="cls-20" d="M3779.8,2372c20.7,23.9,33.7,50.1,51.2,76.2,15.4,28.9,33.4,56.2,54,81.7l-16.8,6.2c-9.3-22.1-31.2-46.6-46.6-65.4-.8-1-1.9-1.5-3.2-1.5-61.1-.4-81.2,20.6-110.3,68.7-15,24.9-26.5,51.4-34.3,79.7l-50.6,43.5c-18.8-26.6-39.5-51.7-61.9-75.3-1.3-1.3-2.7-2.5-4.3-3.6l88.2-66.2,37.9-21c1.2-.7,2.1-1.6,2.7-2.9,18.6-40,39.7-78.7,63.3-116,10.1-2.9,20.3-4.2,30.8-4.2Z"/>
  <path class="cls-29" d="M2378,2439.8c-13.1,11.9-25.2,25-36.3,39.1-7.1,9.1-6,16.7,3.4,22.9,14.8,9.8,28.2,22.7,28,41.6-.5,32.7-2.3,54.7,5.2,76.6,5,14.6,17.1,24.6,26.5,36.8.8,1,1.2,2.2,1.3,3.5l3.1,54.2c0,1,.9,1.8,1.9,1.7.2,0,.3,0,.5,0l85-26.5c1.1,2.5,1.2,6.8.4,13.1-30.7,1.3-32.6,28.6-48.3,47.8-13.6,16.6-28.5,40.6-42.9,50.2-33.1,21.9-65,45.4-95.8,70.3-15.7,4.5-30.6,10.9-44.7,19.3-1.1.7-2.4,1-3.7,1.1-7.4.2-13.5,3-18.2,8.3-1.8,2-3.7,2.6-6.2,2.2,8-27.6,18.8-57.7,40-78,19.5-6.7,95-37.6,70-71-14.7-16.1-75.3-9.4-94.7-6.6-25.4,3.7-50.6,8.9-75.5,15.4,4.8-62.2-46.7-91.3-102.2-93.2l-8.8-14.8c-12.2-17.3-26.5-32.5-43-45.7,15.7-19.4,29.4-37.1,34.7-63,.5-2.2-1-4.5-3.2-4.9-.2,0-.5,0-.7,0l-7.8-.2-3.9-1c-1.8-.5-1.8-1,0-1.7l10.8-4.2c1,2.7,3.2,4.8,6.6,6.1,1.4.6,2.6.3,3.6-.8,4.5-4.5,6.1-11.8,9.8-16.4,5.5-7,10.8-14.2,15.7-21.5,15.2-22.5,61.4,9,57.6-25.4,1.5,5.6,5.1,5.9,9.2,2.5,16.4-13.7,32.4-27.5,48-41.5l10.2-14c2.8-3.8,7.8-5.2,12.1-3.2l22,10c1.8.8,3.5.6,5-.6l68.7-52.8c1.2-.9,2.5-1.4,4-1.4,35.9.4,47.4,36,52.5,65.8ZM2298.8,2827.1c-4.9-.4-10.6-2.2-14.6,1.1-16.2,13.3-27.6,29.8-34.2,49.5-.9,2.7-.3,3,1.7,1.1l45-42.4c.9-.9,1.5-1.9,1.9-3.1l1.4-4.4c.4-1.1,0-1.8-1.3-1.9Z"/>
  <path class="cls-34" d="M3749,2376.2c-23.6,37.3-44.7,75.9-63.3,116-.6,1.3-1.5,2.2-2.7,2.9l-37.9,21c-2.7-12.8-7.6-24.9-14.7-36.1-.7-1.1-1.7-1.8-3.1-1.9-3.9-.5-7.5-1.7-10.7-3.7-47.8-29.4-95.5-59.1-143.1-88.8-1.5-.9-1.7-2.1-.6-3.5l3.7-4.9c1-1.3,2.2-1.6,3.6-.7l142.6,88.8c1.3.8,2.3.5,3-.9,14.8-32,26.7-58.5,35.6-79.5,1.9-4.4,5.1-6.6,9.6-6.7,25.9-.7,51.9-1.3,77.8-1.8Z"/>
  <path class="cls-3" d="M3132,2428.8c-25.6-2.1-50.9-5.9-76-11.7,9.5-2,19.3-2.3,29.4-1,1.5.2,2.7-.2,3.8-1.2,14.4-13.8,30.1-26,47.1-36.5,1.5-.9,2.2-.5,2.2,1.2-.8,16.7-2.9,33.1-6.4,49.1Z"/>
  <path class="cls-31" d="M2111,2378.8c14.2,8.4,16.6,33.4,20.5,48.2.3,1.2.4,2.5.2,3.7l-.8,6.2c-6.6-17.3-11.3-33.7-14-49.3-.4-2.4-2.7-4.1-5.2-3.6-.9.2-1.7.6-2.3,1.2l-22.8,21.4c-1,.9-1.8,2-2.4,3.2-1.5,2.9-3.9,5.6-7.2,8.2-5,3.9-11.3,11.1-19.1,21.4-.8,1.1-1.2,2.3-1.3,3.6-.8,24.1-.3,48.1,1.7,72,.5,5.6-1.4,11.6-5.4,18l-10.8,4.2c-1.7.7-1.7,1.2,0,1.7l3.9,1-4.5.2c-1.4,0-2.5.6-3.4,1.7-12.6,16.1-20.6,34.2-24.1,54.5-.2,1.4,0,2.6.8,3.8,1.1,1.5,1.7,3.2,2,5-13-3.7-26.3-5.7-39.8-6.2-5-14-22-55.4-20.6-68.4.5-4-1.1-5.3-4.6-3.8,55.2-47.4,108.1-95.8,159.1-147.8Z"/>
  <path class="cls-17" d="M2130.8,2437l5,8c1.3,10.8,4.7,20.8,10.3,30,3.8,34.4-42.4,3-57.6,25.4-5,7.4-10.2,14.5-15.7,21.5-3.7,4.6-5.2,11.9-9.8,16.4-1,1.1-2.3,1.3-3.6.8-3.4-1.3-5.6-3.4-6.6-6.1,4.1-6.4,5.9-12.4,5.4-18-2-24-2.5-48-1.7-72,0-1.3.5-2.5,1.3-3.6,7.7-10.3,14.1-17.5,19.1-21.4,3.3-2.6,5.6-5.3,7.2-8.2.6-1.2,1.5-2.3,2.4-3.2l22.8-21.4c1.8-1.7,4.7-1.6,6.4.2.6.6,1,1.4,1.1,2.3,2.7,15.6,7.4,32,14,49.3Z"/>
  <path class="cls-36" d="M2563,2393.8l3,5c-4.8,2.6-8.9,2-12.2-1.8,1.5-4.1,4.6-5.2,9.2-3.2Z"/>
  <path class="cls-25" d="M2401.2,2394c42,6.4,73.6,17,115.8,3.8,8.5-3.2,26.3.2,36.8-.8,3.3,3.8,7.3,4.4,12.2,1.8l197,210.3,1,5.7c-11.5,9.3-23.6,17.2-36.5,23.6l-6.5-3.3c-11.2-8.6-26.5-23.3-45.8-44.2-45.3-49-102-84-170-105.2-16.1-5-47.1-12.3-93-21.7-6.7-10.8-16.1-18.4-28.2-22.8,8.2,1.1,17-29.6,18.6-36.1.3-1.3.4-2.6,0-3.9l-1.6-7.1Z"/>
  <path class="cls-26" d="M3024,2409.2c10.2,4.5,20.9,7.2,32,8,25.1,5.7,50.4,9.6,76,11.7l106,18,105.9,19.3,62.1,12c-12,53.5-26.9,106.3-44.7,158.5l-31.6-15.8-.7-.9c-.3-.5-.8-.7-1.4-.7-17,1.2-28.2,3.7-33.8,7.4-17.4,12-37.4,17.7-60,17.2-25.3-.6-62-.1-110.2,1.4-1.4,0-1.9.8-1.8,2.1l20.1,137.1,23.9,167.2c-21.8-.2-43.4-2-64.8-5.3-33.3-7-66.9-11.3-101-12.9-9.4-.5-22.2-3.1-38.6-8.1-1.3-.4-2.1-1.2-2.5-2.5-1.1-3.8-3.5-6.1-7.2-6.9l-2.8-8.2-4.2-8.8c3-.7,3.9-2.6,2.7-5.7-.5-1.2-1.2-2.1-2.3-2.8-21.4-13.5-40.9-29.3-58.7-47.3-4-4.1-4.4-8.4-2.8-13.4,39.2-130.4,79.2-260,120.2-388.6.9-2.7,2.7-3.9,5.6-3.5,109.6,16.8,218.1,35.5,325.6,55.9,1.5.3,5.3.7,11.2,1.2,1.8.1,2.8-.7,3-2.5l.7-9.4c.1-1.6-.6-2.5-2.2-2.9-124.3-28.3-252.4-46.6-354-65-1.1-.2-1.9.2-2.2,1.4-2.4,7.8-3.3,16.9-5.6,23.9-39.9,124.7-75,237.9-105.3,339.6-7.1,23.9-16.3,45.8-27.7,65.8-.8,1.5-1.8,1.6-2.8.2-1.9-2.4-3-5-3.2-8l-18.2-45.2,14.5-48.2,29.4-94.6c16.4-47.8,31.1-96.1,44-145l32.5-100.9c.6-1.9,1.7-2.3,3.4-1.2,5.6,3.6,10.1,2.8,13.4-2.4.8-1.3,2-1.8,3.4-1.5l54.5,10.2ZM2997,2888c7.3,2.2,13.9,5.7,19.8,10.5,1.1.9,2.3,1.3,3.6,1.4,10.4.5,20.1-1.5,29.2-6.1,1.1-.6,1.8-1.5,2.1-2.7,1.7-8.3-.3-15.4-6.1-21.3-1.1-1.1-2.5-1.8-4.1-2l-42.6-4.4c-2-.2-2.9.7-2.9,2.6v20.6c0,.6.4,1.2,1,1.3Z"/>
  <path class="cls-15" d="M1332.8,2413c-12.3,24.1-7.2,50.4-20.3,74.6-3.6,6.6-6.8,13.4-9.7,20.4-5.2.4-84.1-55.5-96.7-63l1.8-3.2c42.3-6.4,84-16,124.8-28.8Z"/>
  <path class="cls-23" d="M2945,2899.2c-29.3-16.9-60.9-26-95-27.3l-2.8-33.8c.2,3,1.3,5.6,3.2,8,1.1,1.3,2,1.3,2.8-.2,11.3-20,20.6-41.9,27.7-65.8,30.3-101.7,65.4-214.9,105.3-339.6,2.2-7,3.1-16.1,5.6-23.9.3-1.1,1.1-1.6,2.2-1.4,101.5,18.4,229.6,36.7,354,65,1.5.3,2.3,1.3,2.2,2.9l-.7,9.4c-.1,1.8-1.1,2.7-3,2.5-5.9-.5-9.7-.9-11.2-1.2-107.4-20.5-215.9-39.1-325.6-55.9-2.9-.4-4.7.7-5.6,3.5-41,128.6-81,258.2-120.2,388.6-1.5,5.1-1.2,9.4,2.8,13.4,17.7,18,37.3,33.8,58.7,47.3,1.1.7,1.8,1.6,2.3,2.8,1.2,3.1.3,5.1-2.7,5.7Z"/>
  <path class="cls-34" d="M1437.1,2530c-25.7-17.6-55.5-37.8-67.8-71.6-.4-1,.2-2.1,1.2-2.5,0,0,.2,0,.3,0,38.8-7.8,77-17.7,114.7-29.8.7-.2,1.5.2,1.7.9,0,.3,0,.6,0,.9l-46.4,101.1c-.8,1.8-2,2.1-3.6,1Z"/>
  <path class="cls-15" d="M3895.2,2524c-2.2,4-5.6,5.9-10.2,5.8-20.6-25.5-38.6-52.7-54-81.7,8.5-8,17.9-14.7,28.3-20.1,1.4-.7,3.1-.2,3.9,1.2,0,0,0,.2.1.2,12.4,30.7,23,62.2,31.9,94.5Z"/>
  <path class="cls-34" d="M2203.4,2436c-15.7,13.9-31.7,27.8-48,41.5-4.1,3.4-7.7,3.1-9.2-2.5-5.6-9.2-9.1-19.2-10.3-30,0-.5,0-1,.2-1.5.2-1,.7-1.5,1.8-1.4,22,.7,43.9-1.3,65.6-6.1Z"/>
  <path class="cls-13" d="M2378,2439.8l6,1.3c12,4.4,21.4,12,28.2,22.8l3.5,29.6c.2,1.6,1.1,2.3,2.7,2,22.9-4,42-10.3,57.6,11,.8,1.1,1.2,2.4,1.2,3.8-.2,18.5-10.8,60.3,17,61.3,1.2,0,2.3-.3,3.3-.8,4.7-2.7,9.7-4.3,15.2-4.9,1.3-.1,2.5.3,3.5,1.2,13.1,11.4,6.3,33.3,2.4,50.6-.4,1.8.3,2.6,2.1,2.4,7-.8,39.4-14.4,28.6,9.3-4.1,9-8.2,18.1-12.2,27.3-.6,1.3-1.5,2-2.9,2.2-21.1,2.4-40.1,2.8-37.4,30.9l-85,26.5c-1,.3-2-.2-2.3-1.2,0-.1,0-.3,0-.4l-3.1-54.2c0-1.3-.5-2.5-1.3-3.5-9.4-12.3-21.5-22.2-26.5-36.8-7.5-21.9-5.7-44-5.2-76.6.3-19-13.2-31.9-28-41.6-9.4-6.2-10.5-13.8-3.4-22.9,11.1-14.1,23.2-27.1,36.3-39.1Z"/>
  <path class="cls-24" d="M1206.2,2445c12.6,7.5,91.4,63.4,96.7,63l-4.8,27.2c-40-4-79-.3-116.9,11.2-21.4-13.6-.2-25.1,4.3-37.1,8-21,14.9-42.5,20.8-64.2Z"/>
  <path class="cls-30" d="M2412.2,2464c45.9,9.5,76.9,16.7,93,21.7,68,21.2,124.7,56.3,170,105.2,19.3,20.9,34.6,35.6,45.8,44.2-4.6,8.8-11,16.1-19.2,21.8-.9.6-1.5,1.5-1.6,2.7l-.2,1.4c-.2,1.5-1.1,2.3-2.6,2.4-3,.2-5.2,1.7-6.4,4.3l-145.6-11.6c-2-.2-3.7,1.3-3.9,3.3,0,.9.2,1.9.8,2.6l13.4,16.3c2.6,3.1,2.1,7.7-1,10.3-.4.3-.8.6-1.3.9-17.7,9.2-36.5,13.6-56.4,13.3.9-6.2.7-10.6-.4-13.1-2.7-28.2,16.3-28.5,37.4-30.9,1.4-.2,2.4-.9,2.9-2.2,4-9.2,8-18.3,12.2-27.3,10.9-23.6-21.6-10.1-28.6-9.3-1.8.2-2.5-.6-2.1-2.4,4-17.4,10.7-39.2-2.4-50.6-1-.9-2.2-1.3-3.5-1.2-5.4.6-10.5,2.2-15.2,4.9-1,.6-2.1.9-3.3.8-27.7-1-17.1-42.8-17-61.3,0-1.4-.4-2.6-1.2-3.8-15.6-21.3-34.8-15-57.6-11-1.6.3-2.5-.4-2.7-2l-3.5-29.6Z"/>
  <path class="cls-29" d="M3868.2,2536l-162.2,58.2-5.2,2.8-27.1,20.5c7.8-28.3,19.3-54.9,34.3-79.7,29.2-48.2,49.2-69.1,110.3-68.7,1.3,0,2.4.5,3.2,1.5,15.4,18.9,37.4,43.4,46.6,65.4Z"/>
  <path class="cls-23" d="M3406,2478.2l26.8,8.9c3.8,1.3,5.2,3.9,4.2,7.7l-39,149.1c-13.9-.7-26.1-3.1-36.7-7.2,17.8-52.1,32.7-105,44.7-158.5Z"/>
  <path class="cls-32" d="M4155,2565.2c-39.8-6.8-69-11.8-105-7.3.5-5-34.8-60.8-40-70.7l7.1-4.5c1.1-.7,2.3-1.1,3.6-1.1,32.8-1.7,73.9,6.5,96.9,32,7,7.8,42,47.1,37.5,51.6Z"/>
  <path class="cls-33" d="M4007,2483.8l3,3.3c5.2,9.9,40.5,65.7,40,70.7l-299.8,115.7c-13.8-25.7-28.3-50.7-43.4-74.8-1.2-1.9-.7-2.6-.9-4.6l162.2-58.2,16.8-6.2c4.5.1,7.9-1.8,10.2-5.8,3.4-.1,5.4.2,8.6-1.1,33.9-14.2,68.3-27.3,103.2-39Z"/>
  <path class="cls-17" d="M1738,2504.2l213.9,22.5c3.5-1.4,5-.2,4.6,3.8-1.4,13,15.6,54.3,20.6,68.4-63.4.8-95.7,40.6-117.2,95.2l-.8,4.8c-7.4,11.9-16.4,22.4-27,31.5-1.3,1.1-2.5,1.1-3.8,0-.4-.3-.8-.5-1.2-.6l-29.9-71.9c-7.5-19.4-26.6-73.2-31.9-72l.9-1.6c.5-.9.6-1.9.3-2.9-2.5-8.9-6.3-17.1-11.4-24.7-3-14.1-14.6-22.5-14-39.1,0-1.3-.3-2.5-1.1-3.5-2.3-3-2.9-6.3-1.9-10Z"/>
  <path class="cls-3" d="M2916.8,2505c-12.9,48.9-27.6,97.2-44,145l-56.8,19.8c-5.1-4.8-10.4-5.4-15.8-1.7-1.1.7-2.3,1.2-3.6,1.4-10.8,1.8-26.4,15.3-32.7,1.2l18.8-7.6c1.4-.6,1.8-1.6,1.2-3l-20-45.4-1-5.7c47.4-32.2,94.5-64.8,141.2-97.9,3.2-2.3,7.4-4.3,12.6-6.2Z"/>
  <path class="cls-34" d="M4393.4,2542.7c8.1,9.1,17.6,16,28.4,20.8,23.6,17.1,48.7,30.7,75.2,40.8,1.3.5,2,1.5,1.9,2.9-.4,9.3-4.6,27.4,4.2,33.6,21.8,15.3,46.5,29.6,74.2,42.8,1.3.6,1.9,1.7,1.9,3.2l-.4,10.3c-8.1,23.4-9.8,47.4-5.1,71.9l-4.8-.2c-4-2.1-7.3-1.7-10,1-1.1,1.1-1.1,2.2,0,3.4,14.3,16.5,29.3,32.3,44.9,47.4,3.5,3.4,5.1,9.2,8.9,12.6,3.4,29.9,3.1,59.1-.7,87.6l-77.8,1.4c-1.9,0-2.6-.9-2.3-2.7.9-5.1,0-9.8-2.7-14-.8-1.2-1.8-2.1-3.2-2.7-10.6-4.8-21.6-8.1-33-9.7-27.2-5.3-104.5-12.6-125.6,8.1-1,1-1.4,2.1-1.4,3.4l.2,4.8c0,1.4-.6,2.2-1.9,2.6l-3.2.8c-3.8,2.9-6.5,6.7-8.2,11.2l-127.8-2.2c18.3-54.1,39.3-107.3,63.2-159.5.6-1.3.2-2.2-1.2-2.7-49-16.1-93-41-106.9-94-.3-1.2-1.5-1.9-2.7-1.6-.1,0-.3,0-.4.1-47.3,22.7-82.7,57.5-106,104.6l-23.3,7.3c-1.4.5-2.7.2-3.9-.7l-12-9.4c0-1.4,0-2.3.9-3.5,32.4-44.3,66.2-87.5,101.5-129.3,15.2-16.2,71.2-56.4,91.1-24.6-3.4,10.5-8,20.8-13.7,30.9-6.9,12.1-3.9,20.7,5.2,29.7,30.9,30.6,63.7,58.7,98.6,84.4,1,.7,1.6.5,2-.6,13.7-42.7,36.3-86.8,43-130.8.2-1.4-.2-2.6-1.2-3.6l-72.2-75.4,74.4-16.3c1.4-.3,2.8-.1,4.1.6l28,15.3Z"/>
  <path class="cls-9" d="M1298,2535.2c.9,7.8-.4,15.1-4,22-43-4.5-86.3,1.9-129.6,19.2-27.3,10.9-67.4,37.6-65.9,70.6.6,13.4,7.9,23.7,22,30.8,16.8,9.9,35.3,15.2,55.6,16,9.1,2.5,16.5.3,22.2-6.8,22.7,14.4,71.3-8.2,89.8-20.2l-1.2,22.2c-37.9,15.2-84,29.5-124.4,26.4-36-2.8-71.7-12.8-89.5-47.6l-4-21c5-42.7,33-63.9,68.2-82.8l43.9-17.7c37.9-11.4,76.9-15.1,116.9-11.2Z"/>
  <path class="cls-34" d="M1755,2556.8c5.1,7.6,8.9,15.8,11.4,24.7.3,1,.2,2-.3,2.9l-.9,1.6c-4.4,8.5-9.8,15-16.2,19.4-3.1,2.2-7.2,2.4-10.6.6-14.4-7.8-28-16.6-40.7-26.6-7.3-5.7-12.8-7.7-22.3-4.4-40,13.5-85.2,21.1-127.4,37.2l-3,1-18,5c-29.2-4.6-57.6-12.4-85.2-23.4-.6-.2-1.3,0-1.5.7-.1.3-.1.7,0,1,9.9,18.2,24.5,31.1,43.7,38.7l-5,30.8c-.3,1.6-1.2,2.8-2.7,3.4l-18.1,7.7c-1.4.6-2.3,1.9-2.3,3.4-.2,33.4,1.2,70.5-31,90.2-8.5,5.2-20.2,2.9-30,3.4-20.3-29.7-42.2-57.9-65.5-84.8-.5-.5-.4-1.3.1-1.8.1-.1.2-.2.4-.2,31-12,62.2-22.9,93.8-32.6,2.6-.8,4.9-2.1,6.8-3.9,1-1,1.1-2.5.1-3.6-.5-.5-1.1-.8-1.8-.8l-81.1-1.5c-2.4,0-4.6-1.3-5.7-3.4l-22.6-39.7c-.7-1.2-.5-2.8.5-3.8,18.2-18.7,34.5-39.1,48.9-61,.9-1.4,2.1-1.6,3.5-.7,13.9,9.4,28.2,17.3,42.9,23.7,10,4.3,18.3,3,28.6,2.1,71.3-5.9,136.1-10.2,194.3-12.8,34.7-1.6,71.3-.4,109.8,3.6,1.4.1,3.7,1.4,7,3.8Z"/>
  <path class="cls-33" d="M1054,2543.2c-162.2,116.5-322.9,235-482.2,355.4l-54.8-47.2c-1.1-1-1.1-2,0-2.9,35.1-28.3,69.7-57.2,103.6-86.8,6.9-6,14.5-10.8,22.6-14.4,43.7-19.2,87.9-37.3,132.4-54.2,11.1-4.2,20.7-9.8,30.4-15.8,73.4-45.1,147.1-89.9,221-134.2,10-6,17-4,26.8.2Z"/>
  <path class="cls-13" d="M4287,2543.2l72.2,75.4c1,1,1.3,2.2,1.2,3.6-6.6,44-29.2,88.1-43,130.8-.4,1.1-1,1.4-2,.6-34.9-25.7-67.7-53.8-98.6-84.4-9.1-9-12-17.6-5.2-29.7,5.7-10.1,10.3-20.4,13.7-30.9,15.7-21.6,30.2-44,43.8-67.4.8-1.4,2-1.9,3.6-1.5l14.3,3.4Z"/>
  <path class="cls-20" d="M2046,2539.8l7.8.2c2.3,0,4.1,2,4.1,4.3,0,.2,0,.5,0,.7-5.3,26-19,43.7-34.7,63l-5.8-2.2c-.1-.3-.2-.7-.3-1-.2-1.8-.9-3.5-2-5-.8-1.1-1.1-2.4-.8-3.8,3.5-20.2,11.5-38.4,24.1-54.5.9-1.1,2-1.7,3.4-1.7l4.5-.2Z"/>
  <path class="cls-2" d="M1054,2543.2c4.7-.3,9.4.5,14.1,2.4-106.1,77.6-213.2,154.2-318.3,233.3-55.9,42.1-112.6,87-171.8,124.3l-6.2-4.6c159.3-120.5,320-238.9,482.2-355.4Z"/>
  <path class="cls-33" d="M1068.1,2545.6c21.1,1.9,42.1,5.1,63.1,9.5,5,1,6.9,4.1,6,9-35.1,18.9-63.2,40.2-68.2,82.8-2.3,1-4.5,2.2-6.7,3.6-93.5,64.7-185.9,130.8-277.1,198.5-15.3-12.5-32.7-24.3-52.1-35.5-1.3-.7-2.5-.6-3.6.3l-48.8,39.8c-1.3,1-1.3,2.1,0,3,15.4,11.2,29.7,23.7,42.8,37.3-25.5,25.4-57.2,46.4-87.8,65.1l-19.8-15.2c-11-13.8-23.7-25.7-38.2-35.8l.2-4.8c59.2-37.2,115.9-82.2,171.8-124.3,105.1-79.1,212.2-155.8,318.3-233.3Z"/>
  <path class="cls-37" d="M1294,2557.2l-2.2,23.8c-7.6-.5-15.1-1.2-22.6-2.3-51.4-7.2-99.1,8.2-135.9,43.6-8.9,8.6-14.3,16.7-16.3,24.4-2.6,10-1.5,20.4,3.4,31.1-14.1-7.1-21.4-17.4-22-30.8-1.5-33,38.6-59.7,65.9-70.6,43.4-17.3,86.6-23.7,129.6-19.2Z"/>
  <path class="cls-3" d="M4155,2565.2c7.8,7.8-.4,31.2-3.8,35-8.5,9.5-14.1,20.6-16.9,33-35.3,41.9-69.1,85-101.5,129.3-.9,1.2-.8,2-.9,3.5-28.4,13.4-57.7,24.4-87.8,33-4.1,1.2-8.1,2.9-11.8,5-23.8-28.8-51.9-66.1-82.1-87.7-13.1-10.1-29.5-7.4-47.2-3.8-36.2,7.4-72.2,15.9-107.9,25.3l-8.2-.8-4.8-10.8c19.6-18.6,40.6-35.3,63-50.3l5.2-2.3,299.8-115.7c36-4.5,65.2.6,105,7.3Z"/>
  <path class="cls-35" d="M4667.8,2692c1.8,3.5,4.5,6.1,8.2,7.8v5c-19.2,7.2-67-8.8-87.7-15.4-1.8-.6-3.7.4-4.3,2.2-.2.6-.2,1.2,0,1.8.7,3.3-.9,4.6-5,3.7l.4-10.3c0-1.5-.6-2.5-1.9-3.2-27.7-13.2-52.5-27.5-74.2-42.8-8.8-6.2-4.6-24.3-4.2-33.6,0-1.4-.5-2.4-1.9-2.9-26.6-10.1-51.7-23.7-75.2-40.8,25.3-3.1,50.7-3.9,76.1-2.3,1.3,0,2.3.6,3.2,1.6,29,34,70.1,50.5,109.1,70,10.5,5.2,18.4,9.8,25,20.3,7.8,12.3,18.7,33.7,32.6,38.9Z"/>
  <path class="cls-35" d="M1765.2,2586c5.3-1.2,24.4,52.5,31.9,72-5.9-3.3-9.9-8.2-12-14.9-.8-2.6-3.6-4.1-6.2-3.3-.3,0-.6.2-.8.4-19.7,10.4-34.8,8.7-58.4,3.2-26-6-52.4-9.3-79-9.7-19-.3-88.5-4.5-92.6-21.6,42.2-16.2,87.4-23.7,127.4-37.2,9.5-3.2,15-1.3,22.3,4.4,12.7,10,26.3,18.8,40.7,26.6,3.3,1.8,7.4,1.6,10.6-.6,6.5-4.4,11.9-10.9,16.2-19.4Z"/>
  <path class="cls-15" d="M1291.8,2581v45c-40.9-12-75.6-3.7-104.1,24.8-11.2,11.2-15.1,25.5-11.8,43.1-20.3-.8-38.8-6.2-55.6-16-4.9-10.7-6-21.1-3.4-31.1,2-7.7,7.4-15.8,16.3-24.4,36.8-35.4,84.4-50.8,135.9-43.6,7.5,1,15.1,1.8,22.6,2.3Z"/>
  <path class="cls-18" d="M3557,2582.2c1.6,1,3,2.2,4.3,3.6,22.4,23.6,43.1,48.7,61.9,75.3l-.4,2.6-14.8,23.6c-.7,1.1-.7,2.5,0,3.6,9.9,15.3,21.1,29.5,33.4,42.7-2.5,1-4.6,1.4-6.4,1.4-19.2-15.6-35-37.2-59.7-60.2-33.3-31-65.6-49.5-111.2-53.8-1.4-.1-2.6.2-3.8.8l-36.4,21.2c.4-4.7,2.6-7.9,6.6-9.6,1.2-.5,2.2-1.3,2.9-2.4,4.3-6.6,9.4-10.6,13.6-17.6,3.5-5.7,8-10.7,13.4-15,1-.8,2.1-1.2,3.4-1.1,19.8.7,39.7.7,59.7,0,14.4-.5,22.6-6.9,33.3-15Z"/>
  <path class="cls-2" d="M3706,2594.2c.2,2-.3,2.7.9,4.6,15.1,24.1,29.5,49.1,43.4,74.8l-5.2,2.3.5-1c.2-.4.2-.8,0-1.2l-44.6-76.6,5.2-2.8Z"/>
  <path class="cls-13" d="M1527,2618.2l-5.7,4.9c-1,.9-2.2,1.4-3.5,1.7-11.7,2.1-23,5.6-33.8,10.4-19.2-7.6-33.8-20.5-43.7-38.7-.3-.6-.1-1.3.5-1.6.3-.2.7-.2,1,0,27.6,11,56,18.8,85.2,23.4Z"/>
  <path class="cls-33" d="M3700.8,2597l44.6,76.6c.2.4.3.8,0,1.2l-.5,1c-22.4,15-43.4,31.8-63,50.3-20.8-19.5-40.5-40.3-59.2-62.6l.4-2.6,50.6-43.5,27.1-20.5Z"/>
  <path class="cls-15" d="M1977,2598.8c13.5.4,26.8,2.5,39.8,6.2.1.3.2.7.3,1,.2,1.7,0,3-.9,4-.8,1-1.2,2.1-1.1,3.4,1.2,18,3.8,35.9,7.8,53.5-5.6,5.7-11.2,7.1-16.8,4.2-43.2-21.6-108.3-27.3-140.1,15.8-.8,1.1-1.3,2.3-1.4,3.6-.4,3.6-2,4.8-4.8,3.6,21.5-54.6,53.7-94.4,117.2-95.2Z"/>
  <path class="cls-37" d="M2017.2,2606l5.8,2.2c16.5,13.2,30.8,28.4,43,45.7-15.1,1.6-29.5,5.9-43,13-4-17.7-6.6-35.5-7.8-53.5,0-1.3.3-2.4,1.1-3.4.9-1,1.2-2.3.9-4Z"/>
  <path class="cls-1" d="M1548,2612.2c4.1,17,73.7,21.2,92.6,21.6,26.6.4,53,3.7,79,9.7,23.6,5.5,38.7,7.2,58.4-3.2,2.4-1.3,5.4-.4,6.7,2.1.1.3.3.6.4.8,2.1,6.6,6.1,11.6,12,14.9l29.9,71.9-2.8,4.2c-.2-4.6-2.6-7.3-7.2-8.2.1-4.1-1.3-7-4.2-8.6-18.9-10.4-35.3-22.3-49.1-35.5-8.2-8-24.2-26.2-36.6-17.7-12.5,8.6-26.2,22.6-41.1,25.9-30.3,6.8-53.9,23.5-71,50.1-1,1.6-4.1,4-9.1,7.1l-82.8-101.2c-.7-.8-.6-2,.1-2.8l18.9-20c1-1,1.6-2.3,1.8-3.7l1-6.4,3-1Z"/>
  <path class="cls-16" d="M1545,2613.2l-1,6.4c-.2,1.4-.8,2.6-1.8,3.7l-18.9,20c-.7.8-.8,2-.1,2.8l82.8,101.2-30,51c-6.2-2.1-10.5-6.4-12.9-13-.6-1.6-1.7-2.1-3.2-1.6-8.4,2.8-15,8.8-22.6,11.3-33.9,11.2-67.9,23.2-102,35.8-1,.4-1.6,1.5-1.2,2.5.2.6.8,1.1,1.4,1.3,26.5,6.7,53.4,13.5,80.6,20.6,14.6,3.7,41.1,7.2,61.1,16-6.9,15.2-19.6,25.2-38.2,30-24.9,6.4-45.6,9.8-62,10.2-11.9-4.2-21.7-11.4-29.4-21.5-.9-1.1-2-1.9-3.3-2.4-18-6.2-37-7.2-57.1-3-2.1-3.7-5.2-5.7-9.4-6.1-1.1,0-2.1-.5-2.9-1.4l-10.3-10.2c-2-2-2.4-5.2-.9-7.6l24-39.5c1-1.6,1-3.2,0-4.8-2.7-4.3-6.6-6.9-11.8-7.9l19-32.7c9.8-.5,21.5,1.8,30-3.4,32.2-19.7,30.7-56.8,31-90.2,0-1.5.9-2.8,2.3-3.4l18.1-7.7c1.5-.6,2.4-1.8,2.7-3.4l5-30.8c10.8-4.8,22.1-8.3,33.8-10.4,1.3-.3,2.5-.8,3.5-1.7l5.7-4.9,18-5Z"/>
  <path class="cls-13" d="M2764,2614.8l20,45.4c.6,1.4.2,2.4-1.2,3l-18.8,7.6c-12.3,2.2-24.6,2.6-37,1-4-10.3.8-22.6.5-33.4,12.9-6.5,25.1-14.3,36.5-23.6Z"/>
  <path class="cls-15" d="M3329.8,2620.9c.2,53.5.3,106.9.2,160.3,0,4.3,2.1,6.7,3,10.8l-190.9-7.4-20.1-137.1c-.2-1.4.4-2.1,1.8-2.1,48.2-1.5,84.9-2,110.2-1.4,22.5.5,42.5-5.2,60-17.2,5.5-3.8,16.8-6.3,33.8-7.4.6,0,1.1.2,1.4.7l.7.9Z"/>
  <path class="cls-3" d="M1291.8,2626l-1.7,17c0-.5,0-.9-.1-1.2-.1-.9-.6-1.4-1.5-1.6-36.6-5.5-66.5,5.6-89.9,33.4-3.8,4.5-3.9,9-.5,13.4-5.7,7-13.1,9.3-22.2,6.8-3.4-17.5.6-31.9,11.8-43.1,28.5-28.5,63.2-36.7,104.1-24.8Z"/>
  <path class="cls-37" d="M3329.8,2620.9l31.6,15.8c10.5,4.1,22.8,6.5,36.7,7.2,6.4,3.2,13,3.9,20,2,2.9,1.1,5.9,1.6,9,1.5,35.4-.9,70.6,0,105.5,2.6,1.5.1,2.6,1.4,2.5,2.9,0,0,0,.1,0,.2l-8,51.8-7,29c-8.5,8.3-1,18.5-2,30l-3,4c-4.9,6.8-10.9,12.8-18.2,18.1l-163.8,6.1c-.9-4.1-3-6.5-3-10.8,0-53.3,0-106.8-.2-160.3Z"/>
  <path class="cls-12" d="M3635,2734.8l-39-1,15.5-.5c.7,0,.9-.3.4-.9-.4-.5-.8-.8-1.3-1.2-.7-.5-1.5-.7-2.3-.8l-10.7-1.3c-1.1-.1-1.9-.7-2.5-1.7-4.3-8-4.5-15.7-.4-23.2.7-1.4.4-2.3-1.1-2.8-14.6-4.8-49.8,2.5-66.6,3.4l8-51.8c.2-1.5-.8-2.9-2.3-3.1,0,0-.1,0-.2,0-35-2.6-70.1-3.4-105.5-2.6-3.1,0-6.1-.5-9-1.5l6-3,36.4-21.2c1.2-.7,2.4-.9,3.8-.8,45.6,4.3,77.9,22.8,111.2,53.8,24.6,23,40.5,44.6,59.7,60.2Z"/>
  <path class="cls-11" d="M2721,2635.2l6.5,3.3c.3,10.7-4.5,23-.5,33.4l-5.2.4-30.8-4.4c1.2-2.7,3.3-4.1,6.4-4.3,1.5-.1,2.4-.9,2.6-2.4l.2-1.4c.2-1.1.7-2,1.6-2.7,8.2-5.8,14.7-13.1,19.2-21.8Z"/>
  <path class="cls-1" d="M1290.2,2643l-2.2,23.8c-18.5,12-67.2,34.7-89.8,20.2-3.4-4.5-3.3-8.9.5-13.4,23.3-27.8,53.3-39,89.9-33.4.9.1,1.4.7,1.5,1.6,0,.4,0,.8.1,1.2Z"/>
  <path class="cls-2" d="M1069,2646.8l4,21-75,59c-4.3,1-7.6,2.4-10,4.2-36.2,26.8-71.5,54.8-106,83.8l-104.2,83.2c-15.6,5.8-36.8,19.4-52.1,22-1.4.2-2.5.9-3.5,2l-22.5,25.7c-.5.6-.8,1.3-.8,2v1.2l-39.9,28.6c-1.1.8-2.7.5-3.5-.6,0,0,0,0,0,0-5.4-7.8-12-14.4-19.7-19.8,30.6-18.8,62.2-39.7,87.8-65.1,16.5-6.9,32.9-15,49-24.2,9.2-5.2,15.6-7.9,12.6-20.7,91.2-67.7,183.6-133.9,277.1-198.5,2.1-1.4,4.4-2.7,6.7-3.6Z"/>
  <path class="cls-35" d="M2872.8,2650l-29.4,94.6c-28-7.9-46.9-26.2-56.7-54.8-1.3-3.8-.1-6.5,3.5-8.2l25.7-11.8,56.8-19.8Z"/>
  <path class="cls-3" d="M2023,2666.8c13.5-7.1,27.9-11.4,43-13l8.8,14.8c-20.8,2.2-36.7,5.3-47.8,9.3-16.5,6-28.7,9.5-36.6,10.6-29-14.2-58.8-16.8-89.4-7.8-13.2,3.9-27.9,12-42.1,18l.8-4.8c2.7,1.2,4.3,0,4.8-3.6.2-1.3.6-2.5,1.4-3.6,31.8-43.1,97-37.4,140.1-15.8,5.6,2.8,11.2,1.4,16.8-4.2Z"/>
  <path class="cls-35" d="M2691,2667.8l30.8,4.4c1.3,4.4,1.3,8.5-.1,12.4-3,8.4-32.9,21.4-41.6,26.2-20.8,4.8-98,24.2-103,43l-11,9c-41.4,21.5-83.3,42-125.7,61.5-37.2,17.2-76.6,29-116,42-3.3,1.1-7,3-11.3,5.8l-3-1c30.8-25,62.8-48.4,95.8-70.3,14.4-9.6,29.3-33.6,42.9-50.2,15.6-19.2,17.6-46.5,48.3-47.8,19.9.3,38.7-4.1,56.4-13.3,3.6-1.9,5-6.3,3.2-9.8-.2-.5-.5-.9-.8-1.3l-13.4-16.3c-1.3-1.5-1.1-3.8.5-5.1.7-.6,1.7-.9,2.6-.8l145.6,11.6Z"/>
  <path class="cls-35" d="M1763.7,2681.8c-3.7,4.4-4.7,10.9-3,19.5,5.8,29.9,11.6,53,17.4,69.3-26.1,32.6-54.4,63.1-85,91.4-19.6-28.9-37-19.2-64-10.7-10.8-4.7-63.4-29.5-62.2-38.2l9.2-14.8,30-51c5-3.1,8-5.5,9.1-7.1,17-26.6,40.7-43.3,71-50.1,14.8-3.4,28.6-17.4,41.1-25.9,12.3-8.4,28.4,9.8,36.6,17.7Z"/>
  <path class="cls-2" d="M3622.8,2663.6c18.7,22.2,38.5,43.1,59.2,62.6l4.8,10.8-45.4-3.5c-12.3-13.1-23.5-27.4-33.4-42.7-.7-1.1-.7-2.5,0-3.6l14.8-23.6Z"/>
  <path class="cls-13" d="M4225,2921.8c-24.6,1.1-49.9.6-75.9-1.5,2.7-1.8,4.9-4.1,6.4-6.7.8-1.4.7-2.7-.3-4-14.9-19.3-25.6-40.4-32.2-63.4-3.6-12.4-9.4-17-21-20.4-7-20.9-17.3-39.9-31-57,23.3-47.1,58.7-82,106-104.6,1.1-.5,2.4,0,2.9,1,0,.1.1.3.1.4,14,53,57.9,77.9,106.9,94,1.4.5,1.8,1.3,1.2,2.7-23.9,52.3-44.9,105.4-63.2,159.5ZM4111.6,2747.9c-11,21,17.4,30.8,32.5,34.6,2.6.6,5.3-1,5.9-3.6.3-1.4,0-2.9-.8-4-9-12.3-20.5-21.7-34.4-28.1-1.4-.6-2.5-.3-3.2,1.1Z"/>
  <path class="cls-1" d="M2816,2669.8l-25.7,11.8c-3.7,1.7-4.8,4.4-3.5,8.2,9.8,28.6,28.7,46.9,56.7,54.8l-14.5,48.2c-9.5-12.6-20.5-23.6-33-33-8.5-10.6-18.8-18.9-31-25-10.7-10.8-21.8-9.3-33.8-15.6-10.9-5.6-22.5-9.2-34.8-10.6-1.3-.2-2.5.1-3.6.9l-4.8,3.4c-3,.7-5.7,0-8-2,8.8-4.8,38.6-17.8,41.6-26.2,1.4-3.8,1.4-7.9.1-12.4l5.2-.4c12.4,1.6,24.7,1.2,37-1,6.3,14.1,21.9.6,32.7-1.2,1.3-.2,2.5-.7,3.6-1.4,5.4-3.7,10.6-3.1,15.8,1.7Z"/>
  <path class="cls-36" d="M1073,2667.8c17.8,34.8,53.5,44.8,89.5,47.6,40.4,3.1,86.4-11.2,124.4-26.4-.5,12,.3,29.1-15.1,31.7-2.1.3-2.7,1.5-1.7,3.4l2.2,4.2c.6,1.2.5,2.3-.1,3.4-1.5,2.6-3.5,4.7-5.8,6.3-11.1-4.2-21.1-9.8-30-16.8-12.9-10.1-58.6-1.5-76.1-.9-1.4,0-2.6.7-3.4,1.9l-30,44.8c-23.4-3-63.1-3.1-66.2-33.8-.1-1.4-.9-2.1-2.3-2.2l-60.3-4.2,75-59Z"/>
  <path class="cls-18" d="M2074.8,2668.7c55.5,1.8,107,31,102.2,93.2l-67,24,2.9-3.4c1-1.2,1.1-2.4.1-3.7l-37.8-50.8c-2.3-3.1-4.2-2.9-5.6.8-20.4,53.4-46.7,100.8-100.8,122.2-11.4,4.5-72.6,19.5-86.8,12.9l.5-3.4c6.6-13.5,14.4-25.7,23.4-36.5-.8,5.1,1.9,7.5,6.9,6.5,41.1-7.8,107.4-25.1,106.1-80.5,0-2.4-2.1-4.3-4.5-4.3-1,0-2.1.4-2.8,1.1-27.4,25.2-56.5,45.2-87.3,60.1l-1.3-3c1.7-22.3,7.1-43.7,16.3-64,12.3-20.7,29.4-37.8,51.3-51.4,7.8-1,20-4.5,36.6-10.6,11.1-4.1,27-7.2,47.8-9.3Z"/>
  <path class="cls-16" d="M4676,2699.8c-3.6-1.8-6.3-4.4-8.2-7.8,14.8-9.2,50-24.6,66.8-16.7,14.4,6.8,13.6,25.7,8.8,39.6-.6,1.7-1.7,2.2-3.4,1.4-16.9-8-18.4-26.7-42-21.9-7.4,1.5-14.7,3.3-22,5.5Z"/>
  <path class="cls-36" d="M1990.4,2688.6c-21.9,13.6-39,30.7-51.3,51.4-.6-4.1-2.4-6-5.5-5.8-31.4,2.2-64-.7-94.9,4-2.1.3-3.5,2.2-3.2,4.3.1.9.6,1.8,1.3,2.4l75,63.4c1,.9,2.1.9,3.2.3l7.6-4.5,1.3,3-18.3,17c-9,10.8-16.8,22.9-23.4,36.5l-13.5-22.5c-.7-1.1-1.5-1.3-2.6-.5-1.4,1.1-3.3,1.7-5.4,1.7-16.4-28.5-38.4-71.8-36.8-105.2l2.8-4.2c.4,0,.8.3,1.2.6,1.3,1,2.6,1,3.8,0,10.6-9.1,19.6-19.6,27-31.5,14.2-6.1,28.8-14.1,42.1-18,30.5-9.1,60.3-6.5,89.4,7.8Z"/>
  <path class="cls-27" d="M1763.7,2681.8c13.8,13.2,30.1,25.1,49.1,35.5,3,1.6,4.4,4.5,4.2,8.6-13.1,8.1-17.5,20.5-13.1,37.2,13.2,49.5,31.6,79.6,55.1,120.8l-15,3c-12.7-5.4-23.9-13-33.6-22.8-1-1-1.8-.9-2.6.2-.3.4-.6.7-1,.8-2.9-1.3-4.2-3.4-3.9-6.2.1-1.3,0-2.5-.4-3.8l-24.6-84.4c-5.8-16.3-11.6-39.4-17.4-69.3-1.7-8.6-.7-15.1,3-19.5Z"/>
  <path class="cls-1" d="M4676,2704.8c28.1.8,16.3,36.1,14.8,53.1-2,22.2,20.2,24.5,34.2,35.2-33.1,11.8-68.5,11.9-87.4-23.2-17-31.4-42.4-7.6-62.4,1.1l-1.3-2c-4.6-24.5-2.9-48.5,5.1-71.9,4.1.9,5.7-.3,5-3.7-.4-1.8.7-3.6,2.5-4,.6-.1,1.2-.1,1.8,0,20.7,6.6,68.6,22.6,87.7,15.4Z"/>
  <path class="cls-4" d="M3596,2733.8h-76l7-29c16.8-.9,52.1-8.2,66.6-3.4,1.5.5,1.9,1.4,1.1,2.8-4.1,7.5-3.9,15.2.4,23.2.5,1,1.4,1.5,2.5,1.7l10.7,1.3c.8.1,1.6.4,2.3.8.5.3.9.7,1.3,1.2.5.6.3.9-.4.9l-15.5.5Z"/>
  <path class="cls-27" d="M2765,2734.8c-7.7-1.8-15.1-4.1-22.4-7-18.3-7.4-36.3-10-54.6-15l4.8-3.4c1.1-.7,2.3-1,3.6-.9,12.3,1.5,23.9,5,34.8,10.6,12,6.3,23.1,4.8,33.8,15.6Z"/>
  <path class="cls-1" d="M3850.1,2716.3c-20.4,41.1-42.1,81.4-65,121-2.1,3.6-4.2,6.3-6.2,8.2-2.2,1.9-2,3.6.4,5.2,18.2,12,38.2,16.7,59.9,14.1,1.3-.2,1.5.3.7,1.3-19.4,23.1-54.4,35.4-80.6,50l4.8-7.3c1.1-1.7.6-2.6-1.3-2.9-11.5-1.7-21.6-6.5-30.2-14.4-1-.9-2.2-1.4-3.5-1.4h-3.7l-.3-4c3.4-12.4,8.9-23.8,16.5-34.2,1.1-1.5.8-2.7-.9-3.4l-23.3-10.4-4.3-5c4.2-4.9-12.8-73.2-15.7-83.3-.4-1.3-.4-2.7,0-4,.9-3.2.2-5.8-2.1-7.9,35.7-9.5,71.7-17.9,107.9-25.3,17.6-3.6,34-6.3,47.2,3.8Z"/>
  <path class="cls-19" d="M2680,2710.8c2.3,2,5,2.7,8,2,18.4,5,36.4,7.6,54.6,15,7.3,2.9,14.7,5.3,22.4,7,12.2,6.1,22.5,14.4,31,25l-24,23.3c-11.5-10.9-24.4-19.7-38.8-26.3-39-18.1-73.6-13.1-103.9,15.1-18.6-1.1-36-7.1-52.4-18.1,5-18.8,82.2-38.2,103-43ZM2665,2725.4c5.2,9.8,17.1,17,28,14.1,1.6-.4,2.1-1.4,1.4-2.9-5.2-11.2-16.2-22-28.6-14.1-1.1.7-1.4,1.7-.8,2.9Z"/>
  <path class="cls-30" d="M1266.2,2738.1c-10.2,7.7-19,16.3-26.4,25.9-17.5,17.5-49.3,22.3-73.8,21.8-11.6-9.1-24.7-15.4-39.2-18.8l30-44.8c.8-1.2,1.9-1.8,3.4-1.9,17.5-.6,63.2-9.2,76.1.9,8.9,7,18.9,12.6,30,16.8Z"/>
  <path class="cls-7" d="M3850.1,2716.3c30.2,21.6,58.3,59,82.1,87.7l3.4,13.9c.4,1.6,1.3,2.1,2.8,1.3l14-7.4c1.3-.7,2.7-1,4.1-.9,19.5.9,38.4,4.8,56.6,11.7.9.3,1.3,1.3,1,2.2,0,0,0,0,0,0-15.3,36.5-27.9,74-38,112.4-1.5,5.8-1,6,1.4.5,15-32.8,29.2-63.8,55.6-89.4,1.5-1.5,2.9-1.4,4.3.2l4.6,5.3c.9,1,2,1.6,3.4,1.8l3.4.4,88.3,66,20.8,25.8-20,6.3c-34.3,8-58.4,15.6-72,22.8-15.9,8.4-34,20.4-52.3,21-17.6.5-35.2-.6-52.8-3.4-1.6-.2-2.3-1.2-2.1-2.8l7-56.8c.1-1.1-.3-1.7-1.4-1.7-30.4-1-60.8-.2-91.2,2.3-11.2.9-12.3-2-3.5-8.9l43.2-33.6c1.3-1,1.1-1.5-.5-1.5-32-.9-82.3,8-97.4,39.4-.6,1.3-.6,2.6,0,3.8,7.3,16.4,71.3,44.8,89.4,54.1,2.7,1.4,2.5,2.1-.5,1.9l-162.5-7.7c-2.1,0-4-1.3-5-3.2-4.7-9.3-7.5-19-8.5-29.4-.1-1.3.2-2.5.9-3.5,8.1-12.4,18.2-22.7,30.3-31,26.2-14.6,61.2-26.8,80.6-50,.9-1,.6-1.4-.7-1.3-21.8,2.6-41.7-2.1-59.9-14.1-2.4-1.6-2.5-3.3-.4-5.2,2.1-1.8,4.2-4.6,6.2-8.2,22.9-39.6,44.6-80,65-121ZM3876.2,2844l14.1,4.4c1.6.5,3,.2,4.3-.9l24.4-21.1c1.2-1,1.6-2.3,1.2-3.9l-1.6-5.6c-.6-2-1.7-2.4-3.3-1-12.2,10.3-25.2,19.4-39.2,27-.3.1-.3.5-.2.7,0,.1.2.2.3.3Z"/>
  <path class="cls-31" d="M2693,2739.5c-10.9,2.8-22.8-4.4-28-14.1-.6-1.2-.4-2.2.8-2.9,12.4-7.8,23.4,2.9,28.6,14.1.7,1.5.3,2.5-1.4,2.9Z"/>
  <path class="cls-3" d="M1817,2725.8c4.5.8,6.9,3.5,7.2,8.2-1.6,33.4,20.4,76.7,36.8,105.2,2.9,11.8,9,21.4,18.2,28.8l-4.2,15.8h-16c-23.4-41.2-41.9-71.3-55.1-120.8-4.4-16.7,0-29.1,13.1-37.2Z"/>
  <path class="cls-28" d="M2110,2785.8c-52,20.7-96.7,51.7-134.2,93-6.7,7.4-9.8,15.6-22,8.2-1.1-.7-2.4-1.1-3.8-1.1l-75.1-2.1,4.2-15.8,2.8-4.2c14.2,6.6,75.4-8.4,86.8-12.9,54.1-21.4,80.4-68.8,100.8-122.2,1.4-3.7,3.3-3.9,5.6-.8l37.8,50.8c1,1.3.9,2.5-.1,3.7l-2.9,3.4Z"/>
  <path class="cls-10" d="M998,2726.8l60.3,4.2c1.4.1,2.1.8,2.3,2.2,3.1,30.8,42.8,30.8,66.2,33.8,14.5,3.4,27.6,9.6,39.2,18.8-25.8,5.5-87,28.8-80.8,61.2l-1.2,19.8c-22.8,15.6-8,33.7-2.6,53.2l-214.8,6.6c8.8-29.2,22.7-55.8,41.7-79.8.9-1.1.9-2.3,0-3.4l-26.1-28.6c34.5-29.1,69.8-57,106-83.8,2.4-1.8,5.7-3.1,10-4.2Z"/>
  <path class="cls-8" d="M3635,2734.8c1.8,0,4-.4,6.4-1.4l45.4,3.5,8.2.8c2.3,2.1,3.1,4.7,2.1,7.9-.4,1.3-.4,2.6,0,4,2.9,10.1,20,78.4,15.7,83.3l-95.8-6.8-23.6-3.3c-5.2-.7-5.3-1.8-.2-3.2,4.9-1.3,26.8-2.6,26-8.6,1.3,3.8,3.6,5.8,6.8,6,2.3.1,4.3-1.7,4.5-4,0-.2,0-.5,0-.7-4.1-35.8-85-48.6-112.4-48.4,1-11.5-6.5-21.7,2-30h76l39,1Z"/>
  <path class="cls-5" d="M1939.2,2740c-9.2,20.3-14.6,41.7-16.3,64l-7.6,4.5c-1.1.7-2.2.6-3.2-.3l-75-63.4c-1.6-1.3-1.8-3.7-.5-5.4.6-.7,1.4-1.2,2.4-1.3,30.9-4.6,63.5-1.7,94.9-4,3.1-.2,4.9,1.7,5.5,5.8Z"/>
  <path class="cls-15" d="M2347.2,2753c-7.8-4-14.5-3.5-20,1.6l-5.5.4c-1.3,0-2.5.5-3.6,1.2-38,25.4-59,46.3-89.9,82.8l-14.4,15.9c-11.4-2-11.7,5.6-17.4,11-45.9,43-112.1,81.9-175.6,88.6-20,2.1-30.3-15.6-49-19.8-1.2-.3-1.8-1-1.8-2.3,0-4.7,4.4-42.2-7.2-35.4-1.2.7-1.6,1.7-1.2,3.1,12.3,40.3-28.8,43-55.3,44.1-1.5,0-2.4.8-2.7,2.4l-3.5,18.8c-.3,1.5-1.2,2.2-2.8,2.1-39.7-2.3-78.4-5.2-119.3-11.8-3.9-.6-6.5-4.7-5.7-9.2,0,0,0,0,0-.1,1.6-9.5,16.4-20.8,22.3-29.4,1-1.5.6-2.2-1.2-2.2-26.4,0-41.5,18.3-35.3,44.6-14.7-13.6-28.6-31.8-4-45.2l52.2-18.8,37.8-8.2,15-3h16l75.1,2.1c1.4,0,2.7.4,3.8,1.1,12.1,7.4,15.2-.8,22-8.2,37.4-41.3,82.1-72.3,134.2-93l67-24c24.9-6.5,50.1-11.7,75.5-15.4,19.4-2.9,80-9.6,94.7,6.6ZM1885.2,2922.2c16.4,2.2,46.5,2.2,58.2-11.6.9-1,1.1-2.2.6-3.5-6.6-18.2-51.1,5.4-59.7,12-2.2,1.7-1.9,2.7.8,3.1Z"/>
  <path class="cls-28" d="M1905.8,2824l18.3-17c30.8-14.9,59.9-34.9,87.3-60.1,1.8-1.6,4.6-1.5,6.2.3.7.8,1.1,1.8,1.1,2.8,1.3,55.4-65,72.7-106.1,80.5-5,1-7.7-1.4-6.9-6.5Z"/>
  <path class="cls-36" d="M4144.1,2782.5c-15.1-3.8-43.6-13.6-32.5-34.6.7-1.4,1.8-1.7,3.2-1.1,14,6.5,25.5,15.8,34.4,28.1,1.6,2.2,1.1,5.2-1.1,6.8-1.2.8-2.6,1.1-4,.8Z"/>
  <path class="cls-34" d="M2772,2783.2c24.1,28.5,33,62.7,19,96.7l-18.8,8.2-7.6-1.9c-1.3-.3-2.5-.1-3.6.7-17.1,12.2-65.9-2-81.4-12.1-23.1-15-56.4-53.6-53.3-83.9.6-5.7,1.6-12,3.2-18.8,30.2-28.2,64.9-33.2,103.9-15.1,14.3,6.6,27.2,15.4,38.8,26.3ZM2670.3,2861.7c11.7,11.2,23.2,18.1,34.6,20.6,9.2,2.1,9.5,1.1.9-2.7-29.7-13.3-48.6-33.8-56.8-61.3-13.3-44.6,26-60.8,62-54.3,1.7.3,2.9,0,3.6-.9.9-1.1.6-1.8-.8-2.1-79.9-17.1-87.9,58-43.4,100.8ZM2684.8,2861.2c21.5,18.3,78.8,39.7,83.9-6.6,3.9-35.1-10-60.3-41.8-75.6-17.9-8.6-51.8-7.6-64.7,11.4-14.9,22,5.1,56,22.6,70.9Z"/>
  <path class="cls-3" d="M2347.2,2753c25,33.4-50.5,64.3-70,71,0-.5-.1-.9-.2-1.4-.1-.9-.7-1.5-1.6-1.6-.5,0-.9-.1-1.4-.2,13.4-6.7,26.4-12.6,40.5-17.8,10.1-3.7,19.9-10.6,24.5-20.8,1.3-2.8,3.1-5.2,5.5-7.2,1.2-1,1.9-2.4,1.9-4l.2-9.6c0-1.8-.8-2.5-2.6-2.2-6.1.9-11.7-.7-16.9-4.6,5.5-5.1,12.2-5.7,20-1.6Z"/>
  <path class="cls-22" d="M2577,2753.8c16.3,11,33.8,17,52.4,18.1-1.5,6.8-2.6,13.1-3.2,18.8-3.1,30.3,30.2,68.9,53.3,83.9,15.5,10.1,64.3,24.4,81.4,12.1,1.1-.8,2.3-1,3.6-.7l7.6,1.9c-24.4,10.5-43.1,27.2-56.2,50.2-20.8-.3-41.3-2.8-61.6-7.4-9.8-2.3-22.4-3.9-30.4-3.2-29.3,2.6-58.6,5.8-87.8,9.4-14,1.8-29.4,6.4-44.2,8.9-9.5,2.1-18.5,5.5-27,10.2-.9.5-1.7.4-2.4-.3l-1-1c-1.2-1.2-2.5-1.5-4.1-1.1-37.3,9.6-75.2,16.9-113.7,21.8l12.8-12.7c.9-.9,2-1.5,3.2-1.9,7.7-2.4,14.1-2,21.7-5,20.7-8,41.3-7.8,61.6-14.6,15.7-2,31.3-4.2,46.9-6.6,11.4-1.7,20-4.3,25.7-7.6,1.1-.7,2.3-1,3.6-1,30.5.2,57.6-8.8,88.9-6.8,1.2,0,2.3-.9,2.3-2.1,0-.6-.2-1.3-.7-1.7-27-25.3-48-63.7-48.7-101.3-.3-15,4.6-32.1,8.3-47.6.3-1.1-.1-1.6-1.2-1.6h-1.1c-.2,0-.3,0-.4-.2l-.6-1.9,11-9Z"/>
  <path class="cls-26" d="M2327.1,2754.6c5.2,3.9,10.9,5.5,16.9,4.6,1.7-.3,2.6.5,2.6,2.2l-.2,9.6c0,1.6-.7,2.9-1.9,4-2.4,2.1-4.2,4.5-5.5,7.2-4.6,10.1-14.4,17.1-24.5,20.8-14,5.2-27.1,11.1-40.5,17.8-4.6,2.5-9.5,3.4-14.6,2.8-1.4-.2-2.5-.7-3.5-1.6-9-8.4-21.6,11.8-26.7,17.9l-1-1c30.9-36.5,51.9-57.4,89.9-82.8,1.1-.7,2.3-1.1,3.6-1.2l5.5-.4Z"/>
  <path class="cls-16" d="M4725,2793.2c17.4-4,35-7.6,52.7-10.9,16.4-3,30.2,3.2,44.1,10.4,1.1.6,1.7,1.4,2,2.6,1.5,8.1-.7,14.2-6.8,18.4-1.2.9-2.6,1.1-4,.7-17.6-5.2-35.5-7.2-53.8-6.2-.6,0-1.1.6-1,1.2,0,.4.3.8.6,1,9.7,4.6,18.8,10.5,27.4,17.7-3.4,10.7-17.9,6.5-26,5.8-1.4-.1-2.8-.6-4-1.4-7-4.6-14.7-6.3-23.3-5.2-1.5.2-2.6,1.4-2.8,3l-1.4,19.3c-.1,1.7-1,2.6-2.8,2.6-9.8,0-19.3-11.3-26.1-17.4-.9-.8-1.9-1-3-.8-21.7,5.3-17.4,32.6-18,49.3,0,1.4-1.3,2.5-2.7,2.5-.2,0-.5,0-.7-.1-4.4-1.5-8.1-4.3-11.1-8.5-13.7-19-30.9-33.6-51.5-43.6-3.8-3.4-5.4-9.3-8.9-12.6-15.6-15.1-30.6-30.9-44.9-47.4-1-1.1-1-2.3,0-3.4,2.7-2.8,6-3.1,10-1,0,3.7,2.1,4.5,6.2,2.2,20-8.7,45.4-32.5,62.4-1.1,19,35.2,54.3,35,87.4,23.2Z"/>
  <path class="cls-3" d="M2670.3,2861.7c-44.4-42.8-36.4-117.9,43.4-100.8,1.4.3,1.6,1,.8,2.1-.7.9-1.9,1.2-3.6.9-36-6.5-75.3,9.7-62,54.3,8.2,27.5,27.1,48,56.8,61.3,8.6,3.9,8.3,4.8-.9,2.7-11.4-2.5-22.9-9.4-34.6-20.6Z"/>
  <path class="cls-22" d="M2796,2759.8c12.5,9.4,23.5,20.4,33,33l18.2,45.2,2.8,33.8-59,8c14-34,5.1-68.2-19-96.7l24-23.3Z"/>
  <path class="cls-17" d="M2566,2762.8l.6,1.9c0,.2.2.2.4.2h1.1c1.1,0,1.5.5,1.2,1.6-3.6,15.5-8.6,32.6-8.3,47.6.7,37.6,21.7,76,48.7,101.3.9.8.9,2.2,0,3.1-.4.5-1.1.7-1.7.7-31.3-2-58.4,7-88.9,6.8-1.3,0-2.5.3-3.6,1-5.7,3.4-14.3,5.9-25.7,7.6-15.6,2.3-31.2,4.5-46.9,6.6-11.5-1.5-19.8-1.8-25-1-43.3,6.6-86.9,9.9-130.8,9.6-24.1-.1-43.6,9-66.8,7.1-2.4-.2-3.3.6-5,2-1,.9-2.1,1.3-3.4,1.2-13.8-.6-27.5.7-41,3.8l-22-1c2.4-4.8,2-9.1-1-12.7,20.7-21.4,55.6-29.2,82.3-41.3l5.7-4c2,.9,3.8,1,5.2.2,2.2-1.2,3.3-1.8,3.4-1.8,24.1-7.5,46.8-17.9,68.4-31,4.2-2.8,8-4.7,11.3-5.8,39.4-13,78.8-24.8,116-42,42.4-19.5,84.3-40.1,125.7-61.5ZM2344.3,2881.8c-19.3,10.2-39,18.4-59.4,24.8-1.1.4-1.7,1.6-1.3,2.6.3.8,1,1.3,1.8,1.4,32.2.8,64.2,1.6,96,2.5,7,.2,13.8-.9,20.5-3.4,30-11.2,60.2-21.9,90.7-32.2,1.9-.7,2.1-1.7.6-3-4.3-3.8-12.1-4.1-16-5.3-24.6-7.1-49.1-14.1-73.7-21-1.3-.3-2.5-.3-3.7.3-20.4,9-40.4,25.3-55.6,33.3Z"/>
  <path class="cls-32" d="M3619.2,2811c-9.9-24.5-79.4-40.3-104.2-43.2l3-4c27.4-.2,108.2,12.6,112.4,48.4.3,2.3-1.4,4.4-3.7,4.7-.2,0-.5,0-.7,0-3.2-.2-5.4-2.2-6.8-6Z"/>
  <path class="cls-24" d="M1239.8,2764c25.8,4.1,36.3,19,52.8,34.9,1,1,.8,1.6-.6,2l-27.3,6.2c-48.4-3.3-107.2,16.1-151.6,29-9.3,2.7-18,8.2-28.1,11-6.1-32.4,55-55.7,80.8-61.2,24.5.5,56.4-4.4,73.8-21.8Z"/>
  <path class="cls-1" d="M4031.8,2766l12,9.4c1.2.9,2.5,1.2,3.9.7l23.3-7.3c13.7,17.1,24,36.1,31,57l-53.2,30.2-3.4-.4c-1.4-.2-2.5-.8-3.4-1.8l-4.6-5.3c-1.4-1.6-2.8-1.6-4.3-.2-26.3,25.6-40.6,56.6-55.6,89.4-2.5,5.5-3,5.3-1.4-.5,10.1-38.4,22.7-75.8,38-112.4.4-.9,0-1.9-.9-2.2,0,0,0,0,0,0-18.2-6.9-37.1-10.8-56.6-11.7-1.4,0-2.8.2-4.1.9l-14,7.4c-1.5.8-2.4.3-2.8-1.3l-3.4-13.9c3.8-2.1,7.7-3.8,11.8-5,30.2-8.6,59.5-19.6,87.8-33ZM4023.8,2823.6l20,15.4c1.6,1.3,4,1,5.3-.6,9.2-10.8,13.8-23.4,14-37.8,0-1.7-.8-2.4-2.5-2-14.1,3.1-26.4,9.6-37,19.4-2.1,1.9-2,3.8.2,5.5Z"/>
  <path class="cls-36" d="M3515,2767.8c24.7,2.8,94.2,18.7,104.2,43.2.8,6.1-21.1,7.3-26,8.6-5.1,1.4-5,2.5.2,3.2l23.6,3.3-1.2,100.8c-.3.2-.6.4-.8.8-.2.5-.6.7-1.2.7l-125.2-7.8c4.7-34.4,10.8-68.5,18.3-102.3l57.9,3.4c1.6,0,2.3-.7,2.2-2.2l-.8-19.4c0-1.8-1-2.8-2.8-2.8l-52.4-2.4-.2-7.8c0-1.4-.8-2-2.1-2l-12.1.7c7.3-5.3,13.3-11.3,18.2-18.1Z"/>
  <path class="cls-11" d="M4569,2768.8l4.8.2,1.3,2c-4,2.3-6.1,1.6-6.2-2.2Z"/>
  <path class="cls-1" d="M1778,2770.5l24.6,84.4c.4,1.3.5,2.5.4,3.8-.3,2.9,1,5,3.9,6.2l-.7,30-52.2,18.8-13.4-5.2c-1.2-.5-2.4-.6-3.7-.3-10.2,2-20.3,1.7-30.2-.9-6.4-1.7-11.1-2.2-14.1-1.4-5,1.3-9.2,4-12.6,8.2-12.1-2.6-36.6-9-38.2-22.2,11.6-18.7,28.7-28.8,51.2-30.1,30.6-28.3,58.9-58.7,85-91.4Z"/>
  <path class="cls-3" d="M2684.8,2861.2c-17.5-14.9-37.6-48.9-22.6-70.9,12.9-19,46.8-20,64.7-11.4,31.8,15.3,45.8,40.5,41.8,75.6-5.2,46.3-62.4,24.9-83.9,6.6Z"/>
  <path class="cls-20" d="M1576,2798.2l-9.2,14.8c-2.9-1.3-5.9-1.6-9.1-.7-1.2.3-1.8,1.2-1.8,2.4.7,20.1,16.2,39.2,25.9,56.3h-4.7c-20-8.7-46.5-12.2-61.1-16-27.2-7-54.1-13.9-80.6-20.6-1.1-.2-1.7-1.3-1.5-2.4.2-.7.6-1.2,1.3-1.4,34.1-12.7,68.1-24.6,102-35.8,7.5-2.5,14.2-8.4,22.6-11.3,1.6-.5,2.7,0,3.2,1.6,2.4,6.6,6.7,10.9,12.9,13Z"/>
  <path class="cls-17" d="M3333,2792c.3,6.5-2,13.2-2,19.1-.1,66.4.3,132.9,1.2,199.3,0,1.4.7,2.3,2,2.7.6.2,1.2.2,1.8.1-40.1-1.2-91.5-4.6-154-10.2-5.4-.5-7.7-3.5-7-9.2-1.5-14.3-4.5-28.3-9-42l-23.9-167.2,190.9,7.4Z"/>
  <path class="cls-31" d="M3511.2,2795c1.2,8.2-.2,16-4.1,23.4-7.5,33.8-13.6,67.9-18.3,102.3l-13.7,81.2-139,11.3c-.6,0-1.2,0-1.8-.1-1.3-.4-2-1.3-2-2.7-.9-66.4-1.3-132.9-1.2-199.3,0-5.9,2.3-12.6,2-19.1l163.8-6.1,12.1-.7c1.4,0,2.1.6,2.1,2l.2,7.8Z"/>
  <path class="cls-4" d="M3511.2,2795l52.4,2.4c1.8,0,2.8,1,2.8,2.8l.8,19.4c0,1.5-.7,2.3-2.2,2.2l-57.9-3.4c3.9-7.4,5.3-15.2,4.1-23.4Z"/>
  <path class="cls-4" d="M4023.8,2823.6c-2.2-1.7-2.3-3.6-.2-5.5,10.6-9.8,22.9-16.3,37-19.4,1.7-.4,2.5.3,2.5,2-.2,14.3-4.8,26.9-14,37.8-1.3,1.6-3.7,1.8-5.3.6l-20-15.4Z"/>
  <path class="cls-15" d="M1264.8,2807c11.8,11.3,25.6,19.8,41.4,25.5-14.9,13-32.3,20.7-52.1,23.1-1.8.2-3.1,1.8-2.9,3.6,0,.5.2,1,.5,1.5l13.2,20c.9,1.4.7,2.6-.6,3.6l-34.7,27.3c-.8.6-1.9.4-2.5-.4-.3-.3-.4-.8-.4-1.2,1.1-13.4,4.6-26.1,10.3-38.2,1.5-3.2,1-3.5-1.5-1l-3.6,3.6c-1,1-2.3,1.6-3.7,1.8l-37.7,5.8c-32.5-1.9-57.2-.4-93.7-10.2l-13-5,1.2-19.8c10.1-2.8,18.8-8.4,28.1-11,44.4-12.8,103.2-32.3,151.6-29Z"/>
  <path class="cls-12" d="M1376,2806.8c5.2,1,9.1,3.6,11.8,7.9,1,1.6,1,3.2,0,4.8l-24,39.5c-1.5,2.4-1.1,5.6.9,7.6l10.3,10.2c.8.8,1.8,1.3,2.9,1.4,4.2.4,7.3,2.4,9.4,6.1,6.7,15.3,18.7,21.7,36,19.3,1.5-.2,2.6.4,3.3,1.7,9.6,17.3,35.6,9.8,50.5,5.8,16.4-.3,37.1-3.7,62-10.2,18.5-4.8,31.3-14.8,38.2-30h4.7l.6,1.6c.4,1.1,1.2,1.4,2.2.8,12.2-6.8,25-12.3,38.3-16.6l7,.4c1.6,0,2.4.9,2.5,2.5.5,11,2.7,21.7,6.6,32.1-13.6-1.5-30.8-10.9-27.1,14,1,6.6.9,13-.2,19.4-.2,1.1.3,1.8,1.4,2.1,12.1,2.9,20.3,10.4,24.8,22.7,4.4,10.1,10.1,18.9,17,26.5l10.2,20.4c.6,1.3.3,2-1.2,2-96.7,7.3-192.6,15.3-289.6,12.8-84.3-2.2-168.7-3.9-253.3-5-.5,0-.8-.4-.8-.8,0-.1,0-.2,0-.4l16.8-38.3,4.2-4.2c41.9-.2,83.9-.6,125.8-1.2,62-1,140,1.9,194-3.4,11.3-1.1,26.9-7,46.8-17.7.9-.5.8-.6-.2-.4-33.2,7.6-66.8,11.4-100.9,11.4-87.8,0-177.1,2.1-264.6-3.8-2.7-5-7.1-7.6-13.2-7.8,6.1-15.6,16.1-24.7,29.9-27.3,10.6-2,18.1-5.5,22.5-10.6,6.2-5.5,9.3-12.3,9.3-20.2l37.7-5.8c1.4-.2,2.6-.8,3.7-1.8l3.6-3.6c2.5-2.5,3-2.1,1.5,1-5.7,12.1-9.2,24.9-10.3,38.2,0,1,.7,1.9,1.7,1.9.4,0,.9,0,1.2-.4l34.7-27.3c1.3-1,1.5-2.3.6-3.6l-13.2-20c-1-1.5-.6-3.6.9-4.6.4-.3.9-.5,1.5-.5,19.8-2.4,37.2-10.1,52.1-23.1,28,3.9,51.3-4.6,69.8-25.7ZM1335.6,2867.3c-12.4-7.9-47.2,24-43,36,2.6,7.3,8.1,13.7,16.5,19.3,1.2.8,2.3.7,3.2-.4,10.7-12.2,45.8-40.4,23.2-54.8ZM1445.8,2983c9.4-2.8,17.7-7.6,24.8-14.4,1.5-1.4,1.2-1.9-.8-1.5-6.3,1.4-23.8,7.1-25.8,14.2-.2.7.2,1.5.9,1.7.2,0,.5,0,.7,0Z"/>
  <path class="cls-1" d="M1566.8,2813c-1.3,8.7,51.3,33.4,62.2,38.2l-6,5.7c-13.3,4.3-26.1,9.8-38.3,16.6-1,.6-1.8.3-2.2-.8l-.6-1.6c-9.7-17.1-25.2-36.2-25.9-56.3,0-1.3.6-2.1,1.8-2.4,3.1-.9,6.2-.6,9.1.7Z"/>
  <path class="cls-4" d="M785.2,2849c3,12.8-3.4,15.4-12.6,20.7-16.2,9.2-32.5,17.3-49,24.2-13.2-13.6-27.5-26.1-42.8-37.3-1.3-1-1.4-2,0-3l48.8-39.8c1.1-.9,2.3-1,3.6-.3,19.4,11.2,36.8,23,52.1,35.5Z"/>
  <path class="cls-25" d="M882,2814.8l26.1,28.6c1,1.1,1,2.2,0,3.4-19,24-32.9,50.6-41.7,79.8-15.4,2-30.9,2.2-46.8.6-19.6-2-31.3-14.1-41.9-29.2l104.2-83.2Z"/>
  <path class="cls-3" d="M3876.2,2844c-.3,0-.4-.4-.4-.6,0-.1.1-.3.3-.3,13.9-7.7,27-16.7,39.2-27,1.6-1.4,2.7-1,3.3,1l1.6,5.6c.4,1.5,0,2.8-1.2,3.9l-24.4,21.1c-1.3,1.1-2.7,1.4-4.3.9l-14.1-4.4Z"/>
  <path class="cls-36" d="M2274,2820.8c.5,0,.9.1,1.4.2.9.1,1.5.7,1.6,1.6,0,.5.1.9.2,1.4-21.2,20.3-32,50.4-40,78l-1.2,2.8-5.7,4-27.6-17.5c-4.2-2.7-5.5-8.3-2.8-12.6.1-.2.2-.4.4-.6l28.8-38.2c5.1-6.2,17.6-26.3,26.7-17.9,1,.9,2.2,1.4,3.5,1.6,5.2.6,10.1-.4,14.6-2.8Z"/>
  <path class="cls-5" d="M2284.2,2828.2c4-3.3,9.7-1.5,14.6-1.1,1.2.1,1.7.7,1.3,1.9l-1.4,4.4c-.4,1.2-1,2.2-1.9,3.1l-45,42.4c-2.1,1.9-2.6,1.5-1.7-1.1,6.6-19.7,18-36.2,34.2-49.5Z"/>
  <path class="cls-16" d="M4102,2825.8c11.6,3.4,17.4,8.1,21,20.4,6.6,23,17.3,44.1,32.2,63.4,1,1.3,1.1,2.6.3,4-1.5,2.6-3.7,4.8-6.4,6.7l-12,1.7-88.3-66,53.2-30.2Z"/>
  <path class="cls-18" d="M3617,2826.2l95.8,6.8,4.3,5,5,49,1.9,46.1c.1,2-1.4,3.7-3.4,3.8-.2,0-.4,0-.6,0-33.8-4.1-68.2-6.1-103-6l-1.2-3.8,1.2-100.8Z"/>
  <path class="cls-12" d="M4786.2,2828c22.9,13.2,56.8,55.4,32.8,80.8-17.2,7.5-35.2,11.1-54,11-51-.3-102,0-153,1,3.8-28.5,4.1-57.7.7-87.6,20.6,10.1,37.8,24.6,51.5,43.6,3,4.2,6.7,7.1,11.1,8.5,1.4.4,2.8-.3,3.3-1.7,0-.2.1-.5.1-.7.6-16.7-3.7-44,18-49.3,1.1-.3,2.2,0,3,.8,6.8,6.2,16.3,17.5,26.1,17.4,1.7,0,2.7-.9,2.8-2.6l1.4-19.3c.1-1.5,1.3-2.8,2.8-3,8.5-1.1,16.3.6,23.3,5.2,1.2.8,2.5,1.3,4,1.4,8.2.8,22.6,5,26-5.8Z"/>
  <path class="cls-27" d="M1882.5,2860.5l-.5,3.4-2.8,4.2c-9.2-7.5-15.3-17.1-18.2-28.8,2.2,0,4-.5,5.4-1.7,1-.8,1.9-.6,2.6.5l13.5,22.5Z"/>
  <path class="cls-16" d="M3717.2,2838l23.3,10.4c1.7.8,2,1.9.9,3.4-7.6,10.4-13.1,21.8-16.5,34.2l-2.7,1-5-49Z"/>
  <path class="cls-34" d="M2228.2,2839l1,1-28.8,38.2c-3,4-2.2,9.7,1.8,12.7.2.1.4.3.6.4l27.6,17.5c-26.7,12.2-61.6,20-82.3,41.3l-45.6-9.9c-.5-.1-.5-.3,0-.4,44.8-18.2,82-46.5,111.5-85l14.4-15.9Z"/>
  <path class="cls-20" d="M1693,2861.9c-22.5,1.4-39.6,11.4-51.2,30.1l-2.8-.2c-3.9-10.3-6.1-21-6.6-32.1,0-1.6-.9-2.4-2.5-2.5l-7-.4,6-5.7c27-8.4,44.4-18.2,64,10.7Z"/>
  <path class="cls-34" d="M2344.3,2881.8c15.2-8,35.2-24.4,55.6-33.3,1.2-.5,2.4-.6,3.7-.3,24.6,6.9,49.1,13.9,73.7,21,4,1.2,11.8,1.5,16,5.3,1.5,1.3,1.3,2.3-.6,3-30.5,10.3-60.7,21-90.7,32.2-6.6,2.5-13.5,3.6-20.5,3.4-31.9-.9-63.9-1.7-96-2.5-1.1,0-2-1.1-2-2.2,0-.8.6-1.6,1.4-1.8,20.3-6.3,40.1-14.6,59.4-24.8Z"/>
  <path class="cls-1" d="M2213.8,2854.9c-29.5,38.4-66.7,66.7-111.5,85-.4.2-.4.3,0,.4l45.6,9.9c3,3.6,3.4,7.9,1,12.7l-4.2,9.2c-3.6,3.6-5.9,7.9-6.8,12.8-67.4-3-121.5-4.9-169.6-1.1-1.4.1-2.5.7-3.4,1.7-4.9,5.5-10.2,9-16,10.6-56.5,15.4-115.5,16.5-177,3.2-11.4-2.5-16.7-10-15.7-22.4,33.4,6.7,67.3,10.1,101.4,10.2,1.5,0,2.9-.4,4-1.2,1.7-1.2,1.5-1.8-.6-1.7-29.9,1-59.4-1.9-88.5-8.7-8.5-2-13.4-8.1-14.6-16.2-6.2-26.3,8.8-44.6,35.3-44.6,1.8,0,2.2.7,1.2,2.2-5.9,8.6-20.8,19.9-22.3,29.4-.8,4.4,1.8,8.6,5.6,9.3,0,0,0,0,0,0,40.9,6.6,79.6,9.5,119.3,11.8,1.5,0,2.5-.6,2.8-2.1l3.5-18.8c.3-1.5,1.2-2.3,2.7-2.4,26.5-1.1,67.6-3.8,55.3-44.1-.4-1.3,0-2.4,1.2-3.1,11.5-6.8,7.2,30.7,7.2,35.4,0,1.3.6,2.1,1.8,2.3,18.8,4.2,29.1,21.9,49,19.8,63.6-6.7,129.7-45.6,175.6-88.6,5.7-5.4,6-13,17.4-11ZM1988.5,2946.2l-10.7-6.4c-1.9-1.1-3.1-.7-3.7,1.5l-4.3,16.2c-.5,1.7.2,2.4,1.9,2,6.7-1.7,12.5-4.9,17.2-9.8,1.4-1.4,1.2-2.5-.4-3.6Z"/>
  <path class="cls-4" d="M1844,2886.8l-37.8,8.2.7-30c.4-.1.7-.4,1-.8.7-1.1,1.6-1.2,2.6-.2,9.7,9.8,20.9,17.5,33.6,22.8Z"/>
  <path class="cls-36" d="M2997,2888c-.6-.2-1-.7-1-1.3v-20.6c0-2,.9-2.9,2.9-2.6l42.6,4.4c1.6.2,2.9.8,4.1,2,5.8,5.9,7.9,13,6.1,21.3-.3,1.2-1,2.1-2.1,2.7-9.1,4.6-18.8,6.6-29.2,6.1-1.4,0-2.6-.5-3.6-1.4-5.9-4.8-12.5-8.3-19.8-10.5Z"/>
  <path class="cls-30" d="M1335.6,2867.3c22.6,14.5-12.5,42.6-23.2,54.8-1,1.1-2,1.2-3.2.4-8.4-5.6-13.9-12-16.5-19.3-4.3-12,30.6-43.9,43-36Z"/>
  <path class="cls-36" d="M1084,2866.8l13,5-3.8,8.2c-.6,1.3-.4,2.5.8,3.4,6.5,5.2,10.5,12,12,20.4-7,2.9-12.3,7.6-16,14.3-3.1,0-5.9.5-8.6,1.9-5.3-19.5-20.1-37.6,2.6-53.2Z"/>
  <path class="cls-10" d="M2310,2871.2l3,1c-21.5,13.1-44.3,23.5-68.4,31,0,0-1.2.6-3.4,1.8-1.5.8-3.2.7-5.2-.2l1.2-2.8c2.4.4,4.4-.2,6.2-2.2,4.7-5.3,10.8-8.1,18.2-8.3,1.3,0,2.6-.4,3.7-1.1,14.1-8.3,29-14.8,44.7-19.3Z"/>
  <path class="cls-1" d="M1097,2871.8c36.6,9.8,61.2,8.3,93.7,10.2,0,7.9-3.2,14.7-9.3,20.2-25.5,11.1-50.9,2.6-75.4,1.6-1.5-8.4-5.5-15.2-12-20.4-1.1-.9-1.4-2-.8-3.4l3.8-8.2Z"/>
  <path class="cls-15" d="M2850,2871.8c34.1,1.3,65.7,10.4,95,27.3l4.2,8.8c-2.9,3-6.2,5.4-9.8,7.3-62.6,32.5-156.6,59.2-223.2,26.7l-.2-3.8c13-22.9,31.8-39.7,56.2-50.2l18.8-8.2,59-8Z"/>
  <path class="cls-15" d="M1477,2911.2c-14.8,4-40.9,11.5-50.5-5.8-.7-1.3-1.8-1.9-3.3-1.7-17.3,2.4-29.3-4-36-19.3,20.1-4.2,39.1-3.2,57.1,3,1.3.5,2.4,1.2,3.3,2.4,7.7,10.1,17.5,17.2,29.4,21.5Z"/>
  <path class="cls-2" d="M3724.8,2886l.3,4,4,38.2c.2,1.5-.3,2.7-1.4,3.7-3.9,3.8-5.9,8.5-6,13.8,0,1.7-.6,3.1-1.8,4.3l-23.8,25.3c-1,1-2.1,1.3-3.4.7l-77.2-34c-1.4-.6-2.2-1.7-2.4-3.3-.4-3.4.8-6,3.6-7.9,34.8,0,69.2,1.9,103,6,2,.2,3.8-1.2,4-3.1,0-.2,0-.4,0-.6l-1.9-46.1,2.7-1Z"/>
  <path class="cls-36" d="M4493,2893.2l-4,2.9c-1.1.8-2.3,1.1-3.7,1-27.6-2-84.6-9.6-101.3,2.8l-12.2,3.6c-1.3.4-1.9,1.3-1.8,2.7.7,6.4-3.8,7.6-9,6.7l3.2-.8c1.3-.3,2-1.2,1.9-2.6l-.2-4.8c0-1.3.4-2.5,1.4-3.4,21.1-20.6,98.4-13.4,125.6-8.1Z"/>
  <path class="cls-11" d="M1639,2891.8l2.8.2c1.5,13.2,26,19.6,38.2,22.2l26.2,6.5c1.6.4,2.4,1.4,2.5,3l.8,12.1c.1,1.8-.7,2.8-2.5,2.8l-65.3,2.9c-1.4,0-2.4.8-3,2.1-.9,2.1-1.2,4.2-.9,6.4-4.5-12.3-12.7-19.8-24.8-22.7-1.1-.3-1.5-1-1.4-2.1,1.1-6.3,1.1-12.8.2-19.4-3.7-25,13.5-15.6,27.1-14Z"/>
  <path class="cls-15" d="M4352.8,2924c1.7-4.5,4.4-8.2,8.2-11.2,5.2.8,9.7-.3,9-6.7-.1-1.4.5-2.3,1.8-2.7l12.2-3.6c35.1-1.7,70.1-.7,105.1,3,18.8,2,25.2,8.7,32.4,24.8,1,2.2.2,4.8-1.8,6.1-36.6,23.2-90.9,22.5-132.8,19.3-19.5-1.5-31.6-9.6-34-29.1Z"/>
  <path class="cls-37" d="M1885.2,2922.2c-2.7-.3-3-1.4-.8-3.1,8.6-6.6,53-30.3,59.7-12,.5,1.3.3,2.4-.6,3.5-11.7,13.8-41.8,13.9-58.2,11.6Z"/>
  <path class="cls-16" d="M1181.4,2902.3c-4.4,5.1-11.9,8.6-22.5,10.6-13.8,2.6-23.7,11.7-29.9,27.3l-34.2-6.7c-1.4-.3-2.5-1-3.2-2.3-2.2-3.8-2.7-8.2-1.6-13,3.7-6.7,9-11.5,16-14.3,24.5,1,49.9,9.6,75.4-1.6Z"/>
  <path class="cls-3" d="M1754,2913.8c-24.6,13.4-10.7,31.7,4,45.2,1.2,8.1,6.1,14.2,14.6,16.2,29,6.8,58.5,9.7,88.5,8.7,2.1,0,2.3.5.6,1.7-1.1.8-2.4,1.2-4,1.2-34.2,0-68-3.5-101.4-10.2-34.1,1.8-67.9,1.7-101.4-.3-6.9-7.6-12.6-16.4-17-26.5-.3-2.2,0-4.3.9-6.4.6-1.3,1.6-2,3-2.1l65.3-2.9c1.8,0,2.6-1,2.5-2.8l-.8-12.1c-.1-1.7-.9-2.7-2.5-3l-26.2-6.5c3.4-4.2,7.6-6.9,12.6-8.2,3-.8,7.7-.3,14.1,1.4,9.9,2.6,20,2.9,30.2.9,1.3-.2,2.5-.1,3.7.3l13.4,5.2Z"/>
  <path class="cls-1" d="M2949.2,2908l2.8,8.2c-1.4,17.4,15,21.6,2,41.7-5.5,4.2-9.4,9.6-11.5,16.1-.4,1.3-.2,2.4.8,3.4l10.7,10.6c-21.8-2.1-42.4,1.7-62,11.3l-43.7,8.9c-43.9,1.2-86.9-4.1-128.9-15.9-1.3-.4-2.3,0-2.9,1.3-27.6,56.3-182.3,42.2-229.4,29.6-12.2-3.3-20.9-7.9-26-13.8,30.4,12.5,62,18.3,95,17.2,1.3,0,1.5-.5.6-1.5-19.9-19.8-36.5-43.1-60-58.8-1.1-.8-1-1.3.3-1.5,8.2-1.4,61.6,50.5,70.7,60.1.9,1,2.1,1.4,3.4,1.4,31.5-2,63.7-3.7,93.8-13.2,10.1-3.2,44.5-12.6,46-22.2.8-5.4-5-15.5-6.8-21.9-.4-1.5-1.2-1.7-2.3-.6-12.9,13.1-28.1,22.1-45.5,26.9-6.7-.8-13.2.3-19.3,3.2-1.2.6-2.4.8-3.8.8-13.6-.6-21.9-2.9-34.1,4.8-9.2-8.5-12.3-19.3-9.4-32.2,3.7-16.1,23.7-14.2,35.2-11.1,2.5.7,3,2.1,1.5,4.2l-9.3,13.7c-.7,1.1-.5,1.8.8,2.1,11.6,3.1,49.6-23.1,61.6-29.8l11.9,1.2c1.4.2,2.6.7,3.6,1.6,1.9,1.7,3.8,1.4,5.7-.7.9-1,1.9-1.4,3.2-1.2,6.4.7,10.5-2.4,12.4-9.4,66.6,32.5,160.6,5.8,223.2-26.7,3.6-1.9,6.9-4.3,9.8-7.3Z"/>
  <path class="cls-23" d="M2952,2916.2c3.7.8,6.1,3.1,7.2,6.9.4,1.3,1.2,2.1,2.5,2.5,16.4,4.9,29.2,7.6,38.6,8.1,34.1,1.6,67.7,5.9,101,12.9-49.5,1.9-98.5,5.7-147.2,11.3,13-20.1-3.4-24.3-2-41.7Z"/>
  <path class="cls-4" d="M2716,2938.2l.2,3.8c-1.8,7-6,10.1-12.4,9.4-1.3-.1-2.3.3-3.2,1.2-1.9,2.1-3.8,2.4-5.7.7-1.1-.9-2.3-1.4-3.6-1.6l-11.9-1.2c-32.6-10.8-73.2-10.9-107.4-12.4-14.9-.6-40.5,2.6-76.8,9.8l-3.2-2.2c14.9-2.5,30.3-7.2,44.2-8.9,29.2-3.6,58.5-6.8,87.8-9.4,8-.7,20.6.9,30.4,3.2,20.2,4.7,40.8,7.1,61.6,7.4Z"/>
  <path class="cls-15" d="M2679.4,2950.6c-12.1,6.7-50,32.9-61.6,29.8-1.2-.3-1.5-1-.8-2.1l9.3-13.7c1.4-2.1.9-3.5-1.5-4.2-11.5-3.1-31.5-5-35.2,11.1-2.9,12.9.2,23.7,9.4,32.2,5.7,4.7,27.4,23.7,29.8,3.9.2-1.4.9-2.4,2.2-2.9l25.2-9.8c17.5-4.9,32.6-13.8,45.5-26.9,1.1-1.1,1.9-.9,2.3.6,1.8,6.4,7.6,16.4,6.8,21.9-1.5,9.7-35.9,19-46,22.2-30.1,9.6-62.3,11.2-93.8,13.2-1.4,0-2.5-.4-3.4-1.4-9-9.6-62.5-61.4-70.7-60.1-1.4.2-1.5.7-.3,1.5,23.5,15.7,40.1,39,60,58.8.9.9.7,1.4-.6,1.5-33,1.1-64.6-4.7-95-17.2-6.1-4.2-10.9-9.6-14.2-16.2v-14c5.6-16.1,34.5-27.4,48.3-31,36.3-7.1,62-10.4,76.8-9.8,34.2,1.5,74.8,1.6,107.4,12.4Z"/>
  <path class="cls-6" d="M1141.2,2963l1-15c87.5,5.9,176.8,3.7,264.6,3.8,34.1,0,67.7-3.8,100.9-11.4,1-.2,1,0,.2.4-20,10.7-35.6,16.6-46.8,17.7-54,5.3-132,2.4-194,3.4-41.9.7-83.9,1.1-125.8,1.2Z"/>
  <path class="cls-37" d="M1989,2949.8c-4.8,4.8-10.5,8.1-17.2,9.8-1.8.4-2.4-.2-1.9-2l4.3-16.2c.6-2.1,1.8-2.6,3.7-1.5l10.7,6.4c1.7,1,1.8,2.2.4,3.6Z"/>
  <path class="cls-31" d="M2443,2941.2c-20.3,6.8-40.9,6.7-61.6,14.6-7.6,2.9-14,2.5-21.7,5-1.2.4-2.3,1-3.2,1.9l-12.8,12.7c-9.4,3.3-19.3,4.6-29.7,3.8-20.7-15.4-33.4-3.8-47,11.7-33.7-3-67.4-5.3-101.2-6.6-9.3-.4-18.5-.2-27.8.6,1-5,3.2-9.2,6.8-12.8l.2,1.9c.1,1.2.8,1.8,2,1.8,11.8,0,74.7.3,79.8-7.8.6-.9.3-2.1-.6-2.7-.3-.2-.7-.3-1-.3l-54.1-1.1c13.5-3.1,27.1-4.4,41-3.8,1.3,0,2.5-.3,3.4-1.2,1.7-1.4,2.6-2.2,5-2,23.2,1.9,42.7-7.2,66.8-7.1,43.9.2,87.5-3,130.8-9.6,5.1-.8,13.5-.5,25,1Z"/>
  <path class="cls-13" d="M2492,2945.8l3.2,2.2c-13.8,3.6-42.7,14.9-48.3,31-2.4-.9-4.4-1.3-5.8-1.1-45.6,6.2-83.6,9.3-114,9.4-4.8,0-9.1-2.7-13-8.2,10.4.8,20.3-.4,29.7-3.8,38.5-4.9,76.4-12.2,113.7-21.8,1.6-.4,2.9,0,4.1,1.1l1,1c.7.7,1.5.8,2.4.3,8.5-4.8,17.5-8.2,27-10.2Z"/>
  <path class="cls-3" d="M3101.2,2946.5c21.4,3.4,42.9,5.1,64.8,5.3,4.5,13.7,7.5,27.7,9,42-5,1.7-9,2.5-12,2.2-40.9-2.8-83-3.1-122.6-5.4-28.7-1.6-57.5-2.6-86.4-2.9l-10.7-10.6c-1-1-1.2-2.1-.8-3.4,2.2-6.5,6-11.8,11.5-16.1,48.7-5.6,97.8-9.4,147.2-11.3Z"/>
  <path class="cls-20" d="M4158,2947.8l19.2,5.4c5.5,1.6,5.4,2.3-.4,2.1l-38.8-1.2,20-6.3Z"/>
  <path class="cls-22" d="M2149,2962.8l22,1,54.1,1.1c1.1,0,1.9.9,1.9,1.9,0,.4-.1.7-.3,1-5.1,8-68,7.8-79.8,7.8-1.2,0-1.9-.6-2-1.8l-.2-1.9,4.2-9.2Z"/>
  <path class="cls-16" d="M1445.8,2983c-.7.2-1.5-.2-1.7-.9,0-.2,0-.5,0-.7,1.9-7.1,19.4-12.8,25.8-14.2,2-.4,2.2,0,.8,1.5-7.1,6.7-15.4,11.5-24.8,14.4Z"/>
  <path class="cls-30" d="M2314,2979.2c3.9,5.4,8.2,8.2,13,8.2,30.4,0,68.4-3.2,114-9.4,1.5-.2,3.4.1,5.8,1.1v14c-49.1-1.8-81,2.2-118.6.4-20.6-1-41.1.4-61.2-2.6,13.7-15.5,26.3-27,47-11.7Z"/>
  <path class="cls-3" d="M2656.2,2995l-25.2,9.8c-1.3.5-2.1,1.5-2.2,2.9-2.4,19.8-24.1.8-29.8-3.9,12.2-7.7,20.4-5.4,34.1-4.8,1.3,0,2.6-.2,3.8-.8,6.2-3,12.6-4.1,19.3-3.2Z"/>
  <path class="cls-4" d="M3037.1,3011c-2.4-.2-2.6-1.1-.8-2.5,11.8-9.1,25.1-12.4,40.2-10,1.8.3,2.8,1.3,2.9,3.2l.8,10.4c.2,1.7-.6,2.5-2.4,2.4l-40.8-3.5Z"/>
  <path class="cls-24" d="M2892,2999.2c3.6,4.6,5.6,9.8,6,15.7-4.7,12.5-11.4,23.8-20,34-18.5,1.9-36.8,1.7-54.9-.5-1.8-.2-3-1.8-2.8-3.6,0-.3.1-.7.3-1,6.6-14,15.8-25.9,27.7-35.8l43.7-8.9Z"/>
  <path class="cls-4" d="M3114,3024.4l-2.7-22c-.2-1.2.7-2.3,1.9-2.5,0,0,.1,0,.2,0,22.3-1,42.1,5.2,59.6,18.4,2.8,2.1,7.5,3.8,9.2,8.3.5,1.4-.2,2.9-1.6,3.4-.3.1-.6.2-.9.2h-59.2c-3.3,0-6.1-2.5-6.5-5.8Z"/>
  <path class="cls-2" d="M1686.9,3012.6c2.5-11.3,25.3-10.4,32.8-10,1.7.1,2.7,1,3.2,2.6l3,11.7c.4,1.5-.2,2.1-1.7,2l-34.9-3.2c-2-.2-2.7-1.2-2.3-3.1Z"/>
  <path class="cls-2" d="M2107,3022.4c-.9-.2-1.5-1.1-1.3-1.9,0-.2.1-.3.2-.5,2.9-4.8,41.8-10,49.2-11,2.2-.3,3.2.7,3,2.8l-.9,12.2c-.1,1.9-1.1,2.8-3,2.9-15.9.6-31.7-.9-47.2-4.5Z"/>
  <path class="cls-4" d="M2368,3019.6c-2.1-.3-3.4-1.5-4-3.5-2.2-7.6,30.2-11.7,32.8,5.3.3,1.9-.5,2.7-2.4,2.4l-26.4-4.2Z"/>
  <path class="cls-16" d="M2898,3014.8c6.5,8.6,11.9,19,16.2,31.3.6,1.5-.3,3.2-1.8,3.8-.4.1-.8.2-1.1.2l-33.3-1.2c8.6-10.2,15.3-21.5,20-34Z"/>
</svg>